<?xml version="1.0" encoding="UTF-8" standalone="no"?>
<svg
   xmlns:dc="http://purl.org/dc/elements/1.1/"
   xmlns:cc="http://creativecommons.org/ns#"
   xmlns:rdf="http://www.w3.org/1999/02/22-rdf-syntax-ns#"
   xmlns:svg="http://www.w3.org/2000/svg"
   xmlns="http://www.w3.org/2000/svg"
   xml:space="preserve"
   style="enable-background:new 0 0 24 24;"
   viewBox="0 0 24 24"
   y="0px"
   x="0px"
   id="レイヤー_1"
   version="1.1"><metadata
   id="metadata13"><rdf:RDF><cc:Work
       rdf:about=""><dc:format>image/svg+xml</dc:format><dc:type
         rdf:resource="http://purl.org/dc/dcmitype/StillImage" /><dc:title></dc:title></cc:Work></rdf:RDF></metadata><defs
   id="defs11" />
<style
   id="style2"
   type="text/css">
	.st0{fill:#F1F0EF;}
	.st1{fill:#036EB7;}
</style>

<path
   style="fill:#036eb7;stroke-width:1.27644527"
   id="path6"
   d="M 20.482015,6.3853211 12.194244,0.09436435 c -0.129496,-0.12581913 -0.258992,-0.12581913 -0.388488,0 L 3.5179857,6.3853211 C 3.1294966,6.6369593 3,7.0144168 3,7.266055 v 3.522936 c 0,0.251638 0.3884892,0.503276 0.647482,0.251638 l 3.8848922,-2.89384 c 0.2589926,-0.1258192 0.5179855,0 0.5179855,0.3774574 V 22.993447 C 8.0503597,23.496723 8.5683453,24 9.086331,24 h 5.697841 c 0.517986,0 1.035971,-0.503277 1.035971,-1.006553 V 8.5242464 c 0,-0.2516383 0.38849,-0.5032766 0.647482,-0.2516383 l 3.884893,2.8938399 C 20.61151,11.292267 21,11.166448 21,10.91481 V 7.266055 C 20.870504,7.0144168 20.741008,6.6369593 20.482015,6.3853211"
   class="st1" />
</svg>