<?xml version="1.0" encoding="UTF-8" standalone="no"?>
<svg
   xmlns:dc="http://purl.org/dc/elements/1.1/"
   xmlns:cc="http://creativecommons.org/ns#"
   xmlns:rdf="http://www.w3.org/1999/02/22-rdf-syntax-ns#"
   xmlns:svg="http://www.w3.org/2000/svg"
   xmlns="http://www.w3.org/2000/svg"
   xml:space="preserve"
   style="enable-background:new 0 0 24 24;"
   viewBox="0 0 24 24"
   y="0px"
   x="0px"
   id="レイヤー_1"
   version="1.1"><metadata
   id="metadata19"><rdf:RDF><cc:Work
       rdf:about=""><dc:format>image/svg+xml</dc:format><dc:type
         rdf:resource="http://purl.org/dc/dcmitype/StillImage" /><dc:title></dc:title></cc:Work></rdf:RDF></metadata><defs
   id="defs17" />
<style
   id="style2"
   type="text/css">
	.st0{fill:#F1F0EF;}
	.st1{fill:#595757;}
	.st2{fill:#E50012;}
</style>

<polygon
   style="fill:#595757"
   transform="matrix(1.1701879,0,0,1.2307692,-0.93615033,-3.4461539)"
   id="polygon6"
   points="3.1,7.6 3.1,9.7 4.7,9.7 4.7,4.5 3.1,4.5 3.1,6.7 0.8,6.7 0.8,7.6 "
   class="st1" />
<path
   style="fill:#595757;stroke-width:1.20009625"
   id="path8"
   d="M 22.23357,0 H 7.1381462 C 6.0849772,0 5.2658456,0.86153846 5.2658456,1.9692308 v 8.2461542 c 0,1.107692 0.8191316,1.96923 1.8723006,1.96923 h 1.2872067 v 2.092308 H 20.829344 v -2.092308 h 1.287207 c 1.05317,0 1.872301,-0.861538 1.872301,-1.96923 V 1.9692308 C 24.105871,0.86153846 23.28674,0 22.23357,0 Z M 7.1381462,2.0923077 H 14.627349 V 3.5692308 H 7.1381462 Z m 0,3.4461538 H 14.627349 V 7.0153846 H 7.1381462 Z m 0,3.0769231 H 14.627349 V 10.092308 H 7.1381462 Z"
   class="st1" />
<path
   style="fill:#e50012;stroke-width:1.29043317"
   id="path10"
   d="M 11.411958,23.138461 C 10.870761,23.753846 10.058969,24 9.1118758,24 8.1647832,24 7.3529895,23.630769 6.8117937,23.138461 6,22.4 6,21.415385 6,19.938462 c 0,-1.353847 0,-2.338462 0.8117937,-3.2 0.5411958,-0.615385 1.3529895,-0.861539 2.3000821,-0.861539 0.9470932,0 1.7588852,0.369231 2.3000822,0.861539 0.811794,0.738461 0.811794,1.723076 0.811794,3.2 0,1.476923 0,2.461538 -0.811794,3.199999 M 10.058969,17.846154 C 9.7883703,17.6 9.3824739,17.476923 8.9765768,17.476923 c -0.4058968,0 -0.8117936,0.123077 -1.0823915,0.369231 -0.2705979,0.36923 -0.4058969,0.738461 -0.4058969,2.215385 0,1.476923 0.135299,1.846153 0.4058969,2.215384 0.2705979,0.246154 0.6764947,0.369231 1.0823915,0.369231 0.4058971,0 0.8117935,-0.123077 1.0823922,-0.369231 0.270597,-0.369231 0.405896,-0.738461 0.405896,-2.215384 0,-1.476924 0,-1.846155 -0.405896,-2.215385"
   class="st2" />
<polygon
   style="fill:#e50012"
   transform="matrix(1.3529895,0,0,1.2307692,-3.4709261,-3.4461539)"
   id="polygon12"
   points="16.5,19.8 16.5,15.9 17.8,15.9 17.8,22.3 16.7,22.3 14.1,18.4 14.1,22.3 12.9,22.3 12.9,15.9 14,15.9 "
   class="st2" />
</svg>