<?xml version="1.0" encoding="UTF-8" standalone="no"?>
<svg
   xmlns:dc="http://purl.org/dc/elements/1.1/"
   xmlns:cc="http://creativecommons.org/ns#"
   xmlns:rdf="http://www.w3.org/1999/02/22-rdf-syntax-ns#"
   xmlns:svg="http://www.w3.org/2000/svg"
   xmlns="http://www.w3.org/2000/svg"
   xml:space="preserve"
   style="enable-background:new 0 0 24 24;"
   viewBox="0 0 24 24"
   y="0px"
   x="0px"
   id="レイヤー_1"
   version="1.1"><metadata
   id="metadata19"><rdf:RDF><cc:Work
       rdf:about=""><dc:format>image/svg+xml</dc:format><dc:type
         rdf:resource="http://purl.org/dc/dcmitype/StillImage" /><dc:title></dc:title></cc:Work></rdf:RDF></metadata><defs
   id="defs17" />
<style
   id="style2"
   type="text/css">
	.st0{fill:#F1F0EF;}
	.st1{fill:#E50012;}
</style>

<path
   style="fill:#e50012;stroke-width:1.25364983"
   id="path6"
   d="M 15.172661,17.931732 H 8.6978419 c -0.3884893,0 -0.647482,-0.242731 -0.647482,-0.606827 v -2.427308 c 0,-0.364096 0.2589927,-0.606825 0.647482,-0.606825 h 6.4748191 c 0.388491,0 0.647483,0.242729 0.647483,0.606825 v 2.427308 c 0,0.364096 -0.258992,0.606827 -0.647483,0.606827"
   class="st1" />
<path
   style="fill:#e50012;stroke-width:1.25364983"
   id="path8"
   d="M 15.172661,21.572692 H 8.6978419 c -0.3884893,0 -0.647482,-0.24273 -0.647482,-0.606827 v -1.213652 c 0,-0.364097 0.2589927,-0.606827 0.647482,-0.606827 h 6.4748191 c 0.388491,0 0.647483,0.24273 0.647483,0.606827 v 1.213652 c 0,0.364097 -0.258992,0.606827 -0.647483,0.606827"
   class="st1" />
<path
   style="fill:#e50012;stroke-width:1.25364983"
   id="path10"
   d="M 15.172661,24 H 8.6978419 c -0.3884893,0 -0.647482,-0.242731 -0.647482,-0.606827 0,-0.364096 0.2589927,-0.606827 0.647482,-0.606827 h 6.4748191 c 0.388491,0 0.647483,0.242731 0.647483,0.606827 C 15.820144,23.635904 15.561152,24 15.172661,24"
   class="st1" />
<path
   style="fill:#e50012;stroke-width:1.25364983"
   id="path12"
   d="M 20.482014,6.159292 12.194245,0.09102403 c -0.129496,-0.12136537 -0.258993,-0.12136537 -0.388489,0 L 3.5179856,6.159292 C 3.1294964,6.4020227 3,6.6447534 3,7.0088495 V 10.40708 c 0,0.24273 0.3884891,0.485461 0.6474821,0.24273 L 7.5323742,7.858407 c 0.1294964,-0.1213654 0.5179857,0 0.5179857,0.2427308 v 4.0050572 c 0,0.485462 0.5179856,0.970923 1.0359712,0.970923 h 5.6978409 c 0.517987,0 1.035972,-0.485461 1.035972,-0.970923 V 8.1011378 c 0,-0.2427308 0.38849,-0.4854614 0.647483,-0.2427308 l 3.88489,2.791403 C 20.61151,10.771176 21,10.64981 21,10.40708 V 7.0088495 C 20.870503,6.6447534 20.741007,6.4020227 20.482014,6.159292"
   class="st1" />
</svg>