<?xml version="1.0" encoding="UTF-8" standalone="no"?>
<svg
   xmlns:dc="http://purl.org/dc/elements/1.1/"
   xmlns:cc="http://creativecommons.org/ns#"
   xmlns:rdf="http://www.w3.org/1999/02/22-rdf-syntax-ns#"
   xmlns:svg="http://www.w3.org/2000/svg"
   xmlns="http://www.w3.org/2000/svg"
   xml:space="preserve"
   style="enable-background:new 0 0 24 24;"
   viewBox="0 0 24 24"
   y="0px"
   x="0px"
   id="レイヤー_1"
   version="1.1"><metadata
   id="metadata21"><rdf:RDF><cc:Work
       rdf:about=""><dc:format>image/svg+xml</dc:format><dc:type
         rdf:resource="http://purl.org/dc/dcmitype/StillImage" /><dc:title></dc:title></cc:Work></rdf:RDF></metadata><defs
   id="defs19" />
<style
   id="style2"
   type="text/css">
	.st0{fill:#F1F0EF;}
	.st1{fill:#595757;}
	.st2{fill:#E50012;}
</style>
<polygon
   transform="matrix(1.0666667,0,0,1.0714286,-0.85333333,-0.5702271)"
   style="fill:#595757;fill-opacity:1"
   id="polygon14"
   points="7.7,8.2 4.9,8.2 2.2,11.7 4.9,15.3 7.7,15.3 5.8,12.7 11,12.7 11,17.7 8.4,15.7 8.4,18.5 12,21.2 15.5,18.5 15.5,15.7 13,17.7 13,12.7 18.2,12.7 16.3,15.3 19.1,15.3 21.8,11.7 19.1,8.2 16.3,8.2 18.2,10.7 13,10.7 13,5.8 15.5,7.8 15.5,5 12,2.2 8.4,5 8.4,7.8 11,5.8 11,10.7 5.8,10.7 "
   class="st2" />
<path
   style="fill:#595757;stroke-width:1.07142854"
   id="path6"
   d="M 0,24 V 0 H 24 V 24 C 16.509234,24 7.8798035,24 0,24 Z M 1.0714289,22.928571 H 22.928572 V 1.0714286 H 1.0714289 Z"
   class="st1" />




</svg>