<?xml version="1.0" encoding="UTF-8" standalone="no"?>
<svg
   xmlns:dc="http://purl.org/dc/elements/1.1/"
   xmlns:cc="http://creativecommons.org/ns#"
   xmlns:rdf="http://www.w3.org/1999/02/22-rdf-syntax-ns#"
   xmlns:svg="http://www.w3.org/2000/svg"
   xmlns="http://www.w3.org/2000/svg"
   xmlns:sodipodi="http://sodipodi.sourceforge.net/DTD/sodipodi-0.dtd"
   xmlns:inkscape="http://www.inkscape.org/namespaces/inkscape"
   xml:space="preserve"
   viewBox="0 0 22.330133 21.542974"
   y="0px"
   x="0px"
   id="レイヤー_1"
   version="1.1"
   sodipodi:docname="bottomView.svg"
   inkscape:version="0.92.4 (5da689c313, 2019-01-14)"
   width="22.330133"
   height="21.542974"><sodipodi:namedview
   pagecolor="#ffffff"
   bordercolor="#666666"
   borderopacity="1"
   objecttolerance="10"
   gridtolerance="10"
   guidetolerance="10"
   inkscape:pageopacity="0"
   inkscape:pageshadow="2"
   inkscape:window-width="1920"
   inkscape:window-height="1057"
   id="namedview8"
   showgrid="false"
   inkscape:zoom="39.333333"
   inkscape:cx="7.4659339"
   inkscape:cy="10.578654"
   inkscape:window-x="-8"
   inkscape:window-y="1072"
   inkscape:window-maximized="1"
   inkscape:current-layer="レイヤー_1"
   fit-margin-top="0"
   fit-margin-left="0"
   fit-margin-right="0"
   fit-margin-bottom="0" /><metadata
   id="metadata15"><rdf:RDF><cc:Work
       rdf:about=""><dc:format>image/svg+xml</dc:format><dc:type
         rdf:resource="http://purl.org/dc/dcmitype/StillImage" /><dc:title></dc:title></cc:Work></rdf:RDF></metadata><defs
   id="defs13" />
<style
   id="style2"
   type="text/css">
	.st0{fill:#F1F0EF;}
	.st1{fill:#9E9E9F;}
	.st2{fill:#E50012;}
</style>



<path
   style="opacity:1;vector-effect:none;fill:#5aa1d2;fill-opacity:1;fill-rule:evenodd;stroke:none;stroke-width:1.29999995;stroke-linecap:butt;stroke-linejoin:round;stroke-miterlimit:4;stroke-dasharray:none;stroke-dashoffset:0;stroke-opacity:1"
   d="M 0.75058288,20.701206 15.699735,21.158901 21.71386,15.184655 6.8155556,14.846077 Z"
   id="rect908"
   inkscape:connector-curvature="0"
   sodipodi:nodetypes="ccccc" /><style
   id="style884"
   type="text/css">
	.st0{fill:#F1F0EF;}
	.st1{fill:#036EB7;}
</style><style
   type="text/css"
   id="style2-5">
	.st0{fill:#F1F0EF;}
	.st1{fill:#9E9E9F;}
	.st2{fill:#E50012;}
</style><style
   type="text/css"
   id="style884-6">
	.st0{fill:#F1F0EF;}
	.st1{fill:#036EB7;}
</style><style
   id="style2-6"
   type="text/css">
	.st0{fill:#F1F0EF;}
	.st1{fill:#9E9E9F;}
	.st2{fill:#E50012;}
</style><style
   id="style884-2"
   type="text/css">
	.st0{fill:#F1F0EF;}
	.st1{fill:#036EB7;}
</style><g
   id="g9227"
   transform="translate(-1.2910011,-1.1660156)"><path
     id="rect837-8"
     d="M 7.921875,1.1132812 A 0.7040425,0.7040425 0 0 0 7.4492188,1.3125 l -6,5.8613281 A 0.7040425,0.7040425 0 0 0 1.2382812,7.6757812 V 22.058594 A 0.7040425,0.7040425 0 0 0 2.4316406,22.5625 L 8.3125,16.847656 h 14.658203 a 0.65006498,0.65006498 0 0 0 0.650391,-0.65039 V 1.8164062 A 0.65006498,0.65006498 0 0 0 22.970703,1.1660156 H 8.2109375 A 0.7040425,0.7040425 0 0 0 7.921875,1.1132812 Z M 8.6464844,2.4667969 H 22.320312 V 15.548828 H 8.6464844 Z M 7.2382812,3.4882812 V 15.931641 L 2.6464844,20.392578 V 7.9726562 Z"
     style="color:#000000;font-style:normal;font-variant:normal;font-weight:normal;font-stretch:normal;font-size:medium;line-height:normal;font-family:sans-serif;font-variant-ligatures:normal;font-variant-position:normal;font-variant-caps:normal;font-variant-numeric:normal;font-variant-alternates:normal;font-feature-settings:normal;text-indent:0;text-align:start;text-decoration:none;text-decoration-line:none;text-decoration-style:solid;text-decoration-color:#000000;letter-spacing:normal;word-spacing:normal;text-transform:none;writing-mode:lr-tb;direction:ltr;text-orientation:mixed;dominant-baseline:auto;baseline-shift:baseline;text-anchor:start;white-space:normal;shape-padding:0;clip-rule:nonzero;display:inline;overflow:visible;visibility:visible;opacity:1;isolation:auto;mix-blend-mode:normal;color-interpolation:sRGB;color-interpolation-filters:linearRGB;solid-color:#000000;solid-opacity:1;vector-effect:none;fill:#9e9e9f;fill-opacity:1;fill-rule:evenodd;stroke:none;stroke-width:1.29999995;stroke-linecap:butt;stroke-linejoin:round;stroke-miterlimit:4;stroke-dasharray:none;stroke-dashoffset:0;stroke-opacity:1;color-rendering:auto;image-rendering:auto;shape-rendering:auto;text-rendering:auto;enable-background:accumulate"
     inkscape:connector-curvature="0" /><path
     id="rect837"
     d="m 7.9414062,1.1660156 a 0.65014372,0.65014372 0 0 0 -0.453125,0.1855469 l -6,5.859375 a 0.65014372,0.65014372 0 0 0 -0.00977,0.00977 0.65006498,0.65006498 0 0 0 -0.00977,0.011719 0.65014372,0.65014372 0 0 0 -0.037109,0.039063 0.65006498,0.65006498 0 0 0 -0.00195,0.00586 0.65014372,0.65014372 0 0 0 -0.033203,0.046875 0.65006498,0.65006498 0 0 0 -0.00977,0.015625 0.65014372,0.65014372 0 0 0 -0.017578,0.029297 0.65006498,0.65006498 0 0 0 -0.025391,0.054687 0.65006498,0.65006498 0 0 0 -0.021484,0.056641 0.65014372,0.65014372 0 0 0 -0.00195,0.00781 0.65006498,0.65006498 0 0 0 -0.015625,0.060547 0.65006498,0.65006498 0 0 0 -0.00977,0.058594 0.65014372,0.65014372 0 0 0 0,0.00781 0.65006498,0.65006498 0 0 0 -0.00391,0.060547 V 22.058594 a 0.65006498,0.65006498 0 0 0 0.6503906,0.65039 H 16.970703 a 0.65006498,0.65006498 0 0 0 0.0059,0 0.65006498,0.65006498 0 0 0 0.185547,-0.0293 0.65006498,0.65006498 0 0 0 0.04492,-0.01563 0.65006498,0.65006498 0 0 0 0.01758,-0.0059 0.65006498,0.65006498 0 0 0 0.01563,-0.0078 0.65006498,0.65006498 0 0 0 0.04297,-0.02148 0.65006498,0.65006498 0 0 0 0.01367,-0.0078 0.65006498,0.65006498 0 0 0 0.04102,-0.02539 0.65006498,0.65006498 0 0 0 0.01367,-0.0098 0.65006498,0.65006498 0 0 0 0.03711,-0.0293 0.65006498,0.65006498 0 0 0 0.01367,-0.01172 0.65006498,0.65006498 0 0 0 0.02148,-0.01953 0.65006498,0.65006498 0 0 0 0.01367,-0.01367 l 5.986328,-5.816407 a 0.65006498,0.65006498 0 0 0 0.197266,-0.466796 V 1.8164062 a 0.65006498,0.65006498 0 0 0 0,-0.00195 0.65014372,0.65014372 0 0 0 -0.01367,-0.1269531 0.65006498,0.65006498 0 0 0 0,-0.00195 0.65014372,0.65014372 0 0 0 -0.01563,-0.060547 0.65006498,0.65006498 0 0 0 0,-0.00195 0.65014372,0.65014372 0 0 0 -0.02148,-0.060547 0.65006498,0.65006498 0 0 0 0,-0.00195 0.65014372,0.65014372 0 0 0 -0.0293,-0.056641 0.65006498,0.65006498 0 0 0 0,-0.00195 0.65014372,0.65014372 0 0 0 -0.0332,-0.052734 0.65006498,0.65006498 0 0 0 0,-0.00195 0.65014372,0.65014372 0 0 0 -0.03906,-0.048828 0.65006498,0.65006498 0 0 0 -0.002,-0.00195 0.65014372,0.65014372 0 0 0 -0.0039,-0.00391 0.65006498,0.65006498 0 0 0 -0.03906,-0.042969 0.65014372,0.65014372 0 0 0 0,-0.00195 0.65014372,0.65014372 0 0 0 -0.04883,-0.041016 0.65006498,0.65006498 0 0 0 -0.05469,-0.039063 0.65014372,0.65014372 0 0 0 -0.05469,-0.03125 0.65006498,0.65006498 0 0 0 -0.06055,-0.027344 0.65014372,0.65014372 0 0 0 -0.05859,-0.019531 0.65006498,0.65006498 0 0 0 -0.002,0 0.65014372,0.65014372 0 0 0 -0.0625,-0.013672 0.65006498,0.65006498 0 0 0 -0.002,0 0.65014372,0.65014372 0 0 0 -0.0625,-0.00781 0.65006498,0.65006498 0 0 0 -0.002,0 0.65006498,0.65006498 0 0 0 -0.04492,-0.00195 h -0.01953 z m 0.265625,1.3007813 H 21.375 L 20.771484,3.0566406 16.705078,7.0273438 H 3.5390625 Z M 22.320312,3.3613281 V 15.953125 l -4.699218,4.566406 V 7.9511719 Z M 2.5917969,8.3261719 H 16.320312 V 21.408203 H 2.5917969 Z"
     style="color:#000000;font-style:normal;font-variant:normal;font-weight:normal;font-stretch:normal;font-size:medium;line-height:normal;font-family:sans-serif;font-variant-ligatures:normal;font-variant-position:normal;font-variant-caps:normal;font-variant-numeric:normal;font-variant-alternates:normal;font-feature-settings:normal;text-indent:0;text-align:start;text-decoration:none;text-decoration-line:none;text-decoration-style:solid;text-decoration-color:#000000;letter-spacing:normal;word-spacing:normal;text-transform:none;writing-mode:lr-tb;direction:ltr;text-orientation:mixed;dominant-baseline:auto;baseline-shift:baseline;text-anchor:start;white-space:normal;shape-padding:0;clip-rule:nonzero;display:inline;overflow:visible;visibility:visible;opacity:1;isolation:auto;mix-blend-mode:normal;color-interpolation:sRGB;color-interpolation-filters:linearRGB;solid-color:#000000;solid-opacity:1;vector-effect:none;fill:#595757;fill-opacity:1;fill-rule:evenodd;stroke:none;stroke-width:1.29999995;stroke-linecap:butt;stroke-linejoin:round;stroke-miterlimit:4;stroke-dasharray:none;stroke-dashoffset:0;stroke-opacity:1;color-rendering:auto;image-rendering:auto;shape-rendering:auto;text-rendering:auto;enable-background:accumulate"
     inkscape:connector-curvature="0" /></g></svg>