<?xml version="1.0" encoding="UTF-8" standalone="no"?>
<svg
   xmlns:dc="http://purl.org/dc/elements/1.1/"
   xmlns:cc="http://creativecommons.org/ns#"
   xmlns:rdf="http://www.w3.org/1999/02/22-rdf-syntax-ns#"
   xmlns:svg="http://www.w3.org/2000/svg"
   xmlns="http://www.w3.org/2000/svg"
   xmlns:sodipodi="http://sodipodi.sourceforge.net/DTD/sodipodi-0.dtd"
   xmlns:inkscape="http://www.inkscape.org/namespaces/inkscape"
   xml:space="preserve"
   viewBox="0 0 22.382853 21.647371"
   y="0px"
   x="0px"
   id="レイヤー_1"
   version="1.1"
   sodipodi:docname="frontView.svg"
   inkscape:version="0.92.4 (5da689c313, 2019-01-14)"
   width="22.382853"
   height="21.647371"><sodipodi:namedview
   pagecolor="#ffffff"
   bordercolor="#666666"
   borderopacity="1"
   objecttolerance="10"
   gridtolerance="10"
   guidetolerance="10"
   inkscape:pageopacity="0"
   inkscape:pageshadow="2"
   inkscape:window-width="1920"
   inkscape:window-height="1057"
   id="namedview8"
   showgrid="false"
   inkscape:zoom="39.333333"
   inkscape:cx="7.6476908"
   inkscape:cy="11.461079"
   inkscape:window-x="-8"
   inkscape:window-y="-8"
   inkscape:window-maximized="1"
   inkscape:current-layer="レイヤー_1"
   fit-margin-top="0"
   fit-margin-left="0"
   fit-margin-right="0"
   fit-margin-bottom="0" /><metadata
   id="metadata15"><rdf:RDF><cc:Work
       rdf:about=""><dc:format>image/svg+xml</dc:format><dc:type
         rdf:resource="http://purl.org/dc/dcmitype/StillImage" /><dc:title></dc:title></cc:Work></rdf:RDF></metadata><defs
   id="defs13" />
<style
   id="style2"
   type="text/css">
	.st0{fill:#F1F0EF;}
	.st1{fill:#9E9E9F;}
	.st2{fill:#E50012;}
</style>



<style
   id="style884"
   type="text/css">
	.st0{fill:#F1F0EF;}
	.st1{fill:#036EB7;}
</style><style
   type="text/css"
   id="style2-0">
	.st0{fill:#F1F0EF;}
	.st1{fill:#9E9E9F;}
	.st2{fill:#E50012;}
</style><style
   type="text/css"
   id="style884-27">
	.st0{fill:#F1F0EF;}
	.st1{fill:#036EB7;}
</style><style
   id="style2-5"
   type="text/css">
	.st0{fill:#F1F0EF;}
	.st1{fill:#9E9E9F;}
	.st2{fill:#E50012;}
</style><style
   id="style884-6"
   type="text/css">
	.st0{fill:#F1F0EF;}
	.st1{fill:#036EB7;}
</style><style
   type="text/css"
   id="style2-6">
	.st0{fill:#F1F0EF;}
	.st1{fill:#9E9E9F;}
	.st2{fill:#E50012;}
</style><style
   type="text/css"
   id="style884-2">
	.st0{fill:#F1F0EF;}
	.st1{fill:#036EB7;}
</style><path
   inkscape:connector-curvature="0"
   style="color:#000000;font-style:normal;font-variant:normal;font-weight:normal;font-stretch:normal;font-size:medium;line-height:normal;font-family:sans-serif;font-variant-ligatures:normal;font-variant-position:normal;font-variant-caps:normal;font-variant-numeric:normal;font-variant-alternates:normal;font-feature-settings:normal;text-indent:0;text-align:start;text-decoration:none;text-decoration-line:none;text-decoration-style:solid;text-decoration-color:#000000;letter-spacing:normal;word-spacing:normal;text-transform:none;writing-mode:lr-tb;direction:ltr;text-orientation:mixed;dominant-baseline:auto;baseline-shift:baseline;text-anchor:start;white-space:normal;shape-padding:0;clip-rule:nonzero;display:inline;overflow:visible;visibility:visible;opacity:1;isolation:auto;mix-blend-mode:normal;color-interpolation:sRGB;color-interpolation-filters:linearRGB;solid-color:#000000;solid-opacity:1;vector-effect:none;fill:#9e9e9f;fill-opacity:1;fill-rule:evenodd;stroke:none;stroke-width:1.29999995;stroke-linecap:butt;stroke-linejoin:round;stroke-miterlimit:4;stroke-dasharray:none;stroke-dashoffset:0;stroke-opacity:1;color-rendering:auto;image-rendering:auto;shape-rendering:auto;text-rendering:auto;enable-background:accumulate"
   d="M 6.6835938,3.1201369e-4 A 0.7040425,0.7040425 0 0 0 6.2109376,0.19953081 l -6,5.86132809 A 0.7040425,0.7040425 0 0 0 0,6.562812 v 14.382813 a 0.7040425,0.7040425 0 0 0 1.1933594,0.503906 L 7.0742188,15.734687 H 21.732422 a 0.65006498,0.65006498 0 0 0 0.650391,-0.65039 V 0.70343701 A 0.65006498,0.65006498 0 0 0 21.732422,0.05304641 H 6.9726563 A 0.7040425,0.7040425 0 0 0 6.6835938,3.1201369e-4 Z M 7.4082032,1.3538277 H 21.082031 V 14.435859 H 7.4082032 Z M 6,2.375312 v 12.44336 L 1.4082032,19.279609 V 6.859687 Z"
   id="rect837-8" /><path
   style="opacity:1;vector-effect:none;fill:#036eb7;fill-opacity:1;fill-rule:evenodd;stroke:none;stroke-width:1.29999995;stroke-linecap:butt;stroke-linejoin:round;stroke-miterlimit:4;stroke-dasharray:none;stroke-dashoffset:0;stroke-opacity:1"
   d="M 0.9004651,6.433084 15.807246,6.4070574 15.908941,20.873729 0.9004651,20.79806 Z"
   id="rect908"
   inkscape:connector-curvature="0"
   sodipodi:nodetypes="ccccc" /><path
   inkscape:connector-curvature="0"
   style="color:#000000;font-style:normal;font-variant:normal;font-weight:normal;font-stretch:normal;font-size:medium;line-height:normal;font-family:sans-serif;font-variant-ligatures:normal;font-variant-position:normal;font-variant-caps:normal;font-variant-numeric:normal;font-variant-alternates:normal;font-feature-settings:normal;text-indent:0;text-align:start;text-decoration:none;text-decoration-line:none;text-decoration-style:solid;text-decoration-color:#000000;letter-spacing:normal;word-spacing:normal;text-transform:none;writing-mode:lr-tb;direction:ltr;text-orientation:mixed;dominant-baseline:auto;baseline-shift:baseline;text-anchor:start;white-space:normal;shape-padding:0;clip-rule:nonzero;display:inline;overflow:visible;visibility:visible;opacity:1;isolation:auto;mix-blend-mode:normal;color-interpolation:sRGB;color-interpolation-filters:linearRGB;solid-color:#000000;solid-opacity:1;vector-effect:none;fill:#595757;fill-opacity:1;fill-rule:evenodd;stroke:none;stroke-width:1.29999995;stroke-linecap:butt;stroke-linejoin:round;stroke-miterlimit:4;stroke-dasharray:none;stroke-dashoffset:0;stroke-opacity:1;color-rendering:auto;image-rendering:auto;shape-rendering:auto;text-rendering:auto;enable-background:accumulate"
   d="M 6.703125,0.05304641 A 0.65014372,0.65014372 0 0 0 6.25,0.23859331 l -6,5.85937499 a 0.65014372,0.65014372 0 0 0 -0.00977,0.00977 0.65006498,0.65006498 0 0 0 -0.00977,0.011719 0.65014372,0.65014372 0 0 0 -0.037109,0.039063 0.65006498,0.65006498 0 0 0 -0.00195,0.00586 0.65014372,0.65014372 0 0 0 -0.033203,0.046875 0.65006498,0.65006498 0 0 0 -0.00977,0.015625 0.65014372,0.65014372 0 0 0 -0.017578,0.029297 0.65006498,0.65006498 0 0 0 -0.025391,0.054687 0.65006498,0.65006498 0 0 0 -0.021484,0.056641 0.65014372,0.65014372 0 0 0 -0.00195,0.00781 0.65006498,0.65006498 0 0 0 -0.015625,0.060547 0.65006498,0.65006498 0 0 0 -0.00977,0.058594 0.65014372,0.65014372 0 0 0 0,0.00781 0.65006498,0.65006498 0 0 0 -0.00391,0.060547 V 20.945625 a 0.65006498,0.65006498 0 0 0 0.6503906,0.65039 H 15.732422 a 0.65006498,0.65006498 0 0 0 0.0059,0 0.65006498,0.65006498 0 0 0 0.185547,-0.0293 0.65006498,0.65006498 0 0 0 0.04492,-0.01563 0.65006498,0.65006498 0 0 0 0.01758,-0.0059 0.65006498,0.65006498 0 0 0 0.01563,-0.0078 0.65006498,0.65006498 0 0 0 0.04297,-0.02148 0.65006498,0.65006498 0 0 0 0.01367,-0.0078 0.65006498,0.65006498 0 0 0 0.04102,-0.02539 0.65006498,0.65006498 0 0 0 0.01367,-0.0098 0.65006498,0.65006498 0 0 0 0.03711,-0.0293 0.65006498,0.65006498 0 0 0 0.01367,-0.01172 0.65006498,0.65006498 0 0 0 0.02148,-0.01953 0.65006498,0.65006498 0 0 0 0.01367,-0.01367 l 5.986328,-5.816407 a 0.65006498,0.65006498 0 0 0 0.197266,-0.466796 V 0.70343701 a 0.65006498,0.65006498 0 0 0 0,-0.00195 0.65014372,0.65014372 0 0 0 -0.01367,-0.1269531 0.65006498,0.65006498 0 0 0 0,-0.00195 0.65014372,0.65014372 0 0 0 -0.01563,-0.060547 0.65006498,0.65006498 0 0 0 0,-0.00195 0.65014372,0.65014372 0 0 0 -0.02148,-0.060547 0.65006498,0.65006498 0 0 0 0,-0.00195 0.65014372,0.65014372 0 0 0 -0.0293,-0.056641 0.65006498,0.65006498 0 0 0 0,-0.00195 0.65014372,0.65014372 0 0 0 -0.0332,-0.052734 0.65006498,0.65006498 0 0 0 0,-0.00195 0.65014372,0.65014372 0 0 0 -0.03906,-0.048828 0.65006498,0.65006498 0 0 0 -0.002,-0.00195 0.65014372,0.65014372 0 0 0 -0.0039,-0.00391 0.65006498,0.65006498 0 0 0 -0.03906,-0.042969 0.65014372,0.65014372 0 0 0 0,-0.00195 0.65014372,0.65014372 0 0 0 -0.04883,-0.041016 0.65006498,0.65006498 0 0 0 -0.05469,-0.039063 0.65014372,0.65014372 0 0 0 -0.05469,-0.03125 0.65006498,0.65006498 0 0 0 -0.06055,-0.027344 0.65014372,0.65014372 0 0 0 -0.05859,-0.019531 0.65006498,0.65006498 0 0 0 -0.002,0 0.65014372,0.65014372 0 0 0 -0.0625,-0.013672 0.65006498,0.65006498 0 0 0 -0.002,0 0.65014372,0.65014372 0 0 0 -0.0625,-0.00781 0.65006498,0.65006498 0 0 0 -0.002,0 0.65006498,0.65006498 0 0 0 -0.04492,-0.00195 h -0.01953 z M 6.96875,1.3538277 H 20.136719 L 19.533203,1.9436714 15.466797,5.9143746 H 2.3007813 Z M 21.082031,2.2483589 V 14.840156 l -4.699218,4.566406 V 6.8382027 Z M 1.3535157,7.2132027 H 15.082031 V 20.295234 H 1.3535157 Z"
   id="rect837" /></svg>