<?xml version="1.0" encoding="UTF-8" standalone="no"?>
<svg
   xmlns:dc="http://purl.org/dc/elements/1.1/"
   xmlns:cc="http://creativecommons.org/ns#"
   xmlns:rdf="http://www.w3.org/1999/02/22-rdf-syntax-ns#"
   xmlns:svg="http://www.w3.org/2000/svg"
   xmlns="http://www.w3.org/2000/svg"
   xml:space="preserve"
   style="enable-background:new 0 0 24 24;"
   viewBox="0 0 24 24"
   y="0px"
   x="0px"
   id="レイヤー_1"
   version="1.1"><metadata
   id="metadata15"><rdf:RDF><cc:Work
       rdf:about=""><dc:format>image/svg+xml</dc:format><dc:type
         rdf:resource="http://purl.org/dc/dcmitype/StillImage" /><dc:title></dc:title></cc:Work></rdf:RDF></metadata><defs
   id="defs13" />
<style
   id="style2"
   type="text/css">
	.st0{fill:#F1F0EF;}
	.st1{fill:#9E9E9F;}
	.st2{fill:#036EB7;}
</style>

<polygon
   style="fill:#808080"
   transform="matrix(1.1214953,0,0,1.182266,-1.6822429,-2.4827586)"
   id="polygon6"
   points="2.5,18.7 2.5,16.5 3.8,16.5 3.8,15.8 2.5,15.8 2.5,13.7 3.8,13.7 3.8,12.9 2.5,12.9 2.5,10.8 3.8,10.8 3.8,10.1 2.5,10.1 2.5,7.9 3.8,7.9 3.8,7.2 2.5,7.2 2.5,5 3.8,5 3.8,4.3 2.5,4.3 2.5,2.1 1.5,2.1 1.5,22.4 22.9,22.4 22.9,21.4 2.5,21.4 2.5,19.4 3.8,19.4 3.8,18.7 "
   class="st1" />
<path
   style="fill:#036eb7;stroke-width:1.06988025"
   id="path8"
   d="M 11.213334,20.56 C 9.186667,20.56 8.6533337,17.55531 7.906667,13.477517 7.6933337,11.760551 7.266667,9.2924138 6.7333337,8.3266207 6.2000003,9.3997242 5.8800003,12.511724 5.666667,14.014069 c -0.1066667,0.965793 -0.2133333,1.824276 -0.32,2.575448 L 3.2133337,16.267586 c 0.1066666,-0.643862 0.2133333,-1.502345 0.32,-2.360827 0.4266666,-4.0777935 0.96,-7.8336555 3.2,-7.8336555 0,0 0,0 0,0 2.0266666,0 2.56,3.0046897 3.2,7.0824825 0.2133333,1.502345 0.6400003,3.755862 1.0666663,4.828966 0.426667,-1.395035 0.746667,-4.399724 0.96,-6.545932 0.64,-6.116689 1.066667,-9.0140683 2.986667,-9.0140683 2.026667,0 2.453333,2.8973793 3.093333,7.2971035 0.32,1.9315868 0.746667,5.2582068 1.386667,6.2239998 C 20.386667,14.336 21.133334,7.6827586 21.453334,5 21.666667,3.4976552 21.773334,2.3172415 21.88,1.6733794 l 2.133334,0.4292413 C 23.906667,2.6391725 23.8,3.8195862 23.586667,5.2146208 22.52,14.44331 21.773334,18.199172 19.533334,18.199172 c -2.346667,0 -2.88,-3.648551 -3.52,-8.2628961 C 15.8,8.3266207 15.48,6.1804139 15.053334,5 c -0.426667,1.3950345 -0.746667,4.3997242 -0.96,6.43862 C 13.666667,17.55531 13.24,20.56 11.213334,20.56 Z"
   class="st2" />
</svg>