<?xml version="1.0" encoding="UTF-8" standalone="no"?>
<svg
   xmlns:dc="http://purl.org/dc/elements/1.1/"
   xmlns:cc="http://creativecommons.org/ns#"
   xmlns:rdf="http://www.w3.org/1999/02/22-rdf-syntax-ns#"
   xmlns:svg="http://www.w3.org/2000/svg"
   xmlns="http://www.w3.org/2000/svg"
   xml:space="preserve"
   style="enable-background:new 0 0 24 24;"
   viewBox="0 0 24 24"
   y="0px"
   x="0px"
   id="レイヤー_1"
   version="1.1"><metadata
   id="metadata19"><rdf:RDF><cc:Work
       rdf:about=""><dc:format>image/svg+xml</dc:format><dc:type
         rdf:resource="http://purl.org/dc/dcmitype/StillImage" /><dc:title></dc:title></cc:Work></rdf:RDF></metadata><defs
   id="defs17" />
<style
   id="style2"
   type="text/css">
	.st0{fill:#F1F0EF;}
	.st1{fill:#595757;}
</style>

<g
   transform="matrix(1.3259669,0,0,1.451613,-3.7127073,-6.0000004)"
   id="g12">
	<rect
   style="fill:#595757"
   id="rect6"
   height="1.5"
   width="2.2"
   class="st1"
   y="8.3999996"
   x="16.299999" />
	<path
   style="fill:#595757"
   id="path8"
   d="m 11.9,11.5 c -1.1,0 -2,0.9 -2,2 0,1.1 0.9,2 2,2 1.1,0 2,-0.9 2,-2 0,-1.1 -0.9,-2 -2,-2 z"
   class="st1" />
	<path
   style="fill:#595757"
   id="path10"
   d="M 20.1,6.2 H 3.7 C 3.2,6.2 2.8,6.6 2.8,7 v 10.8 c 0,0.5 0.4,0.8 0.8,0.8 H 20 c 0.5,0 0.9,-0.4 0.9,-0.9 V 7.1 c 0,-0.5 -0.4,-0.9 -0.8,-0.9 z m -14.5,7 c -0.4,0 -0.7,-0.3 -0.7,-0.7 0,-0.4 0.3,-0.7 0.7,-0.7 0.4,0 0.7,0.3 0.7,0.7 0,0.4 -0.3,0.7 -0.7,0.7 z m 6.3,3.5 c -1.7,0 -3.1,-1.4 -3.1,-3.1 0,-1.7 1.4,-3.1 3.1,-3.1 1.7,0 3.1,1.4 3.1,3.1 0,1.7 -1.4,3.1 -3.1,3.1 z m 7.8,-6.1 H 15 C 14.2,9.8 13.1,9.2 11.9,9.2 10.7,9.2 9.5,9.7 8.8,10.6 H 4.1 V 7.4 h 15.6 z"
   class="st1" />
</g>
</svg>