<?xml version="1.0" encoding="UTF-8" standalone="no"?>
<svg
   xmlns:dc="http://purl.org/dc/elements/1.1/"
   xmlns:cc="http://creativecommons.org/ns#"
   xmlns:rdf="http://www.w3.org/1999/02/22-rdf-syntax-ns#"
   xmlns:svg="http://www.w3.org/2000/svg"
   xmlns="http://www.w3.org/2000/svg"
   xml:space="preserve"
   style="enable-background:new 0 0 24 24;"
   viewBox="0 0 24 24"
   y="0px"
   x="0px"
   id="レイヤー_1"
   version="1.1"><metadata
   id="metadata15"><rdf:RDF><cc:Work
       rdf:about=""><dc:format>image/svg+xml</dc:format><dc:type
         rdf:resource="http://purl.org/dc/dcmitype/StillImage" /><dc:title></dc:title></cc:Work></rdf:RDF></metadata><defs
   id="defs13" />
<style
   id="style2"
   type="text/css">
	.st0{fill:#F1F0EF;}
	.st1{fill:#595757;}
</style>


<path
   id="path6"
   d="m 24.129703,13.188119 c 0,-0.356436 0,-0.712872 0,-1.069307 0,-0.356436 0,-0.712872 0,-1.069307 L 22.834939,10.336634 C 22.717233,9.861386 22.717233,9.3861385 22.481821,9.0297028 L 23.423468,7.841584 C 23.188057,7.1287127 22.834939,6.5346533 22.481821,5.9405939 H 20.951645 C 20.716233,5.5841583 20.363116,5.2277227 20.127704,4.871287 L 20.480821,3.2079207 C 20.009998,2.7326732 19.421469,2.2574257 18.832939,1.90099 l -1.41247,0.5940594 C 17.067351,2.2574257 16.596528,2.0198019 16.24341,1.90099 L 15.890293,0.47524746 C 15.184057,0.2376237 14.477822,0.11881182 13.771587,-6e-8 L 12.82994,1.1881187 c -0.235412,0 -0.470824,0 -0.706235,0 -0.235412,0 -0.470824,0 -0.706235,0 L 10.475823,-6.0000001e-8 C 9.7695873,0.11881182 9.0633521,0.2376237 8.3571169,0.47524746 L 8.0039993,1.90099 C 7.5331758,2.1386138 7.1800582,2.2574257 6.8269406,2.4950494 L 5.4144701,1.90099 C 4.8259408,2.2574257 4.2374114,2.7326732 3.766588,3.2079207 L 4.0019997,4.7524751 C 3.766588,5.1089108 3.4134704,5.4653464 3.1780586,5.8217821 H 1.6478823 C 1.2947647,6.4158415 1.0593529,7.1287127 0.70623534,7.841584 L 1.6478823,9.0297028 C 1.5301764,9.5049503 1.4124706,9.861386 1.2947647,10.336634 L 1.2e-7,11.049505 c 0,0.356435 0,0.712871 0,1.069307 0,0.356435 0,0.712871 0,1.069307 L 1.2947647,13.90099 c 0.1177059,0.475247 0.1177059,0.950495 0.3531176,1.306931 l -0.94164696,1.188118 c 0.23541174,0.712872 0.58852936,1.306931 0.94164696,1.90099 h 1.5301763 c 0.2354118,0.356436 0.5885294,0.712872 0.8239411,1.069307 l -0.3531176,1.425743 c 0.4708235,0.475247 1.0593528,0.950495 1.6478822,1.306931 l 1.4124704,-0.59406 c 0.3531176,0.237624 0.8239411,0.475248 1.1770587,0.59406 L 8.239411,23.524752 C 8.9456462,23.762376 9.6518815,23.881188 10.358117,24 l 0.941647,-1.188119 c 0.235411,0 0.470823,0 0.706235,0 0.235412,0 0.470823,0 0.706235,0 L 13.653881,24 c 0.706235,-0.118812 1.41247,-0.237624 2.118706,-0.475248 l 0.353117,-1.425742 c 0.470824,-0.118812 0.823941,-0.356436 1.177059,-0.59406 l 1.41247,0.59406 c 0.58853,-0.356436 1.177059,-0.831684 1.647883,-1.306931 l -0.353118,-1.425743 c 0.353118,-0.356435 0.588529,-0.712871 0.823941,-1.069307 h 1.530176 c 0.353118,-0.594059 0.706236,-1.30693 0.941647,-1.90099 l -0.941647,-1.188118 c 0.117706,-0.475248 0.235412,-0.831684 0.353118,-1.306931 z m -12.005998,7.60396 c -4.7082351,0 -8.5925288,-3.920792 -8.5925288,-8.673267 0,-4.7524755 3.8842937,-8.6732675 8.5925288,-8.6732675 4.708235,0 8.592528,3.920792 8.592528,8.6732675 0,4.752475 -3.884293,8.673267 -8.592528,8.673267"
   class="st1"
   style="fill:#595757;stroke-width:1.18257582" /><path
   id="path8"
   d="m 17.067351,12.118812 c 0,2.732673 -2.236411,4.990099 -4.943646,4.990099 -2.7072353,0 -5.0613527,-2.257426 -5.0613527,-4.990099 0,-2.7326735 2.2364116,-4.9900993 4.9436467,-4.9900993 2.707235,0 5.061352,2.2574258 5.061352,4.9900993"
   class="st1"
   style="fill:#595757;stroke-width:1.18257582" />
</svg>