<?xml version="1.0" encoding="utf-8"?>
<!-- Generator: Adobe Illustrator 22.0.1, SVG Export Plug-In . SVG Version: 6.00 Build 0)  -->
<svg version="1.1" id="レイヤー_1" xmlns="http://www.w3.org/2000/svg" xmlns:xlink="http://www.w3.org/1999/xlink" x="0px"
	 y="0px" viewBox="0 0 24 24" style="enable-background:new 0 0 24 24;" xml:space="preserve">
<style type="text/css">
	.st0{fill:#F1F0EF;}
	.st1{fill:#036EB7;}
</style>
<rect class="st0" width="24" height="24"/>
<path class="st1" d="M10.6,18.9c0,0.5-0.3,0.9-0.7,0.9H6.1c-0.4,0-0.7-0.4-0.7-0.9V5.1c0-0.5,0.3-0.9,0.7-0.9h3.8
	c0.4,0,0.7,0.4,0.7,0.9V18.9z"/>
<path class="st1" d="M18.6,18.9c0,0.5-0.3,0.9-0.7,0.9h-3.8c-0.4,0-0.7-0.4-0.7-0.9V5.1c0-0.5,0.3-0.9,0.7-0.9h3.8
	c0.4,0,0.7,0.4,0.7,0.9V18.9z"/>
</svg>
