<?xml version="1.0" encoding="UTF-8" standalone="no"?>
<svg
   xml:space="preserve"
   style="enable-background:new 0 0 24 24;"
   viewBox="0 0 24 24"
   y="0px"
   x="0px"
   id="レイヤー_1"
   version="1.1"
   sodipodi:docname="viewfitting2.svg"
   inkscape:version="1.2.2 (b0a8486541, 2022-12-01)"
   xmlns:inkscape="http://www.inkscape.org/namespaces/inkscape"
   xmlns:sodipodi="http://sodipodi.sourceforge.net/DTD/sodipodi-0.dtd"
   xmlns="http://www.w3.org/2000/svg"
   xmlns:svg="http://www.w3.org/2000/svg"
   xmlns:rdf="http://www.w3.org/1999/02/22-rdf-syntax-ns#"
   xmlns:cc="http://creativecommons.org/ns#"
   xmlns:dc="http://purl.org/dc/elements/1.1/"><sodipodi:namedview
   id="namedview15"
   pagecolor="#ffffff"
   bordercolor="#000000"
   borderopacity="0.25"
   inkscape:showpageshadow="2"
   inkscape:pageopacity="0.0"
   inkscape:pagecheckerboard="0"
   inkscape:deskcolor="#d1d1d1"
   showgrid="false"
   inkscape:zoom="21.395833"
   inkscape:cx="-3.8325219"
   inkscape:cy="2.1966894"
   inkscape:window-width="3840"
   inkscape:window-height="2075"
   inkscape:window-x="0"
   inkscape:window-y="0"
   inkscape:window-maximized="1"
   inkscape:current-layer="レイヤー_1" /><metadata
   id="metadata29"><rdf:RDF><cc:Work
       rdf:about=""><dc:format>image/svg+xml</dc:format><dc:type
         rdf:resource="http://purl.org/dc/dcmitype/StillImage" /><dc:title /></cc:Work></rdf:RDF></metadata><defs
   id="defs27" />
<style
   id="style2"
   type="text/css">
	.st0{fill:#F1F0EF;}
	.st1{fill:#036EB7;}
	.st2{fill:#595757;}
	.st3{fill:#00A199;}
	.st4{fill:#F7B52C;}
	.st5{fill:#E50012;}
</style>









<rect
   id="rect6"
   height="1.0659186"
   width="10.912483"
   class="st1"
   transform="matrix(0.21815852,-0.97591335,0.97094673,0.23929575,0,0)"
   y="9.5954819"
   x="-21.484932"
   style="fill:#808080;stroke-width:1.0894587;fill-opacity:1" /><path
   id="path8"
   d="M 23.999999,23.218605 19.428571,12.502326 C 19.322259,12.27907 19.109634,12.167442 18.89701,12.167442 H 5.1827241 c -0.2126245,0 -0.4252491,0.111628 -0.5315614,0.334884 L 0.07973422,23.218605 c -0.10631229,0.223256 -0.10631229,0.334884 0,0.55814 0.10631229,0.111628 0.31893687,0.223256 0.42524916,0.223256 H 23.468438 c 0.212625,0 0.318937,-0.111628 0.425249,-0.223256 0.106312,-0.223256 0.106312,-0.446512 0.106312,-0.55814 z M 19.85382,16.297675 H 17.833887 L 17.51495,14.95814 h 1.700996 z m -3.083056,0 H 14.325581 L 14.219269,14.95814 h 2.232558 z m -2.657807,-2.455814 v -0.55814 h 2.019933 l 0.106312,0.55814 z m -1.063123,0 h -2.126246 v -0.55814 h 2.019933 z m 0.106312,1.116279 0.106312,1.339535 H 10.817276 L 10.923588,14.95814 Z M 9.7541526,16.297675 H 4.2259135 L 4.757475,14.95814 H 9.8604649 Z M 9.6478403,17.413954 9.541528,18.976745 H 3.0564783 l 0.6378738,-1.562791 z m 1.0631227,0 h 2.657807 l 0.106313,1.562791 h -2.870432 z m 2.870432,2.567442 0.212625,2.790698 h -3.401994 l 0.212625,-2.790698 z m 1.063123,0 h 2.976744 l 0.637874,2.790698 h -3.401993 z m -0.106312,-1.116279 -0.106313,-1.562791 h 2.657808 l 0.318936,1.562791 z m 3.614618,-1.451163 h 2.232558 l 0.637873,1.562791 H 18.47176 Z m 0.637873,-3.572093 h -1.488372 l -0.106312,-0.55814 h 1.38206 z m -8.8239198,-0.55814 v 0.55814 H 5.2890364 l 0.2126246,-0.55814 z m -7.335548,6.697675 H 9.541528 L 9.3289035,22.772094 H 1.3554817 Z m 16.6910298,2.902326 -0.637874,-2.790698 h 2.76412 l 1.169435,2.790698 z"
   class="st1"
   style="fill:#808080;stroke-width:1.08937681;fill-opacity:1" /><path
   id="path10"
   d="m 11.986711,10.15814 c -1.275748,0 -2.2325584,-1.0046514 -2.2325584,-2.3441863 0,-1.3395349 0.9568104,-2.3441861 2.2325584,-2.3441861 1.275747,0 2.232558,1.0046512 2.232558,2.3441861 0.106312,1.227907 -0.956811,2.3441863 -2.232558,2.3441863"
   class="st2"
   style="fill:#595757;stroke-width:1.08937681" /><path
   id="path12"
   d="M 17.621262,-2e-8 H 6.4584716 c -0.3189369,0 -0.744186,0.33488373 -0.744186,0.78139537 V 12.502326 c 0,0.446512 0.3189369,0.781395 0.744186,0.781395 H 17.621262 c 0.425249,0 0.744186,-0.334883 0.744186,-0.781395 V 0.78139535 C 18.365448,0.33488371 17.940199,-2e-8 17.621262,-2e-8 M 11.986711,11.162791 c -1.807309,0 -3.2956813,-1.5627908 -3.2956813,-3.4604652 0,-1.8976745 1.4883723,-3.4604652 3.2956813,-3.4604652 1.807309,0 3.295681,1.5627907 3.295681,3.4604652 0,2.0093024 -1.488372,3.4604652 -3.295681,3.4604652 M 17.302325,4.4651164 H 15.282392 C 14.538206,3.5720931 13.36877,3.0139536 12.093023,3.0139536 c -1.275747,0 -2.3388704,0.5581395 -3.1893687,1.4511628 H 6.7774085 V 1.1162791 H 17.196013 v 3.3488373 z"
   class="st2"
   style="fill:#595757;stroke-width:1.08937681" />
<path
   style="fill:#ff0000;fill-opacity:1;stroke:#e90000;stroke-width:3.248;stroke-linejoin:round;stroke-dasharray:none;stroke-opacity:1"
   d="M 12.075795,8.712517 V 19.503186"
   id="path1864"
   sodipodi:nodetypes="cc" /><path
   style="fill:none;fill-opacity:1;stroke:#e90000;stroke-width:2.924;stroke-linecap:butt;stroke-linejoin:miter;stroke-dasharray:none;stroke-opacity:1"
   d="m 4.7738446,15.390383 7.3655534,5.578992 6.927072,-5.699428"
   id="path5898"
   sodipodi:nodetypes="ccc" /></svg>
