<?xml version="1.0" encoding="UTF-8" standalone="no"?>
<svg
   xmlns:dc="http://purl.org/dc/elements/1.1/"
   xmlns:cc="http://creativecommons.org/ns#"
   xmlns:rdf="http://www.w3.org/1999/02/22-rdf-syntax-ns#"
   xmlns:svg="http://www.w3.org/2000/svg"
   xmlns="http://www.w3.org/2000/svg"
   xml:space="preserve"
   style="enable-background:new 0 0 24 24;"
   viewBox="0 0 24 24"
   y="0px"
   x="0px"
   id="レイヤー_1"
   version="1.1"><metadata
   id="metadata29"><rdf:RDF><cc:Work
       rdf:about=""><dc:format>image/svg+xml</dc:format><dc:type
         rdf:resource="http://purl.org/dc/dcmitype/StillImage" /><dc:title></dc:title></cc:Work></rdf:RDF></metadata><defs
   id="defs27" />
<style
   id="style2"
   type="text/css">
	.st0{fill:#F1F0EF;}
	.st1{fill:#036EB7;}
	.st2{fill:#595757;}
	.st3{fill:#00A199;}
	.st4{fill:#F7B52C;}
	.st5{fill:#E50012;}
</style>









<rect
   id="rect6"
   height="1.0659186"
   width="10.912483"
   class="st1"
   transform="matrix(0.21815852,-0.97591335,0.97094673,0.23929575,0,0)"
   y="9.5954819"
   x="-21.484932"
   style="fill:#036eb7;stroke-width:1.0894587" /><path
   id="path8"
   d="M 23.999999,23.218605 19.428571,12.502326 C 19.322259,12.27907 19.109634,12.167442 18.89701,12.167442 H 5.1827241 c -0.2126245,0 -0.4252491,0.111628 -0.5315614,0.334884 L 0.07973422,23.218605 c -0.10631229,0.223256 -0.10631229,0.334884 0,0.55814 0.10631229,0.111628 0.31893687,0.223256 0.42524916,0.223256 H 23.468438 c 0.212625,0 0.318937,-0.111628 0.425249,-0.223256 0.106312,-0.223256 0.106312,-0.446512 0.106312,-0.55814 z M 19.85382,16.297675 H 17.833887 L 17.51495,14.95814 h 1.700996 z m -3.083056,0 H 14.325581 L 14.219269,14.95814 h 2.232558 z m -2.657807,-2.455814 v -0.55814 h 2.019933 l 0.106312,0.55814 z m -1.063123,0 h -2.126246 v -0.55814 h 2.019933 z m 0.106312,1.116279 0.106312,1.339535 H 10.817276 L 10.923588,14.95814 Z M 9.7541526,16.297675 H 4.2259135 L 4.757475,14.95814 H 9.8604649 Z M 9.6478403,17.413954 9.541528,18.976745 H 3.0564783 l 0.6378738,-1.562791 z m 1.0631227,0 h 2.657807 l 0.106313,1.562791 h -2.870432 z m 2.870432,2.567442 0.212625,2.790698 h -3.401994 l 0.212625,-2.790698 z m 1.063123,0 h 2.976744 l 0.637874,2.790698 h -3.401993 z m -0.106312,-1.116279 -0.106313,-1.562791 h 2.657808 l 0.318936,1.562791 z m 3.614618,-1.451163 h 2.232558 l 0.637873,1.562791 H 18.47176 Z m 0.637873,-3.572093 h -1.488372 l -0.106312,-0.55814 h 1.38206 z m -8.8239198,-0.55814 v 0.55814 H 5.2890364 l 0.2126246,-0.55814 z m -7.335548,6.697675 H 9.541528 L 9.3289035,22.772094 H 1.3554817 Z m 16.6910298,2.902326 -0.637874,-2.790698 h 2.76412 l 1.169435,2.790698 z"
   class="st1"
   style="fill:#808080;stroke-width:1.08937681;fill-opacity:1" /><path
   id="path10"
   d="m 11.986711,10.15814 c -1.275748,0 -2.2325584,-1.0046514 -2.2325584,-2.3441863 0,-1.3395349 0.9568104,-2.3441861 2.2325584,-2.3441861 1.275747,0 2.232558,1.0046512 2.232558,2.3441861 0.106312,1.227907 -0.956811,2.3441863 -2.232558,2.3441863"
   class="st2"
   style="fill:#595757;stroke-width:1.08937681" /><path
   id="path12"
   d="M 17.621262,-2e-8 H 6.4584716 c -0.3189369,0 -0.744186,0.33488373 -0.744186,0.78139537 V 12.502326 c 0,0.446512 0.3189369,0.781395 0.744186,0.781395 H 17.621262 c 0.425249,0 0.744186,-0.334883 0.744186,-0.781395 V 0.78139535 C 18.365448,0.33488371 17.940199,-2e-8 17.621262,-2e-8 M 11.986711,11.162791 c -1.807309,0 -3.2956813,-1.5627908 -3.2956813,-3.4604652 0,-1.8976745 1.4883723,-3.4604652 3.2956813,-3.4604652 1.807309,0 3.295681,1.5627907 3.295681,3.4604652 0,2.0093024 -1.488372,3.4604652 -3.295681,3.4604652 M 17.302325,4.4651164 H 15.282392 C 14.538206,3.5720931 13.36877,3.0139536 12.093023,3.0139536 c -1.275747,0 -2.3388704,0.5581395 -3.1893687,1.4511628 H 6.7774085 V 1.1162791 H 17.196013 v 3.3488373 z"
   class="st2"
   style="fill:#595757;stroke-width:1.08937681" /><polygon
   transform="matrix(1.0631229,0,0,1.1162791,-0.66445181,-2.0093024)"
   id="polygon14"
   points="3.9,9.2 9.3,10.4 6.9,12.2 1.4,11 "
   class="st3"
   style="fill:#dbdee3" /><polygon
   transform="matrix(1.0631229,0,0,1.1162791,-0.66445181,-2.0093024)"
   id="polygon16"
   points="1.4,11 6.9,12.2 6.9,22.1 1.4,20.9 "
   class="st3"
   style="fill:#dbdee3" /><path
   id="path18"
   d="m 9.7541526,9.6000002 c 0,0 0,-0.1116279 0,-0.1116279 0,-0.2232558 -0.2126246,-0.3348837 -0.4252491,-0.4465116 L 3.5880398,7.7023258 c -0.1063123,0 -0.3189369,0 -0.4252492,0.1116279 L 0.61129567,9.8232561 C 0.39867109,9.934884 0.39867109,10.046512 0.39867109,10.15814 c 0,0 0,0.111628 0,0.111628 v 11.051163 c 0,0.223256 0.21262458,0.446511 0.42524916,0.558139 l 5.84717595,1.339535 c 0,0 0.1063123,0 0.1063123,0 0.1063123,0 0.2126246,0 0.3189369,-0.111628 0,0 0.1063122,-0.111628 0.1063122,-0.111628 L 9.6478403,21.209303 C 9.7541526,21.097675 9.8604649,20.986047 9.8604649,20.762791 L 9.7541526,9.6000002 c 0,0.1116279 0,0.1116279 0,0 z M 3.5880398,8.9302328 8.053156,9.934884 6.9900331,10.827907 6.5647839,11.162791 2.20598,10.15814 Z m -2.2325581,2.1209302 4.6777408,1.116279 v 9.823256 L 1.3554817,20.874419 Z"
   class="st1"
   style="fill:#036eb7;stroke-width:1.08937681" /><polygon
   transform="matrix(1.0631229,0,0,1.1162791,-0.66445181,-2.0093024)"
   id="polygon20"
   points="17.6,11 12,18.2 17.4,21.8 "
   class="st4"
   style="fill:#f4e3d7" /><path
   id="path22"
   d="M 23.787375,17.972093 18.578073,9.934884 c 0,0 0,0 0,0 C 18.47176,9.8232561 18.47176,9.7116281 18.365448,9.7116281 c -0.106312,0 -0.212624,0 -0.212624,0 0,0 0,0 -0.106313,0 0,0 -0.106312,0.111628 -0.106312,0.111628 0,0 -0.106312,0 -0.106312,0.1116279 v 0 c 0,0 0,0 0,0 l -5.953489,8.037209 c -0.106312,0.111628 -0.106312,0.223256 -0.106312,0.446512 0,0.223256 0.106312,0.334884 0.212625,0.334884 l 5.740863,4.018605 c 0,0 0,0 0,0 0,0 0,0 0,0 0.106313,0 0.212625,0.111628 0.212625,0.111628 0.106312,0 0.212625,0 0.212625,-0.111628 0,0 0,0 0,0 0,0 0,0 0,0 l 5.421926,-4.018605 c 0.318937,-0.223256 0.318937,-0.55814 0.212625,-0.781396 z m -6.378738,2.009303 v 1.339535 l -4.465116,-3.125582 4.677741,-6.251163 z"
   class="st5"
   style="fill:#e50012;stroke-width:1.08937681" />
</svg>