<?xml version="1.0" encoding="UTF-8" standalone="no"?>
<svg
   xmlns:dc="http://purl.org/dc/elements/1.1/"
   xmlns:cc="http://creativecommons.org/ns#"
   xmlns:rdf="http://www.w3.org/1999/02/22-rdf-syntax-ns#"
   xmlns:svg="http://www.w3.org/2000/svg"
   xmlns="http://www.w3.org/2000/svg"
   xml:space="preserve"
   style="enable-background:new 0 0 24 24;"
   viewBox="0 0 24 24"
   y="0px"
   x="0px"
   id="レイヤー_1"
   version="1.1"><metadata
   id="metadata15"><rdf:RDF><cc:Work
       rdf:about=""><dc:format>image/svg+xml</dc:format><dc:type
         rdf:resource="http://purl.org/dc/dcmitype/StillImage" /><dc:title></dc:title></cc:Work></rdf:RDF></metadata><defs
   id="defs13" />
<style
   id="style2"
   type="text/css">
	.st0{fill:#F1F0EF;}
	.st1{fill:#9E9E9F;}
	.st2{fill:#E50012;}
</style>


<path
   id="path6"
   d="m 22.933333,12.869565 c 0.133333,0 0.266666,0.126482 0.266666,0.126482 0.266667,0 0.533334,-0.126482 0.533334,-0.379447 0,-0.126482 0.133333,-0.252964 0.133333,-0.252964 0,-0.252965 -0.133333,-0.505929 -0.4,-0.505929 L 18,9.0750984 V 3.5098812 h -1.333334 v 4.806324 l -4,-2.1501976 V 0.60079036 H 11.333333 V 6.2924898 L 6.7999998,8.4426874 V 3.383399 H 5.4666665 v 5.6916994 l -5.06666654,2.5296446 0.66666664,1.13834 4.3999999,-2.150198 v 3.920948 l -4.66666655,2.403162 0.66666665,1.13834 5.1999999,-2.656126 3.8666665,1.897233 -4.9333332,2.403162 0.6666667,1.13834 5.5999995,-2.909091 6,3.035573 c 0.133334,0 0.266667,0.126482 0.266667,0.126482 0.266667,0 0.533333,-0.126482 0.533333,-0.379446 0,-0.126482 0.133334,-0.252965 0.133334,-0.252965 0,-0.252964 -0.133334,-0.505929 -0.4,-0.505929 l -4.933334,-2.656126 3.866667,-1.897233 5.6,2.782609 c 0.133333,0 0.266666,0.126482 0.266666,0.126482 0.266667,0 0.533334,-0.126482 0.533334,-0.379447 0,-0.126482 0.133333,-0.252964 0.133333,-0.252964 0,-0.252965 -0.133333,-0.505929 -0.4,-0.505929 l -5.333333,-2.656127 v -4.04743 z M 6.7999998,9.9604739 11.2,7.6837941 v 3.9209489 c 0,0 -0.133334,0.126482 -0.133334,0.126482 0,0 0,0 0,0 L 6.7999998,13.881422 Z M 12,16.664031 8.1333331,14.640316 12,12.743083 15.866666,14.640316 Z M 16.8,13.75494 12.666666,11.731225 V 7.5573119 L 16.8,9.5810273 Z"
   class="st1"
   style="fill:#9e9e9f;stroke-width:1.29862595" /><path
   style="fill:#595757;fill-opacity:1;stroke-width:1.29862595"
   id="path8"
   d="M 23.599999,5.786561 12.266666,0.09486152 c -0.133333,-0.12648221 -0.4,-0.12648221 -0.666666,0 L 0.39999996,5.786561 C 0.1333333,5.9130432 -3e-8,6.0395254 -3e-8,6.2924898 V 17.675889 c 0,0.252964 0.13333333,0.505929 0.39999999,0.505929 L 11.733333,23.873517 c 0.133333,0 0.266667,0.126482 0.266667,0.126482 0,0 0.266666,0 0.266666,-0.126482 l 11.333333,-5.691699 c 0.266667,-0.126483 0.4,-0.379447 0.4,-0.505929 V 6.2924898 c 0,-0.2529644 -0.133333,-0.3794466 -0.4,-0.5059288 z M 1.3333333,7.3043475 5.3333332,9.3280628 V 13.75494 L 1.3333333,11.731225 Z m 16.5333327,1.0118577 -4.4,-2.1501976 4,-2.0237154 4.4,2.1501976 z M 16.4,9.0750984 11.866666,11.351778 7.4666664,9.2015806 12.133333,6.7984186 Z M 6.2666665,8.4426874 2.1333333,6.2924898 6.6666665,4.01581 10.666666,6.1660076 Z m 0.4,1.6442686 4.6666665,2.27668 v 4.426877 l -4.6666665,-2.27668 z m 4.6666665,8.094862 V 22.35573 L 6.6666665,20.079051 v -4.173913 z m 1.333333,0 4.8,-2.403162 v 4.173912 l -4.8,2.403162 z m 0,-1.391305 v -4.426877 l 4.8,-2.4031621 V 14.387351 Z M 18.8,9.3280628 22.666666,7.4308297 V 11.857707 L 18.8,13.75494 Z M 12,1.3596836 l 4.133333,2.0237154 -4,2.0237153 L 7.9999998,3.383399 Z M 1.3333333,13.249011 5.3333332,15.272727 V 19.44664 L 1.3333333,17.422924 Z M 18.8,19.320157 v -4.173912 l 3.866666,-1.897234 v 4.173913 z"
   class="st2" />
</svg>