<?xml version="1.0" encoding="UTF-8" standalone="no"?>
<svg
   xmlns:dc="http://purl.org/dc/elements/1.1/"
   xmlns:cc="http://creativecommons.org/ns#"
   xmlns:rdf="http://www.w3.org/1999/02/22-rdf-syntax-ns#"
   xmlns:svg="http://www.w3.org/2000/svg"
   xmlns="http://www.w3.org/2000/svg"
   xml:space="preserve"
   style="enable-background:new 0 0 24 24;"
   viewBox="0 0 24 24"
   y="0px"
   x="0px"
   id="レイヤー_1"
   version="1.1"><metadata
   id="metadata27"><rdf:RDF><cc:Work
       rdf:about=""><dc:format>image/svg+xml</dc:format><dc:type
         rdf:resource="http://purl.org/dc/dcmitype/StillImage" /><dc:title></dc:title></cc:Work></rdf:RDF></metadata><defs
   id="defs25" />
<style
   id="style2"
   type="text/css">
	.st0{fill:#F1F0EF;}
	.st1{fill:#1EAA39;}
	.st2{fill:#595757;}
	.st3{fill:#9E9E9F;}
	.st4{fill:#B7331B;}
	.st5{fill:#E50012;}
</style>

<path
   style="fill:#1eaa39;stroke-width:0.96696252"
   id="path6"
   d="M 11.946237,20 C 9.1505378,20 7,21.826087 7,24 h 10 c -0.107525,-2.173913 -2.258064,-4 -5.053763,-4"
   class="st1" />
<path
   style="fill:#595757;stroke-width:1.16459465"
   id="path8"
   d="m 21.447058,22.427948 -1.55294,-4.611354 c 0.129412,-0.209607 0.258824,-0.31441 0.258824,-0.628821 0,-0.419214 -0.258824,-0.838428 -0.776472,-0.943231 l -1.55294,-4.716157 c 0.129412,-0.209608 0.258822,-0.419215 0.258822,-0.628822 0,-0.62882 -0.647058,-1.1528379 -1.423528,-1.1528379 -0.776472,0 -1.42353,0.5240179 -1.42353,1.1528379 0,0.419214 0.258824,0.733625 0.647058,0.943232 l 1.552942,4.820961 c -0.129412,0.209606 -0.258824,0.419213 -0.258824,0.62882 0,0.419215 0.388236,0.838428 0.776472,1.048035 l 1.423528,4.120231 H 18.470588 V 24 H 23 v -1.572052 z"
   class="st2" />
<path
   style="fill:#595757;stroke-width:1.16459465"
   id="path10"
   d="m 8.7647059,10.899563 c 0,-0.62882 -0.6470589,-1.1528379 -1.4235295,-1.1528379 -0.7764706,0 -1.4235294,0.5240179 -1.4235294,1.1528379 0,0.209607 0.1294118,0.419214 0.2588236,0.628822 l -1.5529412,4.716157 c -0.3882352,0.209607 -0.7764706,0.524017 -0.7764706,0.943231 0,0.209606 0.1294118,0.419214 0.2588236,0.524018 L 2.5529412,22.427948 H 1 v 1.575113 H 5.5294118 V 22.427948 H 4.4941176 l 1.4235294,-4.19214 c 0.5176472,-0.209607 0.7764706,-0.524017 0.7764706,-1.048035 0,-0.209607 -0.1294118,-0.419214 -0.2588234,-0.628821 l 1.552941,-4.820961 c 0.517647,-0.104803 0.7764707,-0.419214 0.7764707,-0.838428 z"
   class="st2" />
<path
   style="fill:#9e9e9f;stroke-width:1.13283205"
   id="path12"
   d="m 18,5.1353712 c 0,2.8296943 -2.693876,5.1353718 -6,5.1353718 -3.3061225,0 -6,-2.200874 -6,-5.1353718 C 6,2.3056768 8.6938775,0 12,0 c 3.306124,0 6,2.3056768 6,5.1353712"
   class="st3" />
<path
   style="fill:#595757;stroke-width:1.13283205"
   id="path14"
   d="m 6,5.1353712 c 0,2.8296943 2.6938775,5.1353718 6,5.1353718 V 5.1353712 Z"
   class="st2" />
<path
   style="fill:#595757;stroke-width:1.13283205"
   id="path16"
   d="m 12,0 v 5.1353712 h 6 C 18,2.3056768 15.306124,0 12,0"
   class="st2" />
<line
   style="fill:#b7331b;stroke-width:1.16459465"
   id="line18"
   y2="11.737991"
   x2="12"
   y1="16.663755"
   x1="12"
   class="st4" />
<polygon
   style="fill:#e50012"
   transform="matrix(1.2941176,0,0,1.117232,-3.5294118,-1.4453455)"
   id="polygon20"
   points="9.5,16.3 12,18.3 14.4,16.3 14.4,13.9 13,15.2 13,11.8 11,11.8 11,15.2 9.5,13.9 "
   class="st5" />
</svg>