<?xml version="1.0" encoding="UTF-8" standalone="no"?>
<svg
   xmlns:dc="http://purl.org/dc/elements/1.1/"
   xmlns:cc="http://creativecommons.org/ns#"
   xmlns:rdf="http://www.w3.org/1999/02/22-rdf-syntax-ns#"
   xmlns:svg="http://www.w3.org/2000/svg"
   xmlns="http://www.w3.org/2000/svg"
   xml:space="preserve"
   style="enable-background:new 0 0 24 24;"
   viewBox="0 0 24 24"
   y="0px"
   x="0px"
   id="レイヤー_1"
   version="1.1"><metadata
   id="metadata37"><rdf:RDF><cc:Work
       rdf:about=""><dc:format>image/svg+xml</dc:format><dc:type
         rdf:resource="http://purl.org/dc/dcmitype/StillImage" /><dc:title></dc:title></cc:Work></rdf:RDF></metadata><defs
   id="defs35" />
<style
   id="style2"
   type="text/css">
	.st0{fill:#F1F0EF;}
	.st1{fill:none;}
	.st2{fill:#595757;}
	.st3{fill:#E50012;}
</style>

<g
   transform="matrix(1.1267606,0,0,1.294964,-1.2394367,-3.6043168)"
   id="g28">
	<polygon
   style="fill:none"
   id="polygon6"
   points="4.7,6.1 2.8,8.2 15.3,8.2 17.2,6.1 "
   class="st1" />
	<polygon
   style="fill:none"
   id="polygon8"
   points="5.7,17.4 5.7,18 7.5,18 7.5,17.3 "
   class="st1" />
	<path
   style="fill:none"
   id="path10"
   d="m 14.5,17.4 -2,-0.1 V 18 h 6 v -5.1 h -1.3 v 0.7 c 0,0.1 -0.1,0.3 -0.2,0.4 l -1.3,1.2 v 0 c -0.1,0.1 -0.2,0.1 -0.3,0.1 h -1.3 l -0.8,0.4 z"
   class="st1" />
	<polygon
   style="fill:none"
   id="polygon12"
   points="10,9.6 10.9,11.3 12.6,10.3 12.5,12.3 14.5,12.2 13.5,13.9 14.3,14.3 15.1,14.3 15.1,9.2 2.1,9.2 2.1,14.3 5.7,14.3 6.5,13.9 5.5,12.2 7.5,12.3 7.4,10.3 9.1,11.3 "
   class="st1" />
	<polygon
   style="fill:none"
   id="polygon14"
   points="5.7,15.3 5.7,17.1 6.5,15.7 "
   class="st1" />
	<path
   style="fill:none"
   id="path16"
   d="m 18.9,9.8 v 0.4 c 0,0.2 -0.1,0.4 -0.3,0.5 l -1.1,1.2 h 1.4 l 1.9,-2.1 z"
   class="st1" />
	<polygon
   style="fill:none"
   id="polygon18"
   points="19.6,17.2 21.4,15.3 21.4,10.6 19.6,12.6 "
   class="st1" />
	<path
   style="fill:none"
   id="path20"
   d="m 17.9,6.9 -1.8,2 v 4.8 l 0.3,-0.3 v -1.5 c 0,-0.1 0,-0.2 0.1,-0.3 L 17.9,10 Z"
   class="st1" />
	<polygon
   style="fill:#595757"
   id="polygon22"
   points="12.1,19 10.9,18.3 10.5,19 "
   class="st2" />
	<polygon
   style="fill:#595757"
   id="polygon24"
   points="9.5,19 9.1,18.3 7.9,19 "
   class="st2" />
	<path
   style="fill:#595757"
   id="path26"
   d="M 21.9,8.8 H 18.8 V 5.6 C 18.8,5.3 18.6,5.1 18.3,5.1 H 4.5 C 4.4,5.1 4.2,5.2 4.1,5.3 l -2.8,3 v 0 C 1.2,8.4 1.1,8.6 1.1,8.7 v 6.1 c 0,0.3 0.2,0.5 0.5,0.5 h 3.1 v 3.2 c 0,0.3 0.2,0.5 0.5,0.5 H 7.4 V 18 H 5.7 v -0.6 -0.3 -1.8 0 L 4.8,14.8 5.7,14.3 H 2.1 V 9.2 H 15 v 5.1 h -0.8 l 0.9,0.5 -0.9,0.5 h 1.3 c 0.1,0 0.3,-0.1 0.3,-0.1 v 0 L 17.1,14 c 0.1,-0.1 0.2,-0.2 0.2,-0.4 v -0.7 h 1.3 V 18 h -6 v 1 h 6.5 c 0.1,0 0.3,-0.1 0.4,-0.2 v 0 l 2.8,-3.1 c 0.1,-0.1 0.1,-0.2 0.1,-0.3 V 9.3 C 22.4,9 22.2,8.8 21.9,8.8 Z M 15.3,8.2 H 2.8 L 4.7,6.1 h 12.6 z m 1.2,3.3 c -0.1,0.1 -0.1,0.2 -0.1,0.3 v 1.5 l -0.3,0.3 V 8.9 l 1.8,-2 v 3 z m 2.4,0.4 h -1.4 l 1.1,-1.2 c 0.2,-0.1 0.3,-0.3 0.3,-0.5 V 9.8 h 1.9 z m 2.5,3.4 -1.8,2 v -4.6 l 1.8,-2 z"
   class="st2" />
</g>
<polygon
   style="fill:#e50012"
   transform="matrix(1.1267606,0,0,1.294964,-1.2394367,-3.6043168)"
   id="polygon30"
   points="12,18.3 10.7,17.5 10,18.8 9.3,17.5 8,18.3 8.1,16.8 6.5,16.8 7.3,15.5 6,14.8 7.3,14.1 6.5,12.8 8.1,12.9 8,11.3 9.3,12.1 10,10.8 10.7,12.1 12,11.3 12,12.9 13.5,12.8 12.7,14.1 14,14.8 12.7,15.5 13.5,16.8 12,16.8 "
   class="st3" />
</svg>