<?xml version="1.0" encoding="UTF-8" standalone="no"?>
<svg
   xmlns:dc="http://purl.org/dc/elements/1.1/"
   xmlns:cc="http://creativecommons.org/ns#"
   xmlns:rdf="http://www.w3.org/1999/02/22-rdf-syntax-ns#"
   xmlns:svg="http://www.w3.org/2000/svg"
   xmlns="http://www.w3.org/2000/svg"
   xml:space="preserve"
   style="enable-background:new 0 0 24 24;"
   viewBox="0 0 24 24"
   y="0px"
   x="0px"
   id="レイヤー_1"
   version="1.1"><metadata
   id="metadata17"><rdf:RDF><cc:Work
       rdf:about=""><dc:format>image/svg+xml</dc:format><dc:type
         rdf:resource="http://purl.org/dc/dcmitype/StillImage" /><dc:title></dc:title></cc:Work></rdf:RDF></metadata><defs
   id="defs15" />
<style
   id="style2"
   type="text/css">
	.st0{fill:#F1F0EF;}
	.st1{fill:#E50012;}
	.st2{fill:#595757;}
</style>

<path
   style="fill:#595757;stroke-width:1.0937376;fill-opacity:1"
   id="path6"
   d="m 16.149532,11.946666 c 0,2.133334 -1.794392,3.946668 -4.149532,3.946668 -2.2429906,0 -4.1495328,-1.706667 -4.1495328,-3.946668 C 7.8504672,9.8133331 9.6448598,8 12,8 c 2.24299,0 4.149532,1.8133331 4.149532,3.946666"
   class="st1" />
<path
   style="fill:#595757;stroke-width:1.0937376"
   id="path8"
   d="M 3.0280374,24 H 0 v -2.133333 h 1.906542 v -7.573334 c 0,-0.319999 0.1121496,-0.64 0.3364486,-0.853333 L 4.1495328,11.946666 2.3551402,10.453333 C 2.1308412,10.24 1.906542,10.026666 1.906542,9.7066666 V 2.1333333 H 0 V 0 H 3.0280374 C 3.7009346,0 4.1495328,0.42666662 4.1495328,1.0666667 V 9.28 l 2.35514,1.92 c 0.2242992,0.213333 0.3364486,0.533333 0.3364486,0.853334 0,0.319999 -0.1121494,0.639999 -0.3364486,0.853332 L 4.1495328,14.72 v 8.213333 C 4.1495328,23.466666 3.7009346,24 3.0280374,24 Z"
   class="st2" />
<path
   style="fill:#595757;stroke-width:1.0937376"
   id="path10"
   d="m 24.143818,24 h -3.171856 c -0.672896,0 -1.121494,-0.426666 -1.121494,-1.066667 V 14.72 l -2.35514,-1.92 c -0.2243,-0.213333 -0.33645,-0.533333 -0.33645,-0.853334 0,-0.319999 0.11215,-0.639999 0.33645,-0.853332 l 2.35514,-1.9200006 V 1.0666667 C 19.850468,0.42666662 20.299066,0 20.971962,0 H 24 v 2.1333333 h -1.906542 v 7.5733333 c 0,0.3199994 -0.11215,0.6400004 -0.336448,0.8533334 L 19.850468,11.946666 21.64486,13.44 c 0.224298,0.213333 0.336448,0.533334 0.336448,0.853333 v 7.573334 h 2.05036 V 24 Z"
   class="st2" />
</svg>