<?xml version="1.0" encoding="UTF-8" standalone="no"?>
<svg
   xmlns:dc="http://purl.org/dc/elements/1.1/"
   xmlns:cc="http://creativecommons.org/ns#"
   xmlns:rdf="http://www.w3.org/1999/02/22-rdf-syntax-ns#"
   xmlns:svg="http://www.w3.org/2000/svg"
   xmlns="http://www.w3.org/2000/svg"
   xml:space="preserve"
   style="enable-background:new 0 0 24 24;"
   viewBox="0 0 24 24"
   y="0px"
   x="0px"
   id="レイヤー_1"
   version="1.1"><metadata
   id="metadata21"><rdf:RDF><cc:Work
       rdf:about=""><dc:format>image/svg+xml</dc:format><dc:type
         rdf:resource="http://purl.org/dc/dcmitype/StillImage" /><dc:title></dc:title></cc:Work></rdf:RDF></metadata><defs
   id="defs19">
	
	
	
	
</defs>
<style
   id="style2"
   type="text/css">
	.st0{fill:#F1F0EF;}
	.st1{fill:#595757;}
</style>

<rect
   x="10.715528"
   y="-6.7385315e-09"
   class="st1"
   width="2.4601791"
   height="3.364486"
   id="rect6"
   style="fill:#595757;stroke-width:1.3562398" /><path
   class="st1"
   d="m 8.7121212,19.17757 c 0.2792701,-0.224299 0.4189051,-0.560748 0.4189051,-0.897197 0,-0.336448 -0.139635,-0.672897 -0.4189051,-0.897196 V 14.35514 c 0.2792701,-0.224299 0.4189051,-0.560748 0.4189051,-0.897196 0,-0.672898 -0.6981751,-1.233645 -1.535985,-1.233645 -0.8378099,0 -1.5359848,0.560747 -1.5359848,1.233645 0,0.336448 0.139635,0.672897 0.5585399,0.897196 v 3.028037 c -0.2792699,0.224299 -0.5585399,0.560748 -0.5585399,0.897196 0,0.336449 0.139635,0.672898 0.5585399,0.897197 v 3.252336 H 5.2212466 v 1.570093 H 10.108471 V 22.429906 H 8.7121213 Z"
   id="path10"
   style="fill:#595757;stroke-width:1.25139916" /><path
   class="st1"
   d="M 21,8.9719624 V 6.0560746 c 0.27927,-0.224299 0.418905,-0.5607476 0.418905,-0.8971962 0,-0.6728972 -0.698174,-1.2336448 -1.535985,-1.2336448 -0.55854,0 -1.117079,0.09718 -1.256715,0.5457785 h -5.485407 v -0.433629 h -2.40604 V 4.4859812 H 5.5005165 C 5.2212466,4.1495326 4.6627067,3.9252336 4.1041667,3.9252336 c -0.8378099,0 -1.5359849,0.5607476 -1.5359849,1.2336448 0,0.3364486 0.139635,0.6728972 0.418905,0.8971962 V 9.084112 c -0.27927,0.224299 -0.418905,0.5607476 -0.418905,0.8971962 0,0.3364488 0.139635,0.6728968 0.418905,0.8971958 v 4.710281 h 2.0945247 v -4.82243 c 0.27927,-0.224299 0.418905,-0.560748 0.418905,-0.8971963 0,-0.3364486 0,-0.6728972 -0.2792699,-0.8971963 V 6.2803737 H 10.734758 V 12.224299 H 9.4102963 v 2.579439 H 14.513186 V 12.224299 H 13.140798 V 6.2803737 h 5.764678 V 9.084112 c -0.279271,0.224299 -0.418906,0.5607476 -0.418906,0.8971962 0,0.3364488 0.139635,0.6728968 0.418906,0.8971958 v 4.710281 H 21 v -4.82243 C 21.27927,10.542056 21.418905,10.205607 21.418905,9.8691587 21.418905,9.5327101 21.27927,9.1962615 21,8.9719624 Z"
   id="path12"
   style="fill:#595757;stroke-width:1.25139916" />
<path
   class="st1"
   d="m 17.369491,19.177571 c 0.279269,-0.224299 0.418904,-0.560748 0.418904,-0.897197 0,-0.336448 -0.139635,-0.672897 -0.418904,-0.897196 v -3.028037 c 0.279269,-0.224299 0.418904,-0.560748 0.418904,-0.897196 0,-0.672898 -0.698176,-1.233645 -1.535984,-1.233645 -0.837811,0 -1.535986,0.560747 -1.535986,1.233645 0,0.336448 0.139635,0.672897 0.558541,0.897196 v 3.028037 c -0.27927,0.224299 -0.558541,0.560748 -0.558541,0.897196 0,0.336449 0.139635,0.672898 0.558541,0.897197 v 3.252336 h -1.39635 V 24 h 4.887224 v -1.570093 h -1.396349 z"
   id="path10-3"
   style="fill:#595757;stroke-width:1.25139916" /></svg>