<?xml version="1.0" encoding="UTF-8" standalone="no"?>
<svg
   xmlns:dc="http://purl.org/dc/elements/1.1/"
   xmlns:cc="http://creativecommons.org/ns#"
   xmlns:rdf="http://www.w3.org/1999/02/22-rdf-syntax-ns#"
   xmlns:svg="http://www.w3.org/2000/svg"
   xmlns="http://www.w3.org/2000/svg"
   xml:space="preserve"
   style="enable-background:new 0 0 24 24;"
   viewBox="0 0 24 24"
   y="0px"
   x="0px"
   id="レイヤー_1"
   version="1.1"><metadata
   id="metadata17"><rdf:RDF><cc:Work
       rdf:about=""><dc:format>image/svg+xml</dc:format><dc:type
         rdf:resource="http://purl.org/dc/dcmitype/StillImage" /><dc:title></dc:title></cc:Work></rdf:RDF></metadata><defs
   id="defs15" />
<style
   id="style2"
   type="text/css">
	.st0{fill:#F1F0EF;}
	.st1{fill:#1EAA39;}
</style>
<rect
   id="rect4"
   height="24"
   width="24"
   class="st0" />

<path
   style="fill:#1eaa39;stroke-width:1.47532344"
   id="path8"
   d="M 10.025641,21.73077 C 10.025641,22.435898 9.5626233,23 8.9452662,23 H 3.0803747 C 2.4630178,23 2,22.435898 2,21.73077 V 2.2692308 C 2,1.5641026 2.4630178,1 3.0803747,1 h 5.8648915 c 0.6173571,0 1.0803748,0.5641026 1.0803748,1.2692308 z"
   class="st1" />
<path
   style="fill:#1eaa39;stroke-width:1.47532344"
   id="path10"
   d="M 22,21.73077 C 22,22.435898 21.536983,23 20.919626,23 h -5.864893 c -0.617356,0 -1.080374,-0.564102 -1.080374,-1.26923 V 2.2692308 C 13.974359,1.5641026 14.437377,1 15.054733,1 h 5.864893 C 21.536983,1 22,1.5641026 22,2.2692308 Z"
   class="st1" />
</svg>