<?xml version="1.0" encoding="UTF-8" standalone="no"?>
<svg
   xmlns:dc="http://purl.org/dc/elements/1.1/"
   xmlns:cc="http://creativecommons.org/ns#"
   xmlns:rdf="http://www.w3.org/1999/02/22-rdf-syntax-ns#"
   xmlns:svg="http://www.w3.org/2000/svg"
   xmlns="http://www.w3.org/2000/svg"
   xml:space="preserve"
   style="enable-background:new 0 0 24 24;"
   viewBox="0 0 24 24"
   y="0px"
   x="0px"
   id="レイヤー_1"
   version="1.1"><metadata
   id="metadata21"><rdf:RDF><cc:Work
       rdf:about=""><dc:format>image/svg+xml</dc:format><dc:type
         rdf:resource="http://purl.org/dc/dcmitype/StillImage" /><dc:title></dc:title></cc:Work></rdf:RDF></metadata><defs
   id="defs19" />
<style
   id="style2"
   type="text/css">
	.st0{fill:#F1F0EF;}
	.st1{fill:#595757;}
	.st2{fill:#1EAA39;}
</style>

<rect
   style="fill:#595757;stroke-width:1.04456317"
   id="rect6"
   height="4.1973095"
   width="2.7373273"
   class="st1"
   y="-2.4424907e-15"
   x="10.529954" />
<path
   style="fill:#595757;stroke-width:1.04456317"
   id="path8"
   d="m 21.175115,21.739911 -1.622119,-6.995516 c 0.202764,-0.32287 0.304147,-0.645741 0.304147,-0.96861 0,-0.64574 -0.40553,-1.29148 -0.912443,-1.506727 L 17.221199,4.8430493 c 0.202764,-0.3228699 0.304147,-0.6457399 0.304147,-0.9686098 0,-0.96861 -0.709677,-1.7219731 -1.62212,-1.7219731 -0.912442,0 -1.62212,0.7533631 -1.62212,1.7219731 0,0.6457399 0.304147,1.1838564 0.912442,1.5067263 l 1.723502,7.4260082 c -0.202765,0.322871 -0.304147,0.645741 -0.304147,0.968611 0,0.64574 0.304147,1.183856 0.912443,1.506726 l 1.520738,6.4574 H 18.032258 V 24 H 23 v -2.260089 z"
   class="st1" />
<rect
   style="fill:#595757;stroke-width:1.04456317"
   id="rect10"
   height="2.2600896"
   width="4.967742"
   class="st1"
   y="21.739908"
   x="1" />
<path
   style="fill:#595757;stroke-width:1.04456317"
   id="path12"
   d="m 9.5161291,3.7668161 c 0,-0.9686098 -0.7096775,-1.721973 -1.6221199,-1.721973 -0.9124424,0 -1.5207374,0.8609864 -1.5207374,1.721973 0,0.32287 0.1013826,0.7533633 0.3041475,0.9686098 L 4.9539171,12.161435 c -0.5069125,0.32287 -0.9124424,0.860987 -0.9124424,1.506726 0,0.322871 0.1013823,0.753364 0.3041474,0.96861 l -1.9262673,8.394619 2.0276498,0.538117 1.9262672,-8.502242 c 0.5069124,-0.107624 0.9124424,-0.64574 0.9124424,-1.29148 0,-0.32287 -0.1013824,-0.64574 -0.3041474,-0.968611 L 8.705069,5.2735426 C 9.2119816,5.0582959 9.5161291,4.412556 9.5161291,3.7668161 Z"
   class="st1" />
<path
   style="fill:#1eaa39;stroke-width:0.96696246"
   id="path14"
   d="M 4.9462372,20 C 2.1505381,20 0,21.826087 0,24 H 10 C 9.8924733,21.826087 7.6344087,20 4.9462372,20"
   class="st2" />
</svg>