<?xml version="1.0" encoding="UTF-8" standalone="no"?>
<svg
   xmlns:dc="http://purl.org/dc/elements/1.1/"
   xmlns:cc="http://creativecommons.org/ns#"
   xmlns:rdf="http://www.w3.org/1999/02/22-rdf-syntax-ns#"
   xmlns:svg="http://www.w3.org/2000/svg"
   xmlns="http://www.w3.org/2000/svg"
   xml:space="preserve"
   style="enable-background:new 0 0 24 24;"
   viewBox="0 0 24 24"
   y="0px"
   x="0px"
   id="レイヤー_1"
   version="1.1"><metadata
   id="metadata45"><rdf:RDF><cc:Work
       rdf:about=""><dc:format>image/svg+xml</dc:format><dc:type
         rdf:resource="http://purl.org/dc/dcmitype/StillImage" /><dc:title></dc:title></cc:Work></rdf:RDF></metadata><defs
   id="defs43">
	
	
	
	
	
	
	
	
	
	
	
	
</defs>
<style
   id="style2"
   type="text/css">
	.st0{fill:#F1F0EF;}
	.st1{fill:#8DC21F;}
	.st2{fill:#036EB7;}
	.st3{fill:none;}
	.st4{fill:#F0E800;}
	.st5{fill:#E50012;}
</style>

<path
   style="fill:#1eaa39;stroke-width:1.13749182;fill-opacity:1"
   id="path6"
   d="M 10.794258,0 C 9.6459327,0 9.1866029,5.5211267 9.0717704,9.0140845 L 7.0695275,7.9942782 v 1.8019365 l 3.0154015,2.1901413 3.23415,-2.0963913 V 8.0880282 l -1.950658,1.0387324 c 0.114833,-4.9577465 0.688995,-8 1.492823,-9.01408454 C 12.287081,0 10.794258,0 10.794258,0 Z"
   class="st1" />
<path
   style="fill:#1eaa39;stroke-width:1.12956488;fill-opacity:1"
   id="path8"
   d="m 11.337171,19.10764 1.721741,0.781248 V 18.197917 L 10.512261,16.125 8.15311,18.197917 v 1.690971 l 1.1483251,-0.777777 c 0,2.222223 0.4593305,4.111112 1.1483259,4.777778 0,0 1.492823,0.111111 2.066985,0.111111 -0.45933,-0.888888 -1.179575,-2.114583 -1.179575,-4.89236 z"
   class="st1" />
<path
   style="fill:#036eb7;stroke-width:1.13749182"
   id="path10"
   d="m 17.224881,12.619718 0.720244,-1.545335 -1.731908,0.112677 -2.045155,2.897447 2.202153,2.672095 2.138158,-0.112676 -1.283492,-1.658011 C 20.210527,14.535211 24,13.746479 24,12.845071 v -1.802818 c -0.688996,0.450705 -3.215311,1.464789 -6.775119,1.577465 z"
   class="st2" />
<path
   class="st3"
   d="m 19.291866,16.450704 -2.411483,0.112676 v 0 c -0.91866,1.126761 -2.066985,2.028169 -3.559808,2.478873 v 1.577465 L 11.942584,19.71831 c 0,0.338028 0.114832,0.676056 0.114832,1.014085 3.904307,0 7.349282,-2.478874 8.61244,-5.971831 -0.688995,0.112676 -1.492823,0.338027 -2.411483,0.450704 z"
   id="path12"
   style="fill:none;stroke-width:1.13749182" /><path
   class="st3"
   d="m 8.4976077,20.169014 c 0.1148325,0 0.229665,0.112677 0.3444976,0.112677 0,-0.112677 0,-0.225353 0,-0.338029 z"
   id="path14"
   style="fill:none;stroke-width:1.13749182" /><path
   class="st3"
   d="m 12.287081,2.8169015 c -0.114833,0.6760563 -0.229665,1.5774647 -0.344497,2.7042252 3.100478,0.4507043 5.511962,2.7042254 6.086124,5.6338023 l 0.918661,-0.112676 -0.688996,1.014085 c 1.148325,-0.112676 2.066986,-0.338028 2.985646,-0.56338 C 21.014354,6.8732395 17.110048,2.9295774 12.287081,2.8169015 Z"
   id="path16"
   style="fill:none;stroke-width:1.13749182" /><path
   class="st3"
   d="m 5.2822967,16.676056 v 0 H 4.2488038 c 0.9186604,1.352113 2.0669856,2.366197 3.4449762,3.154929 V 18.704226 C 6.7751196,18.140845 5.9712919,17.464788 5.2822967,16.676056 Z"
   id="path18"
   style="fill:none;stroke-width:1.13749182" /><path
   class="st3"
   d="M 3.9043063,12.169014 3.215311,11.154929 H 4.0191388 C 4.478469,8.5633803 6.3157894,6.5352113 8.8421053,5.7464789 c 0,-0.9014085 0.1148325,-1.802817 0.2296651,-2.4788733 -3.6746412,1.2394367 -6.3157895,4.6197183 -6.3157895,8.5633804 0,0.112676 0,0.225352 0,0.338028 0.3444976,0.112676 0.6889952,0.225353 1.0334928,0.338028 0,-0.225352 0.1148326,-0.338028 0.1148326,-0.338028 z"
   id="path20"
   style="fill:none;stroke-width:1.13749182" /><path
   class="st3"
   d="m 3.4449761,15.098591 c 0.1148325,0.112677 0.1148325,0.338028 0.2296651,0.450705 l 0.3444976,-0.338028 c -0.2296651,0 -0.3444976,0 -0.5741627,-0.112677 z"
   id="path22"
   style="fill:none;stroke-width:1.13749182" /><path
   class="st4"
   d="m 3.9043063,12.169014 c 0,0.112676 0,0.112676 0,0.225353 0,0 0.1148325,0 0.1148325,0 z"
   id="path24"
   style="fill:#f0e800;stroke-width:1.13749182" /><path
   class="st5"
   d="m 21.129187,11.605633 c 1.033492,-0.225351 1.83732,-0.56338 2.29665,-0.788732 C 22.966507,5.4084507 18.488038,1.1267606 12.976077,0.67605634 12.746412,1.1267606 12.516746,1.8028169 12.287081,2.9295774 c 4.822967,0 8.727273,3.9436621 8.842106,8.6760556 z"
   id="path28"
   style="fill:#e50012;stroke-width:1.13749182" /><path
   class="st5"
   d="M 8.4976077,20.169014 7.69378,20.732395 V 19.71831 C 6.3157894,19.042253 5.0526316,17.915493 4.2488038,16.56338 H 2.7559809 L 3.6746412,15.549296 C 3.5598086,15.436619 3.5598086,15.211268 3.4449761,15.098591 2.2966507,14.87324 1.3779905,14.535211 0.68899524,14.084507 1.6076555,18.366198 4.937799,21.633803 9.3014351,22.647888 9.0717704,21.971831 8.9569378,21.183099 8.8421053,20.169014 c -0.1148326,0 -0.2296651,0 -0.3444976,0 z"
   id="path30"
   style="fill:#e50012;stroke-width:1.13749182" /><path
   class="st5"
   d="m 2.8708134,12.056338 c 0,-0.112676 0,-0.225352 0,-0.338028 0,-3.9436621 2.6411483,-7.3239438 6.200957,-8.5633804 C 9.1866029,2.0281691 9.4162683,1.2394367 9.6459327,0.67605634 4.8229665,1.6901408 1.1483254,5.6338028 0.57416271,10.478873 0.91866032,11.042253 1.7224881,11.71831 2.8708134,12.056338 Z"
   id="path32"
   style="fill:#e50012;stroke-width:1.13749182" /><path
   class="st5"
   d="m 11.942584,20.732395 c 0.114832,1.12676 0.45933,1.802816 0.688995,2.25352 5.282296,-0.338027 9.5311,-4.056338 10.564594,-9.014083 -0.688996,0.338027 -1.492823,0.563379 -2.64115,0.788732 -1.263157,3.492957 -4.5933,5.971831 -8.612439,5.971831 z"
   id="path34"
   style="fill:#e50012;stroke-width:1.13749182" />
<path
   style="fill:#036eb7;stroke-width:1.13749182"
   id="path38"
   d="M 5.8658792,11.330986 4.1339713,11.21831 4.937799,12.957747 C 2.4114833,12.957747 0.34449761,11.380282 0,10.591549 v 2.028169 c 0.45933021,0.901408 1.9521531,1.690141 4.937799,2.253522 L 3.9043063,16 5.4799642,16.112676 7.7446173,13.971832 Z"
   class="st2" />
</svg>