<?xml version="1.0" encoding="UTF-8" standalone="no"?>
<svg
   xmlns:dc="http://purl.org/dc/elements/1.1/"
   xmlns:cc="http://creativecommons.org/ns#"
   xmlns:rdf="http://www.w3.org/1999/02/22-rdf-syntax-ns#"
   xmlns:svg="http://www.w3.org/2000/svg"
   xmlns="http://www.w3.org/2000/svg"
   xml:space="preserve"
   style="enable-background:new 0 0 24 24;"
   viewBox="0 0 24 24"
   y="0px"
   x="0px"
   id="レイヤー_1"
   version="1.1"><metadata
   id="metadata21"><rdf:RDF><cc:Work
       rdf:about=""><dc:format>image/svg+xml</dc:format><dc:type
         rdf:resource="http://purl.org/dc/dcmitype/StillImage" /><dc:title></dc:title></cc:Work></rdf:RDF></metadata><defs
   id="defs19" />
<style
   id="style2"
   type="text/css">
	.st0{fill:#F1F0EF;}
	.st1{fill:#595757;}
	.st2{fill:#B7331B;}
	.st3{fill:#E50012;}
</style>

<rect
   style="fill:#595757;stroke-width:1.04456294"
   id="rect6"
   height="4.1973095"
   width="2.7373271"
   class="st1"
   y="-2.4424907e-15"
   x="10.529954" />
<path
   style="fill:#595757;stroke-width:1.04456294"
   id="path8"
   d="m 21.175115,21.739911 -1.622119,-6.995516 c 0.202764,-0.32287 0.304147,-0.645741 0.304147,-0.96861 0,-0.64574 -0.40553,-1.29148 -0.912442,-1.506727 L 17.221198,4.8430493 c 0.202765,-0.3228699 0.304147,-0.6457399 0.304147,-0.9686098 0,-0.96861 -0.709677,-1.7219731 -1.622119,-1.7219731 -0.912443,0 -1.62212,0.7533631 -1.62212,1.7219731 0,0.6457399 0.304147,1.1838564 0.912442,1.5067263 l 1.723502,7.4260082 c -0.202764,0.322871 -0.304147,0.645741 -0.304147,0.968611 0,0.64574 0.304147,1.183856 0.912442,1.506726 l 1.520738,6.4574 H 18.032258 V 24 H 23 v -2.260089 z"
   class="st1" />
<path
   style="fill:#595757;stroke-width:1.04456294"
   id="path10"
   d="m 9.5161291,3.7668161 c 0,-0.9686098 -0.7096775,-1.721973 -1.6221199,-1.721973 -0.9124424,0 -1.5207373,0.8609864 -1.5207373,1.721973 0,0.32287 0.1013825,0.7533633 0.3041475,0.9686098 L 4.9539171,12.161435 c -0.5069125,0.32287 -0.9124424,0.860987 -0.9124424,1.506726 0,0.322871 0.1013824,0.753364 0.3041474,0.96861 L 2.7235023,21.632287 H 1 v 2.403907 H 5.9677419 V 21.632287 H 4.8525345 l 1.5207374,-6.457399 c 0.5069124,-0.215247 0.9124424,-0.753363 0.9124424,-1.399103 0,-0.32287 -0.1013825,-0.64574 -0.3041475,-0.968611 L 8.7050691,5.2735426 c 0.5069125,-0.2152467 0.81106,-0.8609866 0.81106,-1.5067265 z"
   class="st1" />
<line
   style="fill:#b7331b;stroke-width:1.04456294"
   id="line12"
   y2="17.650225"
   x2="16.004608"
   y1="17.650225"
   x1="8.0967741"
   class="st2" />
<polygon
   style="fill:#e50012"
   transform="matrix(1.0138249,0,0,1.0762332,-0.21658986,-1.1838565)"
   id="polygon14"
   points="11,15.1 8.7,15.1 6.6,17.5 8.7,20 11,20 9.8,18.5 14.2,18.5 13,20 15.3,20 17.4,17.5 15.3,15.1 13,15.1 14.2,16.5 9.8,16.5 "
   class="st3" />
</svg>