<?xml version="1.0" encoding="UTF-8" standalone="no"?>
<svg
   xmlns:dc="http://purl.org/dc/elements/1.1/"
   xmlns:cc="http://creativecommons.org/ns#"
   xmlns:rdf="http://www.w3.org/1999/02/22-rdf-syntax-ns#"
   xmlns:svg="http://www.w3.org/2000/svg"
   xmlns="http://www.w3.org/2000/svg"
   xml:space="preserve"
   style="enable-background:new 0 0 24 24;"
   viewBox="0 0 24 24"
   y="0px"
   x="0px"
   id="レイヤー_1"
   version="1.1"><metadata
   id="metadata17"><rdf:RDF><cc:Work
       rdf:about=""><dc:format>image/svg+xml</dc:format><dc:type
         rdf:resource="http://purl.org/dc/dcmitype/StillImage" /><dc:title></dc:title></cc:Work></rdf:RDF></metadata><defs
   id="defs15" />
<style
   id="style2"
   type="text/css">
	.st0{fill:#F1F0EF;}
	.st1{fill:#1EAA39;}
</style>
<rect
   id="rect4"
   height="24"
   width="24"
   class="st0"
   y="0.1" />

<path
   style="fill:#1eaa39;stroke-width:1.38089025"
   id="path8"
   d="M 13,2.2165174 V 21.783481 c 0,0.910092 0.628571,1.516821 1.131429,1.061775 l 9.679999,-10.162688 c 0.251429,-0.303363 0.251429,-0.910091 0,-1.213455 L 14.131429,1.1547443 C 13.628571,0.6996985 13,1.306426 13,2.2165174"
   class="st1" />
<path
   style="fill:#1eaa39;stroke-width:1.34186256"
   id="path10"
   d="M 11,15.928571 C 11,17.971429 10.65625,19.7 10.083333,20.957142 9.3958332,22.214287 8.4791664,23 7.2187499,23 H 1.1458333 C 0.68749999,23 0.45833333,22.528571 0.45833333,22.057143 v -2.828571 c 0,-0.628572 0.34374999,-1.1 0.80208327,-1.1 h 5.3854166 c 0.3437501,0 0.6875,-0.157143 0.9166666,-0.314286 C 7.7916665,17.5 8.0208332,17.028572 8.0208332,16.557143 8.0208332,15.928571 7.7916665,15.3 7.2187499,14.985715 6.9895833,14.828572 6.8749999,14.828572 6.6458332,14.828572 h -0.6874999 -1.375 c -1.03125,0 -1.71875,-0.157143 -2.1770833,-0.314287 C 1.6041666,14.042856 1.03125,13.257143 0.57291665,11.842858 0.22916666,10.742858 0,9.3285717 0,7.9142856 0,5.8714286 0.34375,4.3 0.91666664,3.0428573 1.6041666,1.7857143 2.5208333,1 3.7812499,1 H 9.5104164 C 9.9687497,1 10.3125,1.4714286 10.3125,2.1000001 v 2.9857142 c 0,0.6285714 -0.3437503,1.257143 -0.9166668,1.257143 H 4.125 c -0.8020834,0 -1.1458335,0.6285713 -1.1458335,1.7285713 0,0.4714285 0.1145834,0.9428571 0.3437501,1.2571431 C 3.5520833,9.6428574 3.7812499,9.7999995 4.125,9.7999995 H 7.2187499 C 9.7395831,9.3285717 11,11.528571 11,15.928571"
   class="st1" />
</svg>