<?xml version="1.0" encoding="UTF-8" standalone="no"?>
<svg
   xmlns:dc="http://purl.org/dc/elements/1.1/"
   xmlns:cc="http://creativecommons.org/ns#"
   xmlns:rdf="http://www.w3.org/1999/02/22-rdf-syntax-ns#"
   xmlns:svg="http://www.w3.org/2000/svg"
   xmlns="http://www.w3.org/2000/svg"
   xml:space="preserve"
   style="enable-background:new 0 0 24 24;"
   viewBox="0 0 24 24"
   y="0px"
   x="0px"
   id="レイヤー_1"
   version="1.1"><metadata
   id="metadata17"><rdf:RDF><cc:Work
       rdf:about=""><dc:format>image/svg+xml</dc:format><dc:type
         rdf:resource="http://purl.org/dc/dcmitype/StillImage" /><dc:title></dc:title></cc:Work></rdf:RDF></metadata><defs
   id="defs15" />
<style
   id="style2"
   type="text/css">
	.st0{fill:#F1F0EF;}
	.st1{fill:#595757;}
	.st2{fill:#E50012;}
</style>



<path
   id="path4639-5-7-7"
   d="M 12 0 C 5.93621 0 1 4.9362098 1 11 C 1 12.563708 1.3326234 14.050011 1.9238281 15.398438 L 3.5214844 14.244141 C 3.1957842 13.384489 2.9935807 12.463496 2.9414062 11.5 L 6.0996094 11.5 C 6.106404 11.78444 6.1235355 12.065803 6.1464844 12.345703 L 7.1308594 11.634766 C 7.1291751 11.589514 7.1242964 11.545395 7.1230469 11.5 L 7.3164062 11.5 L 8.6992188 10.5 L 7.1191406 10.5 C 7.1729306 9.3368445 7.3776236 8.2335053 7.6972656 7.2109375 C 8.8156676 7.657971 10.119772 7.912421 11.5 7.9628906 L 11.5 8.4746094 L 11.949219 8.1503906 L 12.5 8.546875 L 12.5 7.9648438 C 13.88023 7.9131778 15.177408 7.6525397 16.292969 7.2089844 C 16.60954 8.2327274 16.81073 9.3367399 16.861328 10.5 L 15.220703 10.5 L 16.611328 11.5 L 16.855469 11.5 C 16.853758 11.556543 16.84809 11.611648 16.845703 11.667969 L 17.826172 12.373047 C 17.85119 12.084233 17.871151 11.793751 17.878906 11.5 L 21.058594 11.5 C 21.005904 12.473017 20.799633 13.404139 20.46875 14.271484 L 22.066406 15.417969 C 22.66316 14.064257 23 12.571461 23 11 C 23 4.9362098 18.06379 0 12 0 z M 12.5 1.9667969 C 13.934805 2.7862347 15.138904 4.2623887 15.919922 6.1308594 C 14.944945 6.5370894 13.775508 6.804615 12.5 6.8613281 L 12.5 1.9667969 z M 11.5 1.9921875 L 11.5 6.859375 C 10.230725 6.8011543 9.0525788 6.5408969 8.0742188 6.1347656 C 8.8594928 4.273399 10.064699 2.804067 11.5 1.9921875 z M 9.4472656 2.2851562 C 8.5058456 3.189509 7.7309125 4.3519992 7.1640625 5.6894531 C 6.5306245 5.3183174 6.0545186 4.8804401 5.7441406 4.4160156 C 6.7772336 3.4343427 8.0395806 2.6949899 9.4472656 2.2851562 z M 14.574219 2.2910156 C 15.975659 2.7027687 17.232905 3.4408172 18.261719 4.4199219 C 17.95024 4.8815511 17.459295 5.312139 16.828125 5.6835938 C 16.268867 4.3536903 15.503314 3.1964805 14.574219 2.2910156 z M 4.9589844 5.2539062 C 5.4025924 5.8540406 6.026325 6.3559111 6.765625 6.7675781 C 6.393175 7.9294386 6.1672011 9.1887696 6.1113281 10.5 L 2.9414062 10.5 C 3.0490172 8.5127664 3.7808424 6.6972062 4.9589844 5.2539062 z M 19.042969 5.2558594 C 20.220109 6.6988195 20.951036 8.5137378 21.058594 10.5 L 17.869141 10.5 C 17.816571 9.1899562 17.593199 7.931696 17.224609 6.7695312 C 17.969167 6.3573492 18.599848 5.8558758 19.042969 5.2558594 z M 4.4726562 18.998047 C 5.1942925 19.677624 6.0028072 20.263931 6.8867188 20.730469 L 6.8945312 18.998047 L 4.4726562 18.998047 z M 17.011719 19 L 17.001953 20.783203 C 17.92685 20.308198 18.772967 19.706195 19.523438 19 L 17.011719 19 z "
   style="color:#000000;font-style:normal;font-variant:normal;font-weight:normal;font-stretch:normal;font-size:medium;line-height:normal;font-family:sans-serif;font-variant-ligatures:normal;font-variant-position:normal;font-variant-caps:normal;font-variant-numeric:normal;font-variant-alternates:normal;font-feature-settings:normal;text-indent:0;text-align:start;text-decoration:none;text-decoration-line:none;text-decoration-style:solid;text-decoration-color:#000000;letter-spacing:normal;word-spacing:normal;text-transform:none;writing-mode:lr-tb;direction:ltr;text-orientation:mixed;dominant-baseline:auto;baseline-shift:baseline;text-anchor:start;white-space:normal;shape-padding:0;clip-rule:nonzero;display:inline;overflow:visible;visibility:visible;opacity:1;isolation:auto;mix-blend-mode:normal;color-interpolation:sRGB;color-interpolation-filters:linearRGB;solid-color:#000000;solid-opacity:1;vector-effect:none;fill:#595757;fill-opacity:1;fill-rule:nonzero;stroke:none;stroke-width:1.91515982;stroke-linecap:square;stroke-linejoin:round;stroke-miterlimit:4;stroke-dasharray:none;stroke-dashoffset:0;stroke-opacity:1;marker:none;color-rendering:auto;image-rendering:auto;shape-rendering:auto;text-rendering:auto;enable-background:accumulate" /><path
   id="path4692-0-2-3"
   d="M 12.00005,9.4498363 23.550241,17.7463 15.88555,17.7451 l 0.0092,5.805004 -7.7984415,-0.0012 -0.00938,-5.804993 -7.63714892,-5.91e-4 z"
   style="fill:#e50012;fill-opacity:1;stroke:#e50012;stroke-width:0.89969981;stroke-linecap:butt;stroke-linejoin:round;stroke-miterlimit:4;stroke-dasharray:none;stroke-opacity:1" /></svg>