<?xml version="1.0" encoding="UTF-8" standalone="no"?>
<svg
   xmlns:dc="http://purl.org/dc/elements/1.1/"
   xmlns:cc="http://creativecommons.org/ns#"
   xmlns:rdf="http://www.w3.org/1999/02/22-rdf-syntax-ns#"
   xmlns:svg="http://www.w3.org/2000/svg"
   xmlns="http://www.w3.org/2000/svg"
   xml:space="preserve"
   style="enable-background:new 0 0 24 24;"
   viewBox="0 0 24 24"
   y="0px"
   x="0px"
   id="レイヤー_1"
   version="1.1"><metadata
   id="metadata27"><rdf:RDF><cc:Work
       rdf:about=""><dc:format>image/svg+xml</dc:format><dc:type
         rdf:resource="http://purl.org/dc/dcmitype/StillImage" /><dc:title></dc:title></cc:Work></rdf:RDF></metadata><defs
   id="defs25" />
<style
   id="style2"
   type="text/css">
	.st0{fill:#F1F0EF;}
	.st1{fill:#1EAA39;}
	.st2{fill:#595757;}
	.st3{fill:#9E9E9F;}
	.st4{fill:#B7331B;}
	.st5{fill:#E50012;}
</style>

<path
   style="fill:#1eaa39;stroke-width:0.96696246"
   id="path6"
   d="M 11.946237,20 C 9.1505378,20 7,21.826086 7,24 h 10 c -0.107525,-2.173914 -2.258064,-4 -5.053763,-4"
   class="st1" />
<path
   style="fill:#595757;stroke-width:1.16206002"
   id="path8"
   d="m 21.447058,22.330435 -1.55294,-4.591305 c 0.129412,-0.208695 0.258824,-0.313043 0.258824,-0.521738 0,-0.417392 -0.258824,-0.834784 -0.776472,-0.939131 l -1.55294,-4.695653 c 0.129412,-0.208695 0.258822,-0.417391 0.258822,-0.626086 0,-0.626087 -0.647058,-1.1478263 -1.423528,-1.1478263 -0.776472,0 -1.42353,0.5217393 -1.42353,1.1478263 0,0.417391 0.258824,0.730435 0.647058,0.93913 l 1.552942,4.8 c -0.129412,0.208696 -0.258824,0.417391 -0.258824,0.626087 0,0.417391 0.388236,0.834783 0.776472,1.043478 l 1.423528,4.012117 H 18.470588 V 24 H 23 v -1.669565 z"
   class="st2" />
<path
   style="fill:#595757;stroke-width:1.16206002"
   id="path10"
   d="m 8.7647059,10.852174 c 0,-0.626087 -0.6470589,-1.1478262 -1.4235295,-1.1478262 -0.7764706,0 -1.4235294,0.5217392 -1.4235294,1.1478262 0,0.208696 0.1294118,0.417391 0.2588236,0.626087 l -1.5529412,4.695652 c -0.3882352,0.208695 -0.7764706,0.521739 -0.7764706,0.93913 0,0.208696 0.1294118,0.417392 0.2588236,0.52174 L 2.5529412,22.330435 H 1 v 1.676597 H 5.5294118 V 22.330435 H 4.4941176 L 5.917647,18.156522 c 0.5176472,-0.208696 0.7764706,-0.521739 0.7764706,-1.043479 0,-0.208695 -0.1294118,-0.417391 -0.2588234,-0.626086 l 1.552941,-4.8 c 0.517647,-0.104349 0.7764707,-0.417392 0.7764707,-0.834783 z"
   class="st2" />
<path
   style="fill:#9e9e9f;stroke-width:1.13036644"
   id="path12"
   d="m 18,5.1130435 c 0,2.8173913 -2.693876,5.1130435 -6,5.1130435 -3.3061225,0 -6,-2.1913044 -6,-5.1130435 C 6,2.2956522 8.6938775,0 12,0 c 3.306124,0 6,2.2956522 6,5.1130435"
   class="st3" />
<path
   style="fill:#595757;stroke-width:1.13036644"
   id="path14"
   d="m 6,5.1130435 c 0,2.8173913 2.6938775,5.1130435 6,5.1130435 V 5.1130435 Z"
   class="st2" />
<path
   style="fill:#595757;stroke-width:1.13036644"
   id="path16"
   d="m 12,0 v 5.1130435 h 6 C 18,2.2956522 15.306124,0 12,0"
   class="st2" />
<line
   style="fill:#b7331b;stroke-width:1.16206002"
   id="line18"
   y2="18.469564"
   x2="12"
   y1="13.565217"
   x1="12"
   class="st4" />
<polygon
   style="fill:#e50012"
   transform="matrix(1.2941176,0,0,1.1250835,-3.5294118,-1.5890288)"
   id="polygon20"
   points="11,18.3 13,18.3 13,15 14.4,16.2 14.4,13.9 12,11.8 9.5,13.9 9.5,16.2 11,15 "
   class="st5" />
</svg>