<?xml version="1.0" encoding="UTF-8" standalone="no"?>
<svg
   xmlns:dc="http://purl.org/dc/elements/1.1/"
   xmlns:cc="http://creativecommons.org/ns#"
   xmlns:rdf="http://www.w3.org/1999/02/22-rdf-syntax-ns#"
   xmlns:svg="http://www.w3.org/2000/svg"
   xmlns="http://www.w3.org/2000/svg"
   xml:space="preserve"
   style="enable-background:new 0 0 24 24;"
   viewBox="0 0 24 24"
   y="0px"
   x="0px"
   id="レイヤー_1"
   version="1.1"><metadata
   id="metadata73"><rdf:RDF><cc:Work
       rdf:about=""><dc:format>image/svg+xml</dc:format><dc:type
         rdf:resource="http://purl.org/dc/dcmitype/StillImage" /><dc:title></dc:title></cc:Work></rdf:RDF></metadata><defs
   id="defs71" />
<style
   id="style2"
   type="text/css">
	.st0{fill:#F1F0EF;}
	.st1{fill:#E50012;}
	.st2{fill:none;}
	.st3{fill:#B3B3B3;}
	.st4{fill:#4D4D4D;}
</style>

<path
   style="fill:#e50012;stroke-width:1.1708014"
   id="path6"
   d="M 12,8.921466 13.636364,6.6596859 C 14.4,5.6544503 15.490909,5.026178 16.690909,5.026178 h 3.054546 v 2.513089 h -3.054546 c -0.545454,0 -1.090909,0.2513089 -1.418182,0.7539267 l -1.854546,2.6387433 z"
   class="st1" />
<polygon
   style="fill:none"
   transform="matrix(1.0909091,0,0,1.2565445,-1.7454545,-2.8900524)"
   id="polygon8"
   points="4.1,9.1 3.8,12.1 4.1,11.7 "
   class="st2" />
<rect
   id="rect10"
   height="4"
   width="0"
   class="st2"
   y="8.8"
   x="8.1" />
<polygon
   style="fill:none"
   transform="matrix(1.0909091,0,0,1.2565445,-1.7454545,-2.8900524)"
   id="polygon12"
   points="21.3,12.7 21.5,12.7 21.5,12.9 21.5,13 21.1,9.1 21.1,12.5 "
   class="st2" />
<path
   style="fill:#b3b3b3;stroke-width:1.1708014"
   id="path14"
   d="M 12.109091,5.026178 H 12 12.436364 c -0.109091,0 -0.218183,0 -0.327273,0 z"
   class="st3" />
<path
   style="fill:#b3b3b3;stroke-width:1.1708014"
   id="path16"
   d="M 8.8363636,4.6492147 V 4.2722513 H 10.145455 V 0 H 7.0909091 V 4.3979058 H 7.2 c 0.5454545,0 1.0909091,0.1256544 1.6363636,0.2513089 z"
   class="st3" />
<path
   style="fill:#b3b3b3;stroke-width:1.1708014"
   id="path18"
   d="m 7.6363636,13.068063 c 0.4363637,0 0.8727273,-0.251309 1.0909091,-0.628271 l 1.2,-1.633509 L 8.2909091,8.6701571 C 7.9636364,8.2931937 7.6363636,8.1675393 7.2,8.1675393 H 7.0909091 v 5.0261787 h 0.5454545 z"
   class="st3" />
<path
   style="fill:#b3b3b3;stroke-width:1.1708014"
   id="path20"
   d="m 16.254545,11.308901 h 0.654546 V 8.1675393 H 16.8 c -0.436364,0 -0.763636,0.2513089 -0.981819,0.5026178 l -1.745454,2.2617799 1.2,1.633508 c 0.218182,0.376963 0.654546,0.628273 1.090909,0.628273 h 0.545455 v -1.005236 z"
   class="st3" />
<path
   style="fill:#b3b3b3;stroke-width:1.1708014"
   id="path22"
   d="m 11.890909,5.026178 c -0.10909,0 -0.218182,0 -0.327273,0.1256545 H 12 Z"
   class="st3" />
<path
   style="fill:#b3b3b3;stroke-width:1.1708014"
   id="path24"
   d="m 16.909091,4.3979058 v 0 V 1.382199 0 h -3.054546 v 4.2722513 h 1.309091 v 0.3769634 c 0.545455,-0.2513089 0.981819,-0.3769634 1.527273,-0.3769634 h 0.218182 z"
   class="st3" />
<path
   style="fill:#b3b3b3;stroke-width:1.1708014"
   id="path26"
   d="m 12.654545,14.827225 c 0.109091,0.125655 0.109091,0.251309 0.218182,0.376963 0,0 -0.109091,-0.125654 -0.109091,-0.125654 z"
   class="st3" />
<path
   style="fill:#b3b3b3;stroke-width:1.1708014"
   id="path28"
   d="m 11.127273,15.078534 c 0.109091,-0.125654 0.218182,-0.125654 0.218182,-0.376962 l -0.109091,0.125653 c 0,0.125655 -0.109091,0.251309 -0.109091,0.251309 z"
   class="st3" />
<path
   style="fill:#b3b3b3;stroke-width:1.1708014"
   id="path30"
   d="m 13.309091,5.026178 c -0.218182,0 -0.327272,0.1256545 -0.545455,0.2513089 V 5.1518325 H 12.327273 11.890909 11.454545 11.018181 V 5.2774869 C 10.909091,5.1518325 10.690909,5.026178 10.472727,5.026178 H 9.2727273 c 0.4363636,0.2513089 0.8727277,0.7539267 1.3090917,1.1308901 l 0.327272,0.5026178 0.872728,1.2565445 0.872726,-1.2565445 0.327274,-0.5026178 c 0.327272,-0.5026178 0.763636,-0.8795812 1.30909,-1.1308901 z"
   class="st3" />
<polygon
   style="fill:#4d4d4d"
   transform="matrix(1.0909091,0,0,1.2565445,-1.7454545,-2.8900524)"
   id="polygon32"
   points="6.6,5.7 6.6,5.8 8.1,5.8 8.1,5.7 8.1,3.4 8.1,2.3 5.3,2.3 5.3,5.7 "
   class="st4" />
<polygon
   style="fill:#4d4d4d"
   transform="matrix(1.0909091,0,0,1.2565445,-1.7454545,-2.8900524)"
   id="polygon34"
   points="6.9,15.7 7.6,16.6 7.6,15.7 "
   class="st4" />
<path
   style="fill:#4d4d4d;stroke-width:1.16774845"
   id="path36"
   d="M 2.4,12.25 2.7272727,8.5 v 3.25 l 0.4363637,-0.5 h 3.9272727 l -1.309091,1.875001 h 1.309091 V 8.125 H 3.7090909 V 5 H 3.6 C 3.3818181,5 3.2727273,5.125 3.0545455,5.25 V 5.125 L 2.0727273,5 C 1.7454545,5 1.5272727,5.25 1.4181819,5.625 L 0.65454545,13.875001 H 0.21818181 L 0,16.375 1.5272727,16.5 0.43636364,14.875 Z"
   class="st4" />
<path
   style="fill:#4d4d4d;stroke-width:1.16774845"
   id="path38"
   d="m 4.2631738,22 c 0,0 0,0 0,0 H 3.6086284 c -0.4363636,0 -0.8727272,0.5 -0.8727272,1 v 1 c 0,0 0,0 0,0 h 4.1454545 c 0,0 0,0 0,0 v -1.874999 c 0,0 0,0 0,0 H 6.5540829 c 0,0 0,0 0,0 V 18.75 H 4.2631738 Z"
   class="st4" />
<polygon
   style="fill:#4d4d4d"
   transform="matrix(1.0909091,0,0,1.2565445,-1.7454545,-2.8900524)"
   id="polygon40"
   points="17.1,5.8 18.6,5.8 18.6,5.7 19.9,5.7 19.9,2.3 17.1,2.3 "
   class="st4" />
<polygon
   style="fill:#4d4d4d"
   transform="matrix(1.0909091,0,0,1.2565445,-1.7454545,-2.8900524)"
   id="polygon42"
   points="17.1,12.7 17.7,12.7 17.1,12 "
   class="st4" />
<path
   style="fill:#4d4d4d;stroke-width:1.1708014"
   id="path44"
   d="M 24,16.335079 23.781819,13.82199 H 23.345455 L 22.581819,5.5287958 c 0,-0.3769633 -0.327274,-0.6282722 -0.654546,-0.5026178 L 20.945455,5.1518325 V 5.2774869 C 20.836364,5.1518325 20.618181,5.026178 20.4,5.026178 h -0.109091 v 3.0157068 h -3.381818 v 3.1413612 h 3.272728 l 1.090908,1.507853 V 8.5445026 l 0.436364,4.9005234 1.2,1.633508 -1.09091,1.507853 v 0.125655 z"
   class="st4" />
<path
   style="fill:#4d4d4d;stroke-width:1.1708014"
   id="path46"
   d="m 17.454545,22.115183 c 0,0 0,0 0,0 h -0.218181 c 0,0 0,0 0,0 V 24 c 0,0 0,0 0,0 h 4.145455 c 0,0 0,0 0,0 v -1.005237 c 0,-0.502616 -0.436364,-1.005234 -0.872728,-1.005234 h -0.654546 c 0,0 0,0 0,0 v -3.39267 h -2.4 z"
   class="st4" />
<polygon
   style="fill:#4d4d4d"
   transform="matrix(1.0909091,0,0,1.2565445,-1.7454545,-2.8900524)"
   id="polygon48"
   points="17.1,3.4 17.1,5.7 17.1,5.8 17.1,2.3 "
   class="st4" />
<rect
   id="rect50"
   height="2.5"
   width="0"
   class="st4"
   y="8.8"
   x="17.1" />
<rect
   id="rect52"
   height="0.7"
   width="0"
   class="st4"
   y="12"
   x="17.1" />
<polygon
   style="fill:#f1f0ef"
   transform="matrix(1.0909091,0,0,1.2565445,-1.7454545,-2.8900524)"
   id="polygon54"
   points="8.1,6.3 8.1,6.8 8.1,8.8 8.1,5.8 "
   class="st0" />
<polygon
   style="fill:#f1f0ef"
   transform="matrix(1.0909091,0,0,1.2565445,-1.7454545,-2.8900524)"
   id="polygon56"
   points="16.5,17.2 16.5,17.1 "
   class="st0" />
<polygon
   style="fill:#f1f0ef"
   transform="matrix(1.0909091,0,0,1.2565445,-1.7454545,-2.8900524)"
   id="polygon58"
   points="16.5,11.3 17.1,12 17.1,11.3 "
   class="st0" />
<path
   style="fill:#b3b3b3;stroke-width:1.1708014"
   id="path60"
   d="m 16.472727,22.115183 h -0.218182 c 0,0 0,0 0,0 v -5.151831 c -0.763636,0 -1.418181,-0.25131 -1.963636,-0.628273 C 14.181819,16.209425 14.072727,16.209425 13.854545,16.08377 13.527273,15.832461 13.2,15.455498 12.872727,15.204188 12.763636,15.078534 12.654545,15.078534 12.654545,14.827225 L 12.327273,14.324607 V 14.198953 H 12.218181 L 12,13.947645 v 0 0 l -0.218181,0.251308 h -0.109092 v 0.125654 l -0.327272,0.502618 C 11.236364,14.95288 11.236364,15.078534 11.127273,15.204188 10.8,15.581152 10.472727,15.832461 10.145455,16.08377 10.036364,16.209425 9.9272727,16.335079 9.7090909,16.335079 9.0545455,16.712042 8.4,16.837696 7.6363636,16.963352 v 5.151831 c 0,0 0,0 0,0 H 7.5272727 c 0,0 0,0 0,0 V 24 c 0,0 0,0 0,0 h 4.1454543 c 0,0 0,0 0,0 v -1.005237 c 0,-0.502616 -0.436363,-1.005234 -0.872727,-1.005234 h -0.654545 c 0,0 0,0 0,0 v -5.65445 L 12,16.586387 v 0 0 0 0 l 1.854545,-0.251308 v 5.65445 c 0,0 0,0 0,0 H 13.2 c -0.436364,0 -0.872727,0.502618 -0.872727,1.005234 V 24 c 0,0 0,0 0,0 h 4.145454 c 0,0 0,0 0,0 v -1.884817 c 0.109092,0 0,0 0,0 z"
   class="st3" />
<rect
   id="rect62"
   height="0"
   width="0.7"
   class="st0"
   transform="matrix(0.7634 -0.6459 0.6459 0.7634 -3.4812 13.7871)"
   y="11.6"
   x="16.7" />
<path
   style="fill:#e50012;stroke-width:1.1708014"
   id="path64"
   d="M 10.581819,10.931937 9.1636364,12.942408 C 8.8363636,13.445026 8.2909091,13.82199 7.6363636,13.82199 H 4.5818181 l 1.309091,-1.884817 h -2.509091 l -2.290909,3.141361 2.290909,3.141361 h 2.509091 l -1.309091,-1.884816 h 3.0545455 c 1.2,0 2.4000004,-0.628273 3.1636364,-1.759163 L 12,12.942408 Z"
   class="st1" />
<path
   style="fill:#e50012;stroke-width:1.1708014"
   id="path66"
   d="m 19.963636,11.937173 h -2.509091 l 1.309091,1.884817 h -2.4 c -0.545455,0 -1.090909,-0.251309 -1.527272,-0.879582 L 10.363636,6.6596859 C 9.6,5.6544503 8.5090909,5.026178 7.3090909,5.026178 H 4.2545455 v 2.513089 h 3.0545454 c 0.5454546,0 1.0909091,0.2513089 1.4181818,0.7539267 L 13.2,14.575916 c 0.763636,1.13089 1.963636,1.759163 3.163636,1.759163 h 2.4 l -1.309091,1.884816 h 2.509091 l 2.290909,-3.141361 z"
   class="st1" />
</svg>