<?xml version="1.0" encoding="UTF-8" standalone="no"?>
<svg
   xmlns:dc="http://purl.org/dc/elements/1.1/"
   xmlns:cc="http://creativecommons.org/ns#"
   xmlns:rdf="http://www.w3.org/1999/02/22-rdf-syntax-ns#"
   xmlns:svg="http://www.w3.org/2000/svg"
   xmlns="http://www.w3.org/2000/svg"
   xml:space="preserve"
   style="enable-background:new 0 0 24 24;"
   viewBox="0 0 24 24"
   y="0px"
   x="0px"
   id="レイヤー_1"
   version="1.1"><metadata
   id="metadata19"><rdf:RDF><cc:Work
       rdf:about=""><dc:format>image/svg+xml</dc:format><dc:type
         rdf:resource="http://purl.org/dc/dcmitype/StillImage" /><dc:title></dc:title></cc:Work></rdf:RDF></metadata><defs
   id="defs17" />
<style
   id="style2"
   type="text/css">
	.st0{fill:#F1F0EF;}
	.st1{fill:#C8C9CA;}
	.st2{fill:#717071;}
	.st3{fill:#E50012;}
</style>

<path
   style="fill:#c8c9ca;stroke-width:1.17818463"
   id="path6"
   d="m 13.84186,0 v 4.2279792 h 1.339536 v 0.746114 h -1.897675 c -0.223256,0 -0.334884,0.1243524 -0.55814,0.2487047 V 5.0984456 l -1.00465,-0.1243524 c -0.334884,0 -0.55814,0.2487047 -0.669768,0.4974094 L 10.381396,13.803109 H 9.9348837 l -0.2232558,2.487047 2.3441851,0.248704 0.223256,-2.487047 h -0.334882 l 0.558138,-5.4715021 v 5.7202071 c 0,0.49741 0.334884,0.994819 0.893024,0.994819 h 0.558139 v 6.715025 c 0,0 0,0 0,0 h -0.669767 c -0.446512,0 -0.893024,0.49741 -0.893024,0.994819 V 24 c 0,0 0,0 0,0 h 4.241862 c 0,0 0,0 0,0 v -1.865284 c 0,0 0,0 0,0 h -0.223256 c 0,0 0,0 0,0 v -6.715027 h 0.669766 V 5.5958549 4.9740932 4.2279792 1.3678757 0 Z"
   class="st1" />
<path
   style="fill:#717071;stroke-width:1.17818463"
   id="path8"
   d="M 23.776744,13.678757 H 23.330232 L 22.548837,5.4715026 c 0,-0.373057 -0.334884,-0.6217617 -0.669768,-0.4974094 l -1.00465,0.1243524 V 5.2227979 C 20.762791,5.0984456 20.539535,4.9740932 20.316279,4.9740932 H 18.418604 V 4.2279792 H 19.75814 V 0 h -2.902327 v 15.399798 h 0.334884 v 6.740449 0 h -0.111628 v 0 1.865286 0 h 4.241862 v 0 -0.994819 c 0,-0.497409 -0.446833,-1.011756 -0.893024,-0.994819 H 19.75814 v 0 -6.740449 h 0.558139 c 0.446512,0 0.893024,-0.60187 0.893024,-1.223633 V 8.4559586 l 0.558138,5.4715024 H 21.432559 L 21.655813,16.414508 24,16.165803 Z"
   class="st2" />
<polygon
   style="fill:#e50012"
   transform="matrix(1.1162791,0,0,1.2435233,-1.8976744,-2.8601037)"
   id="polygon10"
   points="12.8,10 10.8,10 10.8,7.5 3.7,7.5 3.7,18.8 10.8,18.8 10.8,13.8 12.8,13.8 12.8,20.8 1.7,20.8 1.7,5.5 12.8,5.5 "
   class="st3" />
<polygon
   style="fill:#e50012"
   transform="matrix(1.1162791,0,0,1.2435233,-1.8976744,-2.8601037)"
   id="polygon12"
   points="4.5,12 6.5,14.5 8.8,14.5 7.6,13 16.6,13 16.6,11 7.6,11 8.8,9.5 6.5,9.5 "
   class="st3" />
</svg>