<?xml version="1.0" encoding="UTF-8" standalone="no"?>
<svg
   xmlns:dc="http://purl.org/dc/elements/1.1/"
   xmlns:cc="http://creativecommons.org/ns#"
   xmlns:rdf="http://www.w3.org/1999/02/22-rdf-syntax-ns#"
   xmlns:svg="http://www.w3.org/2000/svg"
   xmlns="http://www.w3.org/2000/svg"
   xml:space="preserve"
   style="enable-background:new 0 0 24 24;"
   viewBox="0 0 24 24"
   y="0px"
   x="0px"
   id="レイヤー_1"
   version="1.1"><metadata
   id="metadata21"><rdf:RDF><cc:Work
       rdf:about=""><dc:format>image/svg+xml</dc:format><dc:type
         rdf:resource="http://purl.org/dc/dcmitype/StillImage" /><dc:title></dc:title></cc:Work></rdf:RDF></metadata><defs
   id="defs19" />
<style
   id="style2"
   type="text/css">
	.st0{fill:#F1F0EF;}
	.st1{fill:#595757;}
	.st2{fill:#1EAA39;}
</style>

<rect
   style="fill:#595757;stroke-width:1.04697835"
   id="rect6"
   height="4.1973095"
   width="2.7500002"
   class="st1"
   y="-2.220446e-15"
   x="10.574075" />
<rect
   style="fill:#595757;stroke-width:1.04697835"
   id="rect8"
   height="2.2600896"
   width="4.9907413"
   class="st1"
   y="21.73991"
   x="18.00926" />
<path
   style="fill:#595757;stroke-width:1.04697835"
   id="path10"
   d="m 21.574074,23.139014 -1.935185,-8.394619 c 0.203704,-0.322869 0.305555,-0.64574 0.305555,-0.96861 0,-0.645739 -0.407406,-1.29148 -0.916666,-1.506726 L 17.296296,4.8430495 C 17.5,4.5201795 17.601852,4.1973096 17.601852,3.8744396 c 0,-0.96861 -0.712963,-1.7219732 -1.62963,-1.7219732 -0.916666,0 -1.62963,0.7533632 -1.62963,1.7219732 0,0.6457399 0.305556,1.1838566 0.916668,1.5067265 l 1.731481,7.4260099 c -0.203703,0.32287 -0.305555,0.645739 -0.305555,0.968609 0,0.645741 0.305555,1.183857 0.916666,1.506726 l 1.935186,8.502244 z"
   class="st1" />
<path
   style="fill:#595757;stroke-width:1.04697835"
   id="path12"
   d="m 9.5555557,3.7668162 c 0,-0.9686098 -0.712963,-1.721973 -1.6296296,-1.721973 -0.9166668,0 -1.6296298,0.7533632 -1.6296298,1.721973 0,0.32287 0.1018519,0.7533633 0.3055556,0.9686099 L 4.8703704,12.161435 c -0.5092592,0.32287 -0.9166666,0.860987 -0.9166666,1.506727 0,0.32287 0.1018518,0.753364 0.3055555,0.96861 L 2.6296296,21.632288 H 1 v 2.403907 H 5.9907408 V 21.632288 H 4.8703704 l 1.5277778,-6.457399 c 0.5092593,-0.215247 0.9166667,-0.753363 0.9166667,-1.399104 0,-0.32287 -0.1018518,-0.645739 -0.3055556,-0.968609 L 8.7407409,5.2735428 C 9.2500001,5.0582962 9.5555557,4.4125562 9.5555557,3.7668162 Z"
   class="st1" />
<path
   style="fill:#1eaa39;stroke-width:0.9669624"
   id="path14"
   d="M 18.946237,20 C 16.150538,20 14,21.826087 14,24 h 10 c -0.107527,-2.173913 -2.365591,-4 -5.053763,-4"
   class="st2" />
</svg>