<?xml version="1.0" encoding="UTF-8" standalone="no"?>
<svg
   xmlns:dc="http://purl.org/dc/elements/1.1/"
   xmlns:cc="http://creativecommons.org/ns#"
   xmlns:rdf="http://www.w3.org/1999/02/22-rdf-syntax-ns#"
   xmlns:svg="http://www.w3.org/2000/svg"
   xmlns="http://www.w3.org/2000/svg"
   xml:space="preserve"
   style="enable-background:new 0 0 24 24;"
   viewBox="0 0 24 24"
   y="0px"
   x="0px"
   id="レイヤー_1"
   version="1.1"><metadata
   id="metadata21"><rdf:RDF><cc:Work
       rdf:about=""><dc:format>image/svg+xml</dc:format><dc:type
         rdf:resource="http://purl.org/dc/dcmitype/StillImage" /><dc:title></dc:title></cc:Work></rdf:RDF></metadata><defs
   id="defs19" />
<style
   id="style2"
   type="text/css">
	.st0{fill:#F1F0EF;}
	.st1{fill:#E50012;}
	.st2{fill:#4D4D4D;}
</style>

<polygon
   style="fill:#e50012"
   transform="matrix(1.1594203,0,0,1.1374408,-1.6231883,-0.56872037)"
   id="polygon6"
   points="15.7,3.7 15.7,15.2 17.7,15.2 17.7,3.7 19.2,4.9 19.2,2.6 16.7,0.5 14.3,2.6 14.3,4.9 "
   class="st1" />
<g
   transform="matrix(1.1594203,0,0,1.1374408,-1.6231883,-0.56872037)"
   id="g12">
	<path
   style="fill:#4d4d4d"
   id="path8"
   d="M 9.8,19.9 H 9.1 c 0,0 0,0 0,0 l 1.2,-5.4 h 0.1 V 6.3 H 9.2 V 5.7 h 1.2 V 2.3 H 5.1 V 5.7 H 6.3 V 6.3 H 4.6 C 4.4,6.3 4.3,6.4 4.1,6.5 V 6.4 L 3.3,6.3 C 3,6.3 2.7,6.5 2.7,6.8 L 2,13.4 H 1.6 l -0.2,2 2.1,0.2 0.2,-2 H 3.4 L 3.9,9.2 v 4.6 c 0,0.4 0.3,0.8 0.8,0.8 H 5 L 3.8,20 c 0,0 0,0 0,0 H 3 c -0.4,0 -0.8,0.4 -0.8,0.8 v 0.8 c 0,0 0,0 0,0 H 6 c 0,0 0,0 0,0 v -1.5 c 0,0 0,0 0,0 v 0 c 0,0 0,0 0,0 l 1.2,-5.4 h 0.9 l -1.2,5.4 c 0,0 0,0 0,0 H 6.8 c 0,0 0,0 0,0 v 1.5 c 0,0 0,0 0,0 h 3.8 c 0,0 0,0 0,0 v -0.2 -0.6 c 0,-0.1 0,-0.3 -0.1,-0.4 -0.2,-0.3 -0.4,-0.5 -0.7,-0.5 z"
   class="st2" />
	<polygon
   style="fill:#4d4d4d"
   id="polygon10"
   points="13.3,5 13.5,3.3 13.9,3.3 14.1,1.3 12,1.1 11.8,3.1 12.1,3.1 11.8,5 "
   class="st2" />
</g>
<polygon
   style="fill:#e50012"
   transform="matrix(1.1594203,0,0,1.1374408,-1.6231883,-0.56872037)"
   id="polygon14"
   points="15,7.5 13,7.5 13,18.8 20.1,18.8 20.1,7.5 18.4,7.5 18.4,5.5 22.1,5.5 22.1,20.8 11,20.8 11,5.5 15,5.5 "
   class="st1" />
</svg>