<?xml version="1.0" encoding="UTF-8" standalone="no"?>
<svg
   xmlns:dc="http://purl.org/dc/elements/1.1/"
   xmlns:cc="http://creativecommons.org/ns#"
   xmlns:rdf="http://www.w3.org/1999/02/22-rdf-syntax-ns#"
   xmlns:svg="http://www.w3.org/2000/svg"
   xmlns="http://www.w3.org/2000/svg"
   xml:space="preserve"
   style="enable-background:new 0 0 24 24;"
   viewBox="0 0 24 24"
   y="0px"
   x="0px"
   id="レイヤー_1"
   version="1.1"><metadata
   id="metadata17"><rdf:RDF><cc:Work
       rdf:about=""><dc:format>image/svg+xml</dc:format><dc:type
         rdf:resource="http://purl.org/dc/dcmitype/StillImage" /><dc:title></dc:title></cc:Work></rdf:RDF></metadata><defs
   id="defs15"><linearGradient
     id="linearGradient4584"><stop
       id="stop4586"
       offset="0"
       style="stop-color:#ffffff;stop-opacity:0.28169015;" /><stop
       id="stop4588"
       offset="1"
       style="stop-color:#00aa00;stop-opacity:1;" /></linearGradient></defs>
<style
   id="style2"
   type="text/css">
	.st0{fill:#F1F0EF;}
	.st1{fill:#595757;}
	.st2{fill:#E50012;}
</style>



<path
   id="path4639-5-7"
   d="M 12 0 C 5.9362098 0 1 4.9362098 1 11 C 1 12.393078 1.2779566 13.718048 1.7539062 14.945312 L 3.8378906 14.945312 C 3.3311718 13.892701 3.0082212 12.733865 2.9414062 11.5 L 6.0996094 11.5 C 6.1282224 12.697671 6.3086903 13.855626 6.6074219 14.945312 L 7.0371094 14.945312 L 7.0488281 9.5449219 L 7.2011719 9.5449219 C 7.298582 8.7303555 7.4664973 7.9491893 7.6972656 7.2109375 C 8.8156679 7.6579647 10.119772 7.912421 11.5 7.9628906 L 11.5 9.5449219 L 12.5 9.5449219 L 12.5 7.9648438 C 13.88023 7.913178 15.177408 7.6525397 16.292969 7.2089844 C 16.521514 7.948064 16.686226 8.7300765 16.78125 9.5449219 L 16.845703 9.5449219 L 16.84375 10.277344 C 16.848269 10.35203 16.858058 10.424813 16.861328 10.5 L 16.84375 10.5 L 16.841797 11.5 L 16.855469 11.5 C 16.853569 11.562818 16.844563 11.623019 16.841797 11.685547 L 16.833984 14.943359 L 17.361328 14.943359 C 17.663314 13.854721 17.847288 12.697659 17.878906 11.5 L 21.058594 11.5 C 20.991836 12.732786 20.669438 13.890961 20.164062 14.943359 L 22.246094 14.941406 C 22.721605 13.715071 23 12.391983 23 11 C 23 4.9362098 18.06379 0 12 0 z M 12.5 1.9667969 C 13.934805 2.7862347 15.138904 4.2623887 15.919922 6.1308594 C 14.944945 6.5370894 13.775508 6.804615 12.5 6.8613281 L 12.5 1.9667969 z M 11.5 1.9921875 L 11.5 6.859375 C 10.230725 6.8011543 9.0525787 6.5408969 8.0742188 6.1347656 C 8.8594924 4.273399 10.064699 2.8040674 11.5 1.9921875 z M 9.4472656 2.2851562 C 8.5058458 3.1895091 7.7309122 4.3519992 7.1640625 5.6894531 C 6.5306236 5.3183174 6.0545195 4.8804401 5.7441406 4.4160156 C 6.7772344 3.4343427 8.0395812 2.6949899 9.4472656 2.2851562 z M 14.574219 2.2910156 C 15.975659 2.7027687 17.232905 3.4408172 18.261719 4.4199219 C 17.95024 4.8815517 17.459295 5.312139 16.828125 5.6835938 C 16.268867 4.3536903 15.503314 3.1964811 14.574219 2.2910156 z M 4.9589844 5.2539062 C 5.4025917 5.8540405 6.0263246 6.3559111 6.765625 6.7675781 C 6.3931754 7.9294386 6.1672014 9.1887696 6.1113281 10.5 L 2.9414062 10.5 C 3.0490169 8.5127664 3.7808422 6.6972061 4.9589844 5.2539062 z M 19.042969 5.2558594 C 20.220109 6.6988163 20.951036 8.5137378 21.058594 10.5 L 17.869141 10.5 C 17.816573 9.1899562 17.593199 7.931696 17.224609 6.7695312 C 17.969167 6.3573492 18.599848 5.8558758 19.042969 5.2558594 z "
   style="color:#000000;font-style:normal;font-variant:normal;font-weight:normal;font-stretch:normal;font-size:medium;line-height:normal;font-family:sans-serif;font-variant-ligatures:normal;font-variant-position:normal;font-variant-caps:normal;font-variant-numeric:normal;font-variant-alternates:normal;font-feature-settings:normal;text-indent:0;text-align:start;text-decoration:none;text-decoration-line:none;text-decoration-style:solid;text-decoration-color:#000000;letter-spacing:normal;word-spacing:normal;text-transform:none;writing-mode:lr-tb;direction:ltr;text-orientation:mixed;dominant-baseline:auto;baseline-shift:baseline;text-anchor:start;white-space:normal;shape-padding:0;clip-rule:nonzero;display:inline;overflow:visible;visibility:visible;opacity:1;isolation:auto;mix-blend-mode:normal;color-interpolation:sRGB;color-interpolation-filters:linearRGB;solid-color:#000000;solid-opacity:1;vector-effect:none;fill:#595757;fill-opacity:1;fill-rule:nonzero;stroke:none;stroke-width:1.91515982;stroke-linecap:square;stroke-linejoin:round;stroke-miterlimit:4;stroke-dasharray:none;stroke-dashoffset:0;stroke-opacity:1;marker:none;color-rendering:auto;image-rendering:auto;shape-rendering:auto;text-rendering:auto;enable-background:accumulate" /><path
   id="path4692-0-2"
   d="m 12.000053,23.565603 11.56564,-7.726246 -7.674943,0.0011 0.0092,-5.406024 -7.8088733,0.0011 -0.00939,5.406017 -7.64736512,5.51e-4 z"
   style="fill:#e50012;fill-opacity:1;stroke:#e50012;stroke-width:0.86881185;stroke-linecap:butt;stroke-linejoin:round;stroke-miterlimit:4;stroke-dasharray:none;stroke-opacity:1" /></svg>