<?xml version="1.0" encoding="UTF-8" standalone="no"?>
<svg
   xmlns:dc="http://purl.org/dc/elements/1.1/"
   xmlns:cc="http://creativecommons.org/ns#"
   xmlns:rdf="http://www.w3.org/1999/02/22-rdf-syntax-ns#"
   xmlns:svg="http://www.w3.org/2000/svg"
   xmlns="http://www.w3.org/2000/svg"
   xml:space="preserve"
   style="enable-background:new 0 0 24 24;"
   viewBox="0 0 24 24"
   y="0px"
   x="0px"
   id="レイヤー_1"
   version="1.1"><metadata
   id="metadata19"><rdf:RDF><cc:Work
       rdf:about=""><dc:format>image/svg+xml</dc:format><dc:type
         rdf:resource="http://purl.org/dc/dcmitype/StillImage" /><dc:title></dc:title></cc:Work></rdf:RDF></metadata><defs
   id="defs17" />
<style
   id="style2"
   type="text/css">
	.st0{fill:#F1F0EF;}
	.st1{fill:#595757;}
</style>

<g
   transform="matrix(1.4102564,0,0,1.1214953,-5.2051281,-1.5700934)"
   id="g12">
	<rect
   style="fill:#595757"
   id="rect6"
   height="3"
   width="1.5"
   class="st1"
   y="1.4"
   x="11.3" />
	<path
   style="fill:#595757"
   id="path8"
   d="M 20,10.2 C 20,9.7 19.7,9.3 19.3,9.2 L 18,6.5 C 18.1,6.4 18.1,6.2 18.1,6 18.1,5.4 17.6,4.9 17,4.9 16.6,4.9 16.2,5.1 16.1,5.5 H 12.8 V 5 H 11.3 V 5.4 H 6.6 C 6.4,5.1 6.1,4.9 5.6,4.9 5,4.9 4.6,5.4 4.6,6 4.6,6.5 4.9,6.9 5.3,7 L 6.6,9.7 C 6.5,9.8 6.5,10 6.5,10.2 c 0,0.2 0.1,0.4 0.2,0.6 l -1,1.9 H 4.4 v 1.5 l 2.2,0.1 1.6,-3 C 8.5,11.1 8.7,10.8 8.7,10.4 8.7,9.9 8.4,9.5 8,9.4 L 6.9,7 h 4.4 v 5.3 h -1 v 2.3 h 3.5 v -2.3 h -1 V 7 h 3.7 v 0 h 0.1 l 1.3,2.7 c -0.1,0.1 -0.1,0.3 -0.1,0.5 0,0.2 0.1,0.4 0.2,0.6 l -1,1.9 h -0.89151 c -0.2,-0.2 -0.5,-0.4 -0.8,-0.4 -0.6,0 -1.1,0.5 -1.1,1.1 0,0.2 0.1,0.4 0.2,0.6 l -1.237377,2.7 c -0.3,0.2 -0.6,0.5 -0.6,1 0,0.5 0.3,0.8 0.7,1 l 1.837377,2.7 h -1.5 v 1.4 h 3.5 v -1.4 h -0.5 l -1.937377,-3.1 c 0.1,-0.2 0.1,-0.3 0.1,-0.5 0,-0.2 -0.1,-0.4 -0.2,-0.6 l 1.237377,-2.8 c 0.1,-0.1 0.2,-0.1 0.2,-0.2 H 17.8 l 1.6,-3 c 0.4,-0.3 0.6,-0.6 0.6,-1 z"
   class="st1" />
	<path
   style="fill:#595757"
   id="path10"
   d="m 8.2626233,18.2 c 0,-0.2 0.1,-0.3 0.1,-0.5 0,-0.2 -0.1,-0.4 -0.2,-0.6 L 9.4,14.3 c 0.3,-0.2 0.5,-0.5 0.5,-0.9 0,-0.6 -0.5,-1.1 -1.1,-1.1 -0.6,0 -1.1,0.5 -1.1,1.1 0,0.2 0.1,0.4 0.2,0.6 l -1.2373767,2.7 c -0.3,0.2 -0.6,0.5 -0.6,1 0,0.4 0.3,0.8 0.7,1 L 8.6,21.4 H 7.2 v 1.4 h 3.5 v -1.4 h -0.5 z"
   class="st1" />
</g>
</svg>