<?xml version="1.0" encoding="UTF-8" standalone="no"?>
<svg
   xmlns:dc="http://purl.org/dc/elements/1.1/"
   xmlns:cc="http://creativecommons.org/ns#"
   xmlns:rdf="http://www.w3.org/1999/02/22-rdf-syntax-ns#"
   xmlns:svg="http://www.w3.org/2000/svg"
   xmlns="http://www.w3.org/2000/svg"
   xml:space="preserve"
   style="enable-background:new 0 0 24 24;"
   viewBox="0 0 24 24"
   y="0px"
   x="0px"
   id="レイヤー_1"
   version="1.1"><metadata
   id="metadata21"><rdf:RDF><cc:Work
       rdf:about=""><dc:format>image/svg+xml</dc:format><dc:type
         rdf:resource="http://purl.org/dc/dcmitype/StillImage" /><dc:title></dc:title></cc:Work></rdf:RDF></metadata><defs
   id="defs19" />
<style
   id="style2"
   type="text/css">
	.st0{fill:#F1F0EF;}
	.st1{fill:#9E9E9F;}
	.st2{opacity:0.5;}
	.st3{fill:#2CA6E0;}
	.st4{fill:#E50012;}
</style>

<polygon
   style="fill:#9e9e9f"
   transform="matrix(1.1164945,0,0,1.182266,-1.4514429,-2.4827586)"
   id="polygon6"
   points="2.3,15.8 2.3,13.7 3.6,13.7 3.6,12.9 2.3,12.9 2.3,10.8 3.6,10.8 3.6,10.1 2.3,10.1 2.3,7.9 3.6,7.9 3.6,7.2 2.3,7.2 2.3,5 3.6,5 3.6,4.3 2.3,4.3 2.3,2.1 1.3,2.1 1.3,22.4 22.7,22.4 22.7,21.4 2.3,21.4 2.3,19.4 3.6,19.4 3.6,18.7 2.3,18.7 2.3,16.5 3.6,16.5 3.6,15.8 "
   class="st1" />
<g
   style="opacity:0.5"
   transform="matrix(1.0682209,0,0,1.3311499,-0.35543556,-2.1587325)"
   id="g12"
   class="st2">
	<g
   id="g10">
		<path
   style="fill:#2ca6e0"
   id="path8"
   d="M 11.1,18.9 C 9.5,18.9 9,16.1 8.3,12.5 8,10.6 7.4,7.6 6.8,7.3 6.2,7.6 5.7,11.5 5.5,13.1 5.4,14 5.3,14.8 5.2,15.4 L 3.8,15.2 C 3.9,14.6 4,13.8 4.1,12.9 4.6,9.3 5,5.8 6.9,5.8 c 0,0 0,0 0,0 1.6,0 2.1,2.8 2.8,6.4 0.3,1.7 0.8,4.5 1.3,5.1 0.5,-0.8 0.9,-4.4 1.2,-6.8 0.6,-5.4 0.9,-8.1 2.5,-8.1 1.6,0 2,2.8 2.6,6.6 0.3,2 0.9,6.1 1.6,6.3 1,-0.6 1.8,-7.9 2.1,-10.6 0.2,-1.4 0.3,-2.4 0.4,-3 L 22.8,2 C 22.7,2.5 22.6,3.6 22.4,4.9 21.5,13 20.8,16.7 19,16.7 17.1,16.7 16.6,13.2 16,9.2 15.7,7.3 15.3,4.6 14.8,3.9 c -0.5,0.9 -0.9,4.4 -1.1,6.8 -0.7,5.4 -1,8.2 -2.6,8.2 z"
   class="st3" />
	</g>
</g>

<path
   d="m 3.0999463,20.780889 -0.7465684,-7.867454 7.9612811,0.07223 -2.0506656,2.763741 c 3.3064086,2.352737 5.4901676,2.263431 7.9462886,0.232158 2.024,-1.673914 2.801372,-5.171067 0.772498,-7.5481674 C 15.045166,6.1632499 12.257127,5.8580082 10.702802,6.5764301 9.1398191,7.2988636 8.1834449,7.9364187 7.4804651,8.6353765 7.1048395,9.430114 5.193672,9.104608 4.4242994,8.7270448 3.6549212,8.3494759 3.3326989,7.2788033 3.756345,6.507623 4.3653149,5.3137296 5.1863552,4.2361677 6.1855899,3.3393513 10.531214,-0.56086338 16.641002,0.33097593 20.400625,4.5737041 24.160266,8.8164381 23.676217,15.470891 19.330731,19.371169 14.985106,23.271372 9.0151988,22.856035 5.2610547,18.626512 Z"
   style="fill:#e50012;fill-opacity:1;stroke:none;stroke-width:1.00333929;stroke-miterlimit:4;stroke-dasharray:none;stroke-opacity:1"
   id="path4173" /></svg>