<?xml version="1.0" encoding="UTF-8" standalone="no"?>
<svg
   xmlns:dc="http://purl.org/dc/elements/1.1/"
   xmlns:cc="http://creativecommons.org/ns#"
   xmlns:rdf="http://www.w3.org/1999/02/22-rdf-syntax-ns#"
   xmlns:svg="http://www.w3.org/2000/svg"
   xmlns="http://www.w3.org/2000/svg"
   xml:space="preserve"
   style="enable-background:new 0 0 24 24;"
   viewBox="0 0 24 24"
   y="0px"
   x="0px"
   id="レイヤー_1"
   version="1.1"><metadata
   id="metadata29"><rdf:RDF><cc:Work
       rdf:about=""><dc:format>image/svg+xml</dc:format><dc:type
         rdf:resource="http://purl.org/dc/dcmitype/StillImage" /><dc:title></dc:title></cc:Work></rdf:RDF></metadata><defs
   id="defs27" />
<style
   id="style2"
   type="text/css">
	.st0{fill:#F1F0EF;}
	.st1{fill:#595757;}
	.st2{fill:#9E9E9F;}
	.st3{fill:#B7331B;}
	.st4{fill:#E50012;}
</style>

<path
   style="fill:#595757;stroke-width:0.93933642"
   id="path6"
   d="m 19.332585,22.744215 -1.2,-4.038333 c 0.1,-0.176471 0.2,-0.264706 0.2,-0.441176 0,-0.352941 -0.2,-0.705882 -0.6,-0.794117 l -1.2,-3.970589 c 0.1,-0.17647 0.2,-0.352941 0.2,-0.529411 0,-0.529413 -0.5,-0.970589 -1.1,-0.970589 -0.6,0 -1.1,0.441176 -1.1,0.970589 0,0.352941 0.2,0.617646 0.5,0.794117 l 1.2,4.058824 c -0.1,0.17647 -0.2,0.35294 -0.2,0.529411 0,0.352941 0.3,0.705883 0.6,0.882353 l 1.1,3.529412 h -0.7 V 24 h 3.5 v -1.255785 z"
   class="st1" />
<path
   style="fill:#595757;stroke-width:0.94280905"
   id="path8"
   d="m 9.5685448,12.977778 c 0,-0.533334 -0.5,-0.977778 -1.1,-0.977778 -0.6,0 -1.1,0.444444 -1.1,0.977778 0,0.177778 0.1,0.355555 0.2,0.533333 l -1.2,4 c -0.3,0.177778 -0.6,0.444445 -0.6,0.8 0,0.177778 0.1,0.355555 0.2,0.444445 l -1.2,4 h -1.2 V 24 h 3.5 v -1.244444 h -0.8 l 1.1,-3.555556 c 0.4,-0.177778 0.6,-0.444444 0.6,-0.888889 0,-0.177778 -0.1,-0.355555 -0.2,-0.533333 l 1.2,-4.088889 c 0.4,-0.08889 0.6,-0.355556 0.6,-0.711111 z"
   class="st1" />
<path
   style="fill:#9e9e9f;stroke-width:1.12244928"
   id="path10"
   d="m 17.499998,6.3861363 c 0,3.0306123 -2.469389,5.4999977 -5.500003,5.4999977 -3.0306087,0 -5.4999978,-2.3571404 -5.4999978,-5.4999977 0,-3.0306122 2.4693891,-5.50000034 5.4999978,-5.50000034 3.030614,0 5.500003,2.46938814 5.500003,5.50000034"
   class="st2" />
<path
   style="fill:#595757;stroke-width:1.12244928"
   id="path12"
   d="m 6.4999972,6.3861363 c 0,3.0306123 2.4693891,5.4999977 5.4999978,5.4999977 V 6.3861363 Z"
   class="st1" />
<path
   style="fill:#595757;stroke-width:1.12244928"
   id="path14"
   d="M 11.999995,0.88613596 V 6.3861363 h 5.500003 c 0,-3.0306122 -2.469389,-5.50000034 -5.500003,-5.50000034"
   class="st1" />
<line
   style="fill:#b7331b"
   id="line16"
   y2="5.9000001"
   x2="17.63258"
   y1="5.9000001"
   x1="21.932579"
   class="st3" />

<line
   style="fill:#b7331b"
   id="line20"
   y2="5.9000001"
   x2="6.4325919"
   y1="5.9000001"
   x1="2.1325917"
   class="st3" />

<path
   style="fill:#e50012;fill-opacity:1;stroke:#e50012;stroke-width:0.36719716;stroke-linecap:butt;stroke-linejoin:round;stroke-miterlimit:4;stroke-dasharray:none;stroke-opacity:1"
   d="M 0.18359935,6.2645846 3.8096977,12.816458 3.8089011,8.4277256 5.8163993,8.432997 V 4.5775716 L 3.808909,4.5722916 3.8086061,0.18354865 Z"
   id="path7863" /><path
   style="fill:#e50012;fill-opacity:1;stroke:#e50012;stroke-width:0.36719736;stroke-linecap:butt;stroke-linejoin:round;stroke-miterlimit:4;stroke-dasharray:none;stroke-opacity:1"
   d="m 23.816401,6.2645784 -3.581905,6.5518796 7.97e-4,-4.3887364 -2.051692,0.00528 V 4.5775637 l 2.051684,-0.00528 3.02e-4,-4.38874745 z"
   id="path7863-3" /></svg>