<?xml version="1.0" encoding="UTF-8" standalone="no"?>
<svg
   xml:space="preserve"
   style="enable-background:new 0 0 24 24;"
   viewBox="0 0 24 24"
   y="0px"
   x="0px"
   id="レイヤー_1"
   version="1.1"
   sodipodi:docname="yaw-moment-compensation.svg"
   inkscape:version="1.1.2 (0a00cf5339, 2022-02-04)"
   xmlns:inkscape="http://www.inkscape.org/namespaces/inkscape"
   xmlns:sodipodi="http://sodipodi.sourceforge.net/DTD/sodipodi-0.dtd"
   xmlns="http://www.w3.org/2000/svg"
   xmlns:svg="http://www.w3.org/2000/svg"
   xmlns:rdf="http://www.w3.org/1999/02/22-rdf-syntax-ns#"
   xmlns:cc="http://creativecommons.org/ns#"
   xmlns:dc="http://purl.org/dc/elements/1.1/"><sodipodi:namedview
   id="namedview15"
   pagecolor="#ffffff"
   bordercolor="#666666"
   borderopacity="1.0"
   inkscape:pageshadow="2"
   inkscape:pageopacity="0.0"
   inkscape:pagecheckerboard="0"
   showgrid="false"
   inkscape:zoom="32"
   inkscape:cx="34.78125"
   inkscape:cy="26.78125"
   inkscape:window-width="3840"
   inkscape:window-height="2075"
   inkscape:window-x="0"
   inkscape:window-y="0"
   inkscape:window-maximized="1"
   inkscape:current-layer="レイヤー_1" /><metadata
   id="metadata29"><rdf:RDF><cc:Work
       rdf:about=""><dc:format>image/svg+xml</dc:format><dc:type
         rdf:resource="http://purl.org/dc/dcmitype/StillImage" /></cc:Work></rdf:RDF></metadata><defs
   id="defs27" />
<style
   id="style2"
   type="text/css">
	.st0{fill:#F1F0EF;}
	.st1{fill:#595757;}
	.st2{fill:#9E9E9F;}
	.st3{fill:#B7331B;}
	.st4{fill:#E50012;}
</style>

<path
   id="path27834"
   style="color:#000000;fill:#d40000;stroke-width:1.11439;stroke-linecap:round;-inkscape-stroke:none"
   d="m 13.863281,6.7626868 v 3.4793812 c 1.907525,0.219012 3.883452,0.747135 5.158203,1.439819 0.844612,0.458951 1.476629,0.990837 1.839844,1.45746 0.363215,0.466625 0.447266,0.787159 0.447266,1.053957 0,0.266798 -0.08405,0.587331 -0.447266,1.053958 -0.363215,0.466626 -0.995232,0.998507 -1.839844,1.457458 -0.851093,0.462474 -1.911545,0.849698 -3.107422,1.12231 v 3.51025 c 1.570674,-0.309769 2.999787,-0.809463 4.220704,-1.472894 1.082012,-0.587952 2.008394,-1.30495 2.722656,-2.222571 0.714262,-0.917619 1.226562,-2.11779 1.226562,-3.448511 0,-1.330722 -0.5123,-2.533097 -1.226562,-3.450717 C 22.14316,9.8249657 21.216778,9.1123863 20.134766,8.5244266 18.400616,7.5821069 16.247459,6.9689319 13.863281,6.7626868 Z m -3.703125,0.00662 C 7.8064868,6.9820644 5.6800796,7.5923843 3.9648438,8.5244266 2.8828311,9.1123863 1.9564496,9.8249657 1.2421875,10.742587 0.52792536,11.660207 0.015625,12.862582 0.015625,14.193304 c 0,1.330721 0.51230036,2.530892 1.2265625,3.448511 0.7142621,0.917621 1.6406436,1.634619 2.7226563,2.222571 1.1367326,0.617685 2.4559318,1.091782 3.9003906,1.404542 V 17.752064 C 6.8002806,17.484784 5.8522989,17.125397 5.078125,16.70472 4.2335136,16.245769 3.601496,15.713888 3.2382812,15.247262 2.8750666,14.780635 2.7910156,14.460102 2.7910156,14.193304 c 0,-0.266798 0.084051,-0.587332 0.4472656,-1.053957 0.3632149,-0.466623 0.9952324,-0.998509 1.8398438,-1.45746 1.2573703,-0.683237 3.1982641,-1.20883 5.082031,-1.433205 z" /><g
   aria-label="Y"
   transform="matrix(1.0920611,0,0,0.63735911,0,0.02127125)"
   id="text21790"
   style="font-size:35.8452px;fill:#666666;stroke-width:0.896132"><path
     d="M -0.01986048,0.07642166 H 3.7781904 L 11.024242,10.822981 18.217785,0.07642166 h 3.798051 L 12.774495,13.763407 V 26.207712 H 9.22148 V 13.763407 Z"
     style="-inkscape-font-specification:'sans-serif, Normal'"
     id="path28001" /></g>








<text
   xml:space="preserve"
   style="font-style:normal;font-weight:normal;font-size:40px;line-height:1.25;font-family:sans-serif;fill:#000000;fill-opacity:1;stroke:none"
   x="4.0158567"
   y="5.6829429"
   id="text9246"><tspan
     sodipodi:role="line"
     id="tspan9244"
     x="4.0158567"
     y="5.6829429" /></text><path
   style="fill:#d40000;fill-opacity:1;stroke:#d40000;stroke-width:1.24964;stroke-linecap:butt;stroke-linejoin:round;stroke-miterlimit:4;stroke-dasharray:none;stroke-opacity:1"
   d="m 5.8781052,14.340426 v 8.972711 l 4.4111358,-4.673744 z"
   id="path28917" /><path
   style="fill:#d40000;fill-opacity:1;stroke:#d40000;stroke-width:1.24964;stroke-linecap:butt;stroke-linejoin:round;stroke-miterlimit:4;stroke-dasharray:none;stroke-opacity:1"
   d="m 18.156502,14.345986 v 8.972711 l -4.41113,-4.673744 z"
   id="path28917-9" /></svg>
