<?xml version="1.0" encoding="utf-8"?>
<!-- Generator: Adobe Illustrator 22.0.1, SVG Export Plug-In . SVG Version: 6.00 Build 0)  -->
<svg version="1.1" id="レイヤー_1" xmlns="http://www.w3.org/2000/svg" xmlns:xlink="http://www.w3.org/1999/xlink" x="0px"
	 y="0px" viewBox="0 0 24 24" style="enable-background:new 0 0 24 24;" xml:space="preserve">
<style type="text/css">
	.st0{fill:#F1F0EF;}
	.st1{fill:#E50012;}
	.st2{fill:#595757;}
</style>
<rect class="st0" width="24" height="24"/>
<path class="st1" d="M16.6,16.4L16.4,17c-0.1,0.4-0.3,0.7-0.5,1c-0.2,0.3-0.4,0.4-0.7,0.4c-0.5,0-0.7-0.5-0.4-1.4l2.4-7.7
	c0.3-1.1,0.5-2.1,0.3-2.8c-0.1-0.7-0.4-1.3-0.9-1.7c-0.5-0.4-1-0.7-1.7-0.9c-0.7-0.2-1.5-0.3-2.3-0.3c-1,0-1.9,0.1-2.8,0.4
	C9,4.2,8.2,4.5,7.6,5C6.9,5.4,6.4,5.8,5.9,6.4C5.5,6.9,5.2,7.4,5,7.9C4.8,8.6,4.8,9.1,5,9.5c0.2,0.4,0.6,0.6,1.2,0.6
	c0.6,0,1.1-0.2,1.6-0.5c0.4-0.4,0.7-0.8,0.9-1.4C8.9,7.6,8.8,7.2,8.6,7C8.4,6.7,8.1,6.6,7.7,6.5c0.5-0.4,1.1-0.6,1.7-0.8
	s1.5-0.3,2.4-0.3c0.5,0,1,0.1,1.3,0.3c0.3,0.2,0.6,0.5,0.7,0.8C14,6.8,14.1,7.2,14,7.7c0,0.5-0.1,0.9-0.3,1.5l-0.3,1
	c-0.9,0.2-1.7,0.5-2.5,0.6c-0.8,0.2-1.7,0.3-2.4,0.5c-0.8,0.2-1.5,0.4-2.3,0.6c-0.7,0.2-1.4,0.5-2,0.9c-0.6,0.4-1.1,0.8-1.6,1.4
	c-0.4,0.6-0.8,1.2-1,2.1c-0.4,1.4-0.4,2.5,0.2,3.3c0.5,0.8,1.6,1.2,3.3,1.2c0.7,0,1.4-0.1,2-0.3c0.7-0.2,1.3-0.4,1.9-0.8
	c0.6-0.3,1.1-0.7,1.6-1.1c0.5-0.4,0.9-0.9,1.2-1.3c-0.1,0.4-0.1,0.8-0.1,1.2c0,0.4,0.1,0.7,0.2,1c0.1,0.3,0.4,0.5,0.6,0.7
	c0.3,0.2,0.7,0.3,1.1,0.3c0.4,0,0.8-0.1,1.2-0.2c0.4-0.1,0.8-0.3,1.1-0.6c0.4-0.3,0.7-0.7,1-1.2c0.3-0.5,0.5-1.1,0.7-1.8l0.1-0.2
	H16.6z M11.8,15.7c-0.5,0.7-1.2,1.3-2.1,1.8c-0.9,0.5-1.7,0.8-2.6,0.8c-0.9,0-1.5-0.2-1.8-0.6c-0.3-0.4-0.4-1-0.1-1.7
	c0.2-0.6,0.5-1.1,0.9-1.6s0.9-0.8,1.6-1.1c0.6-0.3,1.4-0.6,2.4-0.9c0.9-0.3,2-0.6,3.2-0.9L11.8,15.7z"/>
<polygon class="st2" points="20.7,11.1 19.1,11.1 20.8,13.2 16.6,13.2 16.6,14.6 20.8,14.6 19.1,16.8 20.7,16.8 22.9,13.9 "/>
</svg>
