<?xml version="1.0" encoding="UTF-8" standalone="no"?>
<!-- Generator: Adobe Illustrator 22.0.1, SVG Export Plug-In . SVG Version: 6.00 Build 0)  -->

<svg
   xmlns:dc="http://purl.org/dc/elements/1.1/"
   xmlns:cc="http://creativecommons.org/ns#"
   xmlns:rdf="http://www.w3.org/1999/02/22-rdf-syntax-ns#"
   xmlns:svg="http://www.w3.org/2000/svg"
   xmlns="http://www.w3.org/2000/svg"
   xmlns:sodipodi="http://sodipodi.sourceforge.net/DTD/sodipodi-0.dtd"
   xmlns:inkscape="http://www.inkscape.org/namespaces/inkscape"
   version="1.1"
   id="レイヤー_1"
   x="0px"
   y="0px"
   viewBox="0 0 167.39999 184"
   xml:space="preserve"
   sodipodi:docname="choreonoid.svg"
   width="167.39999"
   height="184"
   inkscape:version="0.92.3 (2405546, 2018-03-11)"><metadata
   id="metadata45"><rdf:RDF><cc:Work
       rdf:about=""><dc:format>image/svg+xml</dc:format><dc:type
         rdf:resource="http://purl.org/dc/dcmitype/StillImage" /><dc:title></dc:title></cc:Work></rdf:RDF></metadata><defs
   id="defs43">
	
	
	
	
</defs><sodipodi:namedview
   pagecolor="#ffffff"
   bordercolor="#666666"
   borderopacity="1"
   objecttolerance="10"
   gridtolerance="10"
   guidetolerance="10"
   inkscape:pageopacity="0"
   inkscape:pageshadow="2"
   inkscape:window-width="1830"
   inkscape:window-height="1409"
   id="namedview41"
   showgrid="false"
   fit-margin-top="0"
   fit-margin-left="0"
   fit-margin-right="0"
   fit-margin-bottom="0"
   inkscape:zoom="1.0405644"
   inkscape:cx="87.2"
   inkscape:cy="73.499998"
   inkscape:window-x="310"
   inkscape:window-y="360"
   inkscape:window-maximized="0"
   inkscape:current-layer="レイヤー_1" />
<style
   type="text/css"
   id="style2">
	.st0{fill:#FFFFFF;}
	.st1{fill:#231815;}
	.st2{fill:#036EB8;}
	.st3{fill:#EA5514;}
</style>

<path
   style="fill:#231815"
   inkscape:connector-curvature="0"
   id="path28"
   d="m 167.4,110.2 c 0,-1.9 -1.5,-3.4 -3.4,-3.4 h -8 c -1.9,0 -3.4,1.5 -3.4,3.4 v 11.1 c 0,5.9 -4,12.8 -9.1,15.7 l -50.7,29.3 c -2.4,1.4 -5.7,2.2 -9.1,2.2 -3.4,0 -6.6,-0.8 -9.1,-2.2 L 23.9,137.1 c -5.1,-2.9 -9.1,-9.8 -9.1,-15.7 V 62.8 c 0,-5.9 4,-12.8 9.1,-15.7 L 74.6,17.8 c 2.4,-1.4 5.7,-2.2 9.1,-2.2 3.4,0 6.6,0.8 9.1,2.2 l 50.7,29.3 c 5.1,2.9 9.1,9.8 9.1,15.7 v 11.1 c 0,1.9 1.5,3.4 3.4,3.4 h 8 c 1.9,0 3.4,-1.5 3.4,-3.4 v -14 c 0,-9.1 -6.2,-19.8 -14,-24.3 l -4.9,-2.9 -6,2.9 -38.9,-22.5 -0.5,-6.7 -5.3,-3 C 94,1.2 89,0 83.8,0 78.6,0 73.5,1.2 69.8,3.4 L 14,35.6 C 6.1,40.1 0,50.8 0,59.9 v 5.7 l 5.9,4 v 44.9 l -5.9,4 v 5.7 c 0,9.1 6.2,19.8 14,24.3 l 55.6,32.1 c 3.8,2.2 8.8,3.4 14,3.4 5.2,0 10.3,-1.2 14,-3.4 l 5.2,-3 0.5,-7.1 38.9,-22.5 6.5,3.1 4.6,-2.6 c 7.9,-4.5 14,-15.2 14,-24.3 z"
   class="st1" /><path
   style="fill:#036eb8"
   inkscape:connector-curvature="0"
   id="path30"
   d="m 147.4,62.7 c 0,-4 -3,-9.3 -6.5,-11.3 L 90.2,22.1 c -1.6,-1 -4,-1.5 -6.5,-1.5 -2.5,0 -4.9,0.5 -6.5,1.5 L 26.5,51.5 C 23,53.5 20,58.8 20,62.8 v 58.6 c 0,4 3,9.3 6.5,11.3 L 77.2,162 c 1.6,1 4,1.5 6.5,1.5 2.5,0 4.9,-0.5 6.5,-1.5 l 50.7,-29.3 c 3.5,-2 6.5,-7.3 6.5,-11.3 v -11.5 c 0,-1.9 -1.5,-3.4 -3.4,-3.4 0,0 -16.9,0 -19.3,0 -2.4,0 -4.4,2.4 -4.9,3.6 -1.9,3.8 -4.4,7.4 -7.6,10.6 -15.7,15.7 -41.2,15.7 -56.9,0 -15.7,-15.7 -15.7,-41.2 0,-56.9 15.7,-15.7 41.2,-15.7 56.9,0 3.1,3.1 5.6,6.6 7.4,10.2 0.6,1.3 2.6,3.9 5.1,3.9 1.8,0 19.3,0 19.3,0 1.9,0 3.4,-1.5 3.4,-3.4 z"
   class="st2" /><g
   id="g36"
   transform="translate(-28.3,-2.9)">
		<polygon
   style="fill:#ea5514"
   id="polygon32"
   points="174.5,104.9 177.8,95 174.5,85 165.6,85 169,95 165.6,104.9 "
   class="st3" />
		<polygon
   style="fill:#ea5514"
   id="polygon34"
   points="162,104.9 165.4,95 162,85 153.1,85 156.5,95 153.1,104.9 "
   class="st3" />
	</g>
</svg>