<?xml version="1.0" encoding="UTF-8" standalone="no"?>
<svg
   xmlns:dc="http://purl.org/dc/elements/1.1/"
   xmlns:cc="http://creativecommons.org/ns#"
   xmlns:rdf="http://www.w3.org/1999/02/22-rdf-syntax-ns#"
   xmlns:svg="http://www.w3.org/2000/svg"
   xmlns="http://www.w3.org/2000/svg"
   xml:space="preserve"
   style="enable-background:new 0 0 24 24;"
   viewBox="0 0 24 24"
   y="0px"
   x="0px"
   id="レイヤー_1"
   version="1.1"><metadata
   id="metadata23"><rdf:RDF><cc:Work
       rdf:about=""><dc:format>image/svg+xml</dc:format><dc:type
         rdf:resource="http://purl.org/dc/dcmitype/StillImage" /><dc:title></dc:title></cc:Work></rdf:RDF></metadata><defs
   id="defs21">
	
	
	
	
	
</defs>
<style
   id="style2"
   type="text/css">
	.st0{fill:#F1F0EF;}
	.st1{fill:#595757;}
</style>

<path
   style="fill:#595757;stroke-width:1.26649511"
   class="st1"
   d="M 20.063491,0.12631575 H 19.047618 V 5.6842105 c 0,0.631579 -0.507937,1.2631579 -1.269841,1.2631579 H 6.3492059 c -0.6349206,0 -1.2698412,-0.5052632 -1.2698412,-1.2631579 V 0.12631575 H 1.2698411 C 0.6349205,0.12631575 -1e-7,0.63157891 -1e-7,1.3894736 V 22.736842 C -1e-7,23.368421 0.50793638,24 1.2698411,24 H 22.730157 c 0.634921,0 1.269842,-0.505263 1.269842,-1.263158 V 4.0421052 Z m 0,19.95789525 c 0,0.631579 -0.507937,1.263157 -1.269841,1.263157 H 5.3333329 c -0.6349206,0 -1.2698412,-0.505263 -1.2698412,-1.263157 V 10.863158 C 4.0634917,10.231579 4.5714282,9.6 5.3333329,9.6 H 18.920634 c 0.63492,0 1.269841,0.505263 1.269841,1.263158 v 9.221053 z"
   id="path6" /><rect
   style="fill:#595757;stroke-width:1.26649511"
   x="6.2222219"
   y="12.252632"
   class="st1"
   width="11.809524"
   height="1.2631578"
   id="rect8" /><rect
   style="fill:#595757;stroke-width:1.26649511"
   x="6.2222219"
   y="15.031579"
   class="st1"
   width="11.809524"
   height="1.2631578"
   id="rect10" /><rect
   style="fill:#595757;stroke-width:1.26649511"
   x="6.2222219"
   y="17.68421"
   class="st1"
   width="11.809524"
   height="1.2631578"
   id="rect12" /><rect
   style="fill:#595757;stroke-width:1.26649511"
   x="12.063491"
   y="8.0464126e-08"
   class="st1"
   width="3.9365077"
   height="5.0526314"
   id="rect14" />
</svg>