<?xml version="1.0" encoding="UTF-8" standalone="no"?>
<svg
   xmlns:dc="http://purl.org/dc/elements/1.1/"
   xmlns:cc="http://creativecommons.org/ns#"
   xmlns:rdf="http://www.w3.org/1999/02/22-rdf-syntax-ns#"
   xmlns:svg="http://www.w3.org/2000/svg"
   xmlns="http://www.w3.org/2000/svg"
   xml:space="preserve"
   style="enable-background:new 0 0 24 24;"
   viewBox="0 0 24 24"
   y="0px"
   x="0px"
   id="レイヤー_1"
   version="1.1"><metadata
   id="metadata23"><rdf:RDF><cc:Work
       rdf:about=""><dc:format>image/svg+xml</dc:format><dc:type
         rdf:resource="http://purl.org/dc/dcmitype/StillImage" /><dc:title></dc:title></cc:Work></rdf:RDF></metadata><defs
   id="defs21" />
<style
   id="style2"
   type="text/css">
	.st0{fill:#F1F0EF;}
	.st1{fill:#E50012;}
</style>

<g
   transform="matrix(1.1,0,0,1.1,-1.2,-1.2)"
   id="g14">
	<path
   style="fill:#e50012;stroke-width:1.01010096"
   id="path6"
   d="m 4.020202,7.3535354 c 0,-1.8181819 1.5151515,-3.3333334 3.3333334,-3.3333334 H 9.2727273 V 2 H 7.3535354 C 4.4242424,2 2,4.4242424 2,7.3535354 v 1.9191919 h 2.020202 z"
   class="st1" />
	<path
   style="fill:#e50012;stroke-width:1.01010096"
   id="path8"
   d="m 16.646465,4.020202 c 1.818181,0 3.333333,1.5151515 3.333333,3.3333334 V 9.2727273 H 22 V 7.3535354 C 22,4.4242424 19.575758,2 16.646465,2 h -1.919192 v 2.020202 z"
   class="st1" />
	<path
   style="fill:#e50012;stroke-width:1.01010096"
   id="path10"
   d="m 7.3535354,19.979798 c -1.8181819,0 -3.3333334,-1.515152 -3.3333334,-3.333333 V 14.727273 H 2 v 1.919192 C 2,19.575758 4.4242424,22 7.3535354,22 h 1.9191919 v -2.020202 z"
   class="st1" />
	<path
   style="fill:#e50012;stroke-width:1.01010096"
   id="path12"
   d="m 19.979798,16.646465 c 0,1.818181 -1.515152,3.333333 -3.333333,3.333333 H 14.727273 V 22 h 1.919192 C 19.575758,22 22,19.575758 22,16.646465 v -1.919192 h -2.020202 z"
   class="st1" />
</g>
<polygon
   style="fill:#e50012"
   transform="matrix(1.1,0,0,1.1,-1.2,-1.3438184)"
   id="polygon16"
   points="13,7.6 11,7.6 11,10.7 7.9,10.7 7.9,12.7 11,12.7 11,15.9 13,15.9 13,12.7 16.1,12.7 16.1,10.7 13,10.7 "
   class="st1" />
</svg>