<?xml version="1.0" encoding="UTF-8" standalone="no"?>
<svg
   xmlns:dc="http://purl.org/dc/elements/1.1/"
   xmlns:cc="http://creativecommons.org/ns#"
   xmlns:rdf="http://www.w3.org/1999/02/22-rdf-syntax-ns#"
   xmlns:svg="http://www.w3.org/2000/svg"
   xmlns="http://www.w3.org/2000/svg"
   xml:space="preserve"
   style="enable-background:new 0 0 24 24;"
   viewBox="0 0 24 24"
   y="0px"
   x="0px"
   id="レイヤー_1"
   version="1.1"><metadata
   id="metadata25"><rdf:RDF><cc:Work
       rdf:about=""><dc:format>image/svg+xml</dc:format><dc:type
         rdf:resource="http://purl.org/dc/dcmitype/StillImage" /><dc:title></dc:title></cc:Work></rdf:RDF></metadata><defs
   id="defs23"><marker
   style="overflow:visible"
   id="DotS"
   refX="0.0"
   refY="0.0"
   orient="auto"><path
     transform="scale(0.2) translate(7.4, 1)"
     style="fill-rule:evenodd;stroke:#ff0000;stroke-width:1pt;stroke-opacity:1;fill:#ff0000;fill-opacity:1"
     d="M -2.5,-1.0 C -2.5,1.7600000 -4.7400000,4.0 -7.5,4.0 C -10.260000,4.0 -12.5,1.7600000 -12.5,-1.0 C -12.5,-3.7600000 -10.260000,-6.0 -7.5,-6.0 C -4.7400000,-6.0 -2.5,-3.7600000 -2.5,-1.0 z "
     id="path4628" /></marker><marker
   id="ExperimentalArrow"
   refX="5.0"
   refY="3.0"
   orient="auto-start-reverse"><path
     style="fill:context-stroke;stroke:#ff0000;stroke-opacity:1"
     d="m 10,3 -10,3 0,-6 z"
     id="path4814" /></marker><marker
   style="overflow:visible"
   id="EmptyTriangleInL"
   refX="0.0"
   refY="0.0"
   orient="auto"><path
     transform="scale(-0.8) translate(-6,0)"
     style="fill-rule:evenodd;fill:#ffffff;stroke:#ff0000;stroke-width:1pt;stroke-opacity:1"
     d="M 5.77,0.0 L -2.88,5.0 L -2.88,-5.0 L 5.77,0.0 z "
     id="path4712" /></marker><marker
   style="overflow:visible"
   id="Arrow2Lstart"
   refX="0.0"
   refY="0.0"
   orient="auto"><path
     transform="scale(1.1) translate(1,0)"
     d="M 8.7185878,4.0337352 L -2.2072895,0.016013256 L 8.7185884,-4.0017078 C 6.9730900,-1.6296469 6.9831476,1.6157441 8.7185878,4.0337352 z "
     style="fill-rule:evenodd;stroke-width:0.625;stroke-linejoin:round;stroke:#ff0000;stroke-opacity:1;fill:#ff0000;fill-opacity:1"
     id="path4579" /></marker><marker
   style="overflow:visible;"
   id="Arrow1Lend"
   refX="0.0"
   refY="0.0"
   orient="auto"><path
     transform="scale(0.8) rotate(180) translate(12.5,0)"
     style="fill-rule:evenodd;stroke:#ff0000;stroke-width:1pt;stroke-opacity:1;fill:#ff0000;fill-opacity:1"
     d="M 0.0,0.0 L 5.0,-5.0 L -12.5,0.0 L 5.0,5.0 L 0.0,0.0 z "
     id="path4564" /></marker>
	
	
	
	
</defs>
<style
   id="style2"
   type="text/css">
	.st0{fill:#F1F0EF;}
	.st1{fill:#E50012;}
	.st2{fill:#595757;}
</style>

<path
   id="path48"
   style="fill:none;fill-opacity:1;stroke:#036eb7;stroke-width:4.08461857;stroke-linecap:round;stroke-miterlimit:2.29999995;stroke-dasharray:none;stroke-opacity:1"
   d="M 18.621882,6.1041901 A 9.4602375,9.5598345 0 0 1 19.56668,17.398104 9.4602375,9.5598345 0 0 1 9.176082,21.665921 9.4602375,9.5598345 0 0 1 2.0557544,12.908533 9.4602375,9.5598345 0 0 1 8.214469,3.4358662" /><path
   style="fill:#036eb7;fill-opacity:1;stroke:none;stroke-width:0.91546446px;stroke-linecap:butt;stroke-linejoin:miter;stroke-opacity:1"
   d="M 13.725502,0.14386169 13.665474,10.452594 23.980982,3.0775932 Z"
   id="path5203" />


<circle
   r="2.1797729"
   cy="12.593307"
   cx="11.465644"
   id="path5207"
   style="fill:#036eb7;fill-opacity:1;stroke:none;stroke-width:3.42950916;stroke-linecap:round;stroke-miterlimit:2.29999995;stroke-dasharray:none;stroke-opacity:1" /></svg>