<?xml version="1.0" encoding="UTF-8" standalone="no"?>
<svg
   xmlns:dc="http://purl.org/dc/elements/1.1/"
   xmlns:cc="http://creativecommons.org/ns#"
   xmlns:rdf="http://www.w3.org/1999/02/22-rdf-syntax-ns#"
   xmlns:svg="http://www.w3.org/2000/svg"
   xmlns="http://www.w3.org/2000/svg"
   xml:space="preserve"
   style="enable-background:new 0 0 24 24;"
   viewBox="0 0 24 24"
   y="0px"
   x="0px"
   id="レイヤー_1"
   version="1.1"><metadata
   id="metadata21"><rdf:RDF><cc:Work
       rdf:about=""><dc:format>image/svg+xml</dc:format><dc:type
         rdf:resource="http://purl.org/dc/dcmitype/StillImage" /><dc:title></dc:title></cc:Work></rdf:RDF></metadata><defs
   id="defs19" />
<style
   id="style2"
   type="text/css">
	.st0{fill:#F1F0EF;}
	.st1{opacity:0.13;}
	.st2{fill:#545268;}
	.st3{fill:#E50012;}
	.st4{fill:#595757;}
</style>



<g
   transform="matrix(1.104718,0,0,1.1254396,-1.4085155,-1.8851113)"
   id="g30"><g
     style="opacity:0.12999998"
     class="st1"
     id="g10">
	<g
   id="g8">
		<path
   style="fill:#545268"
   class="st2"
   d="M 8.3,15.8 C 6.5,15.8 4.6,15.1 3.3,13.7 0.6,11 0.6,6.5 3.3,3.7 6,1 10.5,1 13.3,3.7 15.6,6 16,9.5 14.4,12.2 L 13.5,11.7 C 14.9,9.3 14.5,6.3 12.6,4.4 10.3,2.1 6.4,2.1 4.1,4.4 1.7,6.9 1.7,10.7 4,13 c 1.9,1.9 4.8,2.3 7.1,1 l 0.5,0.9 c -1,0.6 -2.2,0.9 -3.3,0.9"
   id="path6" />
	</g>
</g><path
     style="fill:#e50012"
     class="st3"
     d="M 11.1,5.9 C 9.6,4.4 7,4.4 5.5,5.9 4.7,6.7 4.3,7.7 4.3,8.8 c 0,1.1 0.4,2.1 1.2,2.8 0.8,0.8 1.8,1.2 2.8,1.2 0.3,0 0.6,0 0.9,-0.1 L 9,11.7 c -0.2,0 -0.3,0 -0.5,0 L 8.4,10.7 7.6,10 V 9.1 L 8.5,8.2 10.1,8.1 11.2,9 c 0,0.2 0,0.4 -0.1,0.5 l 1,0.2 c 0.4,-1.3 0,-2.8 -1,-3.8"
     id="path12" /><path
     style="fill:#595757"
     class="st4"
     d="m 23,7.8 v -1 C 22.8,6.8 22.7,6.7 22.5,6.7 22,6.7 21.6,6.9 21.2,7.2 20.8,7.5 20.5,8 20.4,8.5 20.1,8.3 19.7,8.2 19.3,8.2 18.8,8.2 18.4,8.4 18,8.7 17.5,9.1 17.3,9.6 17.2,10.2 17,10.1 16.7,10 16.4,10 c -0.5,0 -0.9,0.2 -1.3,0.5 -0.4,0.3 -0.7,0.8 -0.7,1.3 l -0.3,-0.3 -0.7,-0.7 c 0.8,-2 0.4,-4.3 -1.2,-5.9 -1,-1 -2.4,-1.6 -3.9,-1.6 -1.5,0 -2.8,0.6 -3.9,1.6 -1,1 -1.6,2.4 -1.6,3.9 0,1.5 0.6,2.8 1.6,3.9 1.1,1.1 2.5,1.6 3.9,1.6 0.7,0 1.4,-0.1 2.1,-0.4 v -0.1 l 5.3,5.3 h -1.3 c -1.1,0 -2.1,0.8 -2.2,1.9 -0.1,0.6 0.1,1.2 0.5,1.6 0.1,0.2 0.3,0.3 0.5,0.4 h 9.3 c -0.3,0 -0.6,-0.1 -0.9,-0.2 -0.9,-0.3 -1.7,-0.4 -2.5,-0.4 H 14.3 C 14,22.4 13.6,22.3 13.4,22 13.2,21.7 13.1,21.4 13.1,21.1 13.2,20.5 13.7,20 14.4,20 h 2.4 1.2 l -0.9,-0.8 c 0,0 0,0 0,0 L 8.3,10.4 C 8,10.1 7.9,9.8 7.9,9.4 7.9,9.1 8.1,8.7 8.3,8.5 8.8,8.2 9.5,8.2 10,8.7 l 5,5 1.5,1.5 0.6,-0.6 -1.5,-1.6 c -0.2,-0.2 -0.4,-0.6 -0.3,-0.9 0,-0.3 0.2,-0.7 0.4,-0.9 0.5,-0.4 1.2,-0.3 1.7,0.1 l 0.5,0.5 0.6,-0.6 v 0 C 18.3,11 18.1,10.6 18.2,10.3 18.2,10 18.4,9.6 18.6,9.4 19.1,9 19.8,9.1 20.3,9.5 l 0.8,0.8 c 0,0 0,0 0,0 L 21.7,9.7 C 21.5,9.5 21.3,9.1 21.4,8.8 21.4,8.5 21.6,8.1 21.8,7.9 22.1,7.7 22.6,7.6 23,7.8 Z M 9,7.4 C 8.5,7.4 8.1,7.6 7.7,7.9 7.3,8.2 7,8.8 7,9.4 7,10 7.2,10.6 7.6,11 l 2,2 C 8,13.5 6.3,13.1 5.1,11.9 4.3,11.1 3.8,9.9 3.8,8.7 3.8,7.5 4.3,6.4 5.1,5.5 5.9,4.7 7.1,4.2 8.3,4.2 c 1.2,0 2.3,0.5 3.2,1.3 1.2,1.2 1.6,2.8 1.1,4.4 l -2,-2 C 10.2,7.6 9.6,7.4 9,7.4 Z"
     id="path14" /></g>
</svg>