<?xml version="1.0" encoding="utf-8"?>
<!-- Generator: Adobe Illustrator 22.0.1, SVG Export Plug-In . SVG Version: 6.00 Build 0)  -->
<svg version="1.1" id="レイヤー_1" xmlns="http://www.w3.org/2000/svg" xmlns:xlink="http://www.w3.org/1999/xlink" x="0px"
	 y="0px" viewBox="0 0 385.5 72.3" style="enable-background:new 0 0 385.5 72.3;" xml:space="preserve">
<style type="text/css">
	.st0{fill:#231815;}
	.st1{fill:#036EB8;}
	.st2{fill:#EA5514;}
</style>
<g>
	<g>
		<polygon class="st0" points="125.8,21.2 125.8,32.3 112.8,32.3 112.8,21.2 105.3,21.2 105.3,50.9 112.8,50.9 112.8,39.8 
			125.8,39.8 125.8,50.9 133.3,50.9 133.3,21.2 		"/>
		<polygon class="st0" points="234,27.7 234,21.2 208.5,21.2 208.5,50.9 234,50.9 234,44.4 215.9,44.4 215.9,39.3 229.5,39.3 
			229.5,32.8 215.9,32.8 215.9,27.7 		"/>
		<path class="st0" d="M351.9,21.2v29.7h-7.4V21.2H351.9z"/>
		<polygon class="st0" points="296.3,21.2 296.3,40.2 284.1,21.2 281.2,21.2 274.8,21.2 273.8,21.2 273.8,50.9 281.2,50.9 
			281.2,31.3 293.8,50.9 296.3,50.9 303.1,50.9 303.7,50.9 303.7,21.2 		"/>
		<path class="st0" d="M101.2,50.9H85.4c-5.4,0-9.9-4.4-9.9-9.8V31c0-5.4,4.4-9.8,9.9-9.8h15.8v7.3H85.4c-1.4,0-2.6,1.2-2.6,2.5
			v10.1c0,1.4,1.2,2.5,2.6,2.5h15.8V50.9z"/>
		<path class="st0" d="M160.1,50.9h-12.8c-5.4,0-9.9-4.4-9.9-9.8V31c0-5.4,4.4-9.8,9.9-9.8h12.8c5.4,0,9.9,4.4,9.9,9.8v10.1
			C169.9,46.5,165.5,50.9,160.1,50.9z M147.2,28.5c-1.4,0-2.6,1.2-2.6,2.5v10.1c0,1.4,1.2,2.5,2.6,2.5h12.8c1.4,0,2.6-1.2,2.6-2.5
			V31c0-1.4-1.2-2.5-2.6-2.5H147.2z"/>
		<path class="st0" d="M259.8,50.9H247c-5.4,0-9.9-4.4-9.9-9.8V31c0-5.4,4.4-9.8,9.9-9.8h12.8c5.4,0,9.9,4.4,9.9,9.8v10.1
			C269.7,46.5,265.3,50.9,259.8,50.9z M247,28.5c-1.4,0-2.6,1.2-2.6,2.5v10.1c0,1.4,1.2,2.5,2.6,2.5h12.8c1.4,0,2.6-1.2,2.6-2.5V31
			c0-1.4-1.2-2.5-2.6-2.5H247z"/>
		<path class="st0" d="M330.5,50.9h-12.8c-5.4,0-9.9-4.4-9.9-9.8V31c0-5.4,4.4-9.8,9.9-9.8h12.8c5.4,0,9.9,4.4,9.9,9.8v10.1
			C340.4,46.5,335.9,50.9,330.5,50.9z M317.7,28.5c-1.4,0-2.6,1.2-2.6,2.5v10.1c0,1.4,1.2,2.5,2.6,2.5h12.8c1.4,0,2.6-1.2,2.6-2.5
			V31c0-1.4-1.2-2.5-2.6-2.5H317.7z"/>
		<path class="st0" d="M204.4,50.9l-8.6-9.1c4.6-0.3,8.3-4.1,8.3-8.8v-2.9c0-4.9-4-8.8-8.8-8.8H174v29.7h7.3V37l13.1,13.9H204.4z
			 M181.4,34.5v-5.9h13.9c0.8,0,1.5,0.7,1.5,1.5V33c0,0.8-0.7,1.5-1.5,1.5H181.4z"/>
		<path class="st0" d="M372.3,21.3l-16.3,0v29.7l16.3,0c6.6,0,12-5.3,12-11.9v-5.8C384.2,26.6,378.9,21.3,372.3,21.3z M376.9,39
			c0,2.5-2.1,4.6-4.6,4.6h-8.9V28.6h8.9c2.6,0,4.6,2.1,4.6,4.6V39z"/>
	</g>
	<g>
		<path class="st0" d="M66,43.2c0-0.7-0.6-1.3-1.3-1.3h-3.1c-0.7,0-1.3,0.6-1.3,1.3v4.4c0,2.3-1.6,5-3.5,6.1L36.8,65.1
			c-1,0.6-2.2,0.9-3.5,0.9c-1.3,0-2.6-0.3-3.5-0.9L9.9,53.7c-2-1.1-3.5-3.8-3.5-6.1V24.7c0-2.3,1.6-5,3.5-6.1L29.7,7.1
			c1-0.6,2.2-0.9,3.5-0.9c1.3,0,2.6,0.3,3.5,0.9l19.8,11.4c2,1.1,3.5,3.8,3.5,6.1V29c0,0.7,0.6,1.3,1.3,1.3h3.1
			c0.7,0,1.3-0.6,1.3-1.3l0-5.5c0-3.6-2.4-7.7-5.5-9.5l-1.9-1.1L56.2,14L41,5.3l-0.2-2.6l-2.1-1.2c-1.5-0.9-3.4-1.3-5.5-1.3
			s-4,0.5-5.5,1.3L6,14c-3.1,1.8-5.5,6-5.5,9.5v2.2l2.3,1.6v17.6l-2.3,1.6v2.2c0,3.6,2.4,7.7,5.5,9.5l21.7,12.6
			c1.5,0.9,3.4,1.3,5.5,1.3s4-0.5,5.5-1.3l2-1.2l0.2-2.8L56.1,58l2.5,1.2l1.8-1c3.1-1.8,5.5-6,5.5-9.5L66,43.2z"/>
		<path class="st1" d="M58.1,24.6c0-1.6-1.2-3.6-2.5-4.4L35.8,8.8c-0.6-0.4-1.6-0.6-2.5-0.6c-1,0-1.9,0.2-2.5,0.6L10.9,20.2
			c-1.4,0.8-2.5,2.8-2.5,4.4v22.9c0,1.6,1.2,3.6,2.5,4.4l19.8,11.4c0.6,0.4,1.6,0.6,2.5,0.6s1.9-0.2,2.5-0.6l19.8-11.4
			c1.4-0.8,2.5-2.8,2.5-4.4V43c0-0.7-0.6-1.3-1.3-1.3c0,0-6.6,0-7.6,0c-0.9,0-1.7,0.9-1.9,1.4c-0.7,1.5-1.7,2.9-3,4.1
			c-6.1,6.1-16.1,6.1-22.2,0C16,41.1,16,31.1,22.1,25c6.1-6.1,16.1-6.1,22.2,0c1.2,1.2,2.2,2.6,2.9,4c0.3,0.5,1,1.5,2,1.5
			c0.7,0,7.6,0,7.6,0c0.7,0,1.3-0.6,1.3-1.3V24.6z"/>
		<g>
			<polygon class="st2" points="57.7,32.2 54.2,32.2 55.5,36.1 54.2,40 57.7,40 59,36.1 			"/>
			<polygon class="st2" points="52.8,32.2 49.3,32.2 50.6,36.1 49.3,40 52.8,40 54.1,36.1 			"/>
		</g>
	</g>
</g>
</svg>
